<?xml version="1.0" encoding="utf-8"?>
<!-- Generator: Adobe Illustrator 19.1.0, SVG Export Plug-In . SVG Version: 6.00 Build 0)  -->
<!DOCTYPE svg PUBLIC "-//W3C//DTD SVG 1.1//EN" "http://www.w3.org/Graphics/SVG/1.1/DTD/svg11.dtd">
<svg version="1.1" id="Layer_1" xmlns="http://www.w3.org/2000/svg" xmlns:xlink="http://www.w3.org/1999/xlink" x="0px" y="0px"
	 viewBox="-917.6 544.7 19.3 16.9" style="enable-background:new -917.6 544.7 19.3 16.9;" xml:space="preserve">
<style type="text/css">
	.st0{fill:#BFBEDC;}
	.st1{fill:#7A77B5;}
</style>
<g>
	<g>
		<path class="st0" d="M-899.1,561.6L-899.1,561.6h-17.8c-0.3,0-0.5-0.1-0.6-0.4c-0.1-0.2-0.1-0.5,0-0.7l8.9-15.4
			c0.3-0.5,1-0.5,1.3,0l8.8,15.3c0.1,0.1,0.2,0.3,0.2,0.5C-898.4,561.3-898.7,561.6-899.1,561.6z"/>
	</g>
	<g>
		<path class="st1" d="M-908,556.1c-0.4,0-0.7-0.3-0.7-0.7v-4.8c0-0.4,0.3-0.7,0.7-0.7s0.7,0.3,0.7,0.7v4.8
			C-907.3,555.8-907.6,556.1-908,556.1z"/>
	</g>
	<circle class="st1" cx="-908" cy="557.9" r="0.7"/>
</g>
</svg>
