<?xml version="1.0" encoding="utf-8"?>
<!-- Generator: Adobe Illustrator 17.0.0, SVG Export Plug-In . SVG Version: 6.00 Build 0)  -->
<!DOCTYPE svg PUBLIC "-//W3C//DTD SVG 1.1//EN" "http://www.w3.org/Graphics/SVG/1.1/DTD/svg11.dtd">
<svg version="1.1" id="Layer_1" xmlns="http://www.w3.org/2000/svg" xmlns:xlink="http://www.w3.org/1999/xlink" x="0px" y="0px"
	 width="7px" height="18px" viewBox="0 0 7 18" enable-background="new 0 0 7 18" xml:space="preserve">
<g>
	<path fill="#929497" d="M3.547,17.382c-1.612,0-2.917-1.287-2.935-2.884L0.638,7.22c0.001-0.331,0.27-0.598,0.6-0.598
		c0,0,0.001,0,0.002,0c0.332,0.001,0.599,0.271,0.598,0.602l-0.026,7.268c0.01,0.938,0.776,1.706,1.736,1.689
		c0.463-0.021,0.888-0.206,1.211-0.535c0.319-0.326,0.492-0.753,0.487-1.201L5.24,3.536C5.23,2.572,4.466,1.818,3.499,1.818
		c-0.007,0-0.014,0-0.021,0C3.019,1.823,2.572,2.015,2.251,2.343C1.903,2.699,1.749,3.036,1.754,3.435
		C1.757,3.766,1.491,4.038,1.16,4.042C0.837,4.017,0.557,3.779,0.553,3.448c-0.008-0.723,0.267-1.359,0.84-1.944
		C1.935,0.95,2.69,0.627,3.464,0.618c0.011,0,0.022,0,0.034,0c1.608,0,2.925,1.299,2.943,2.911l0.006,10.909
		c0.008,0.762-0.286,1.492-0.83,2.048c-0.533,0.543-1.255,0.861-2.036,0.896C3.57,17.382,3.558,17.382,3.547,17.382z"/>
	<path fill="#929497" d="M3.629,14.799c-0.331,0-0.599-0.268-0.6-0.599L3.013,7.209C3.011,7.055,2.949,6.908,2.838,6.8
		C2.727,6.69,2.544,6.619,2.419,6.634C2.264,6.635,2.114,6.699,2.005,6.81c-0.105,0.108-0.168,0.26-0.167,0.405
		c0.003,0.332-0.262,0.603-0.593,0.607c-0.002,0-0.005,0-0.007,0c-0.328,0-0.596-0.264-0.6-0.593
		c-0.005-0.463,0.18-0.921,0.509-1.258c0.33-0.337,0.789-0.533,1.259-0.538c0.474-0.014,0.93,0.175,1.271,0.508
		c0.34,0.333,0.531,0.78,0.536,1.259l0.016,6.996c0,0.332-0.268,0.601-0.599,0.602C3.63,14.799,3.629,14.799,3.629,14.799z"/>
</g>
</svg>
