<?xml version="1.0" encoding="utf-8"?>
<!-- Generator: Adobe Illustrator 17.0.0, SVG Export Plug-In . SVG Version: 6.00 Build 0)  -->
<!DOCTYPE svg PUBLIC "-//W3C//DTD SVG 1.1//EN" "http://www.w3.org/Graphics/SVG/1.1/DTD/svg11.dtd">
<svg version="1.1" id="Layer_1" xmlns="http://www.w3.org/2000/svg" xmlns:xlink="http://www.w3.org/1999/xlink" x="0px" y="0px"
	 width="25px" height="26px" viewBox="0 0 25 26" enable-background="new 0 0 25 26" xml:space="preserve">
<path fill="#FFFFFF" d="M24.072,23.593l-6.989-6.989c1.333-1.6,2.136-3.656,2.136-5.897c0-1.871-0.562-3.612-1.524-5.067
	l2.944-2.944c0.391-0.391,0.391-1.023,0-1.414s-1.023-0.391-1.414,0L4.575,15.931c-1.311-1.355-2.121-3.195-2.121-5.224
	c0-4.157,3.382-7.539,7.539-7.539c1.402,0,2.711,0.392,3.836,1.061l1.227-1.227C13.601,2.043,11.862,1.48,9.993,1.48
	c-5.088,0-9.227,4.139-9.227,9.227c0,2.495,1.005,4.752,2.619,6.414l-2.393,2.393c-0.391,0.391-0.391,1.023,0,1.414
	c0.195,0.195,0.451,0.293,0.707,0.293s0.512-0.098,0.707-0.293L16.465,6.869c0.672,1.125,1.066,2.434,1.066,3.838
	c0,4.157-3.381,7.539-7.538,7.539c-0.67,0-1.317-0.096-1.936-0.261l-1.338,1.338c1.019,0.389,2.12,0.611,3.274,0.611
	c2.241,0,4.296-0.803,5.897-2.137l6.989,6.989c0,0,0.684,0.527,1.196-0.036C24.587,24.187,24.072,23.593,24.072,23.593z"/>
</svg>
