<?xml version="1.0" encoding="utf-8"?>
<!-- Generator: Adobe Illustrator 17.0.0, SVG Export Plug-In . SVG Version: 6.00 Build 0)  -->
<!DOCTYPE svg PUBLIC "-//W3C//DTD SVG 1.1//EN" "http://www.w3.org/Graphics/SVG/1.1/DTD/svg11.dtd">
<svg version="1.1" id="Layer_1" xmlns="http://www.w3.org/2000/svg" xmlns:xlink="http://www.w3.org/1999/xlink" x="0px" y="0px"
	 width="18px" height="18px" viewBox="0 0 18 18" enable-background="new 0 0 18 18" xml:space="preserve">
<path fill="#E3E3E3" d="M14,6.943H8.757V5.857c0-1.671-1.359-3.03-3.03-3.03s-3.03,1.359-3.03,3.03h1c0-1.119,0.911-2.03,2.03-2.03
	c1.119,0,2.03,0.911,2.03,2.03v1.086H7.575c-0.719,0-1.304,0.585-1.304,1.304v5.622c0,0.719,0.585,1.304,1.304,1.304H14
	c0.718,0,1.303-0.585,1.303-1.304V8.247C15.303,7.528,14.719,6.943,14,6.943z M14.303,13.869c0,0.167-0.136,0.304-0.303,0.304H7.575
	c-0.167,0-0.304-0.137-0.304-0.304V8.247c0-0.167,0.136-0.304,0.304-0.304H14c0.167,0,0.303,0.137,0.303,0.304V13.869z
	 M10.787,9.853c-0.499,0-0.903,0.404-0.903,0.903s0.404,0.904,0.903,0.904c0.5,0,0.904-0.405,0.904-0.904S11.287,9.853,10.787,9.853
	z"/>
</svg>
