<?xml version="1.0" encoding="utf-8"?>
<!-- Generator: Adobe Illustrator 17.0.0, SVG Export Plug-In . SVG Version: 6.00 Build 0)  -->
<!DOCTYPE svg PUBLIC "-//W3C//DTD SVG 1.1//EN" "http://www.w3.org/Graphics/SVG/1.1/DTD/svg11.dtd">
<svg version="1.1" id="Layer_1" xmlns="http://www.w3.org/2000/svg" xmlns:xlink="http://www.w3.org/1999/xlink" x="0px" y="0px"
	 width="18px" height="18px" viewBox="0 0 18 18" enable-background="new 0 0 18 18" xml:space="preserve">
<path fill="#E3E3E3" d="M12.213,6.943H12.03V5.857c0-1.671-1.359-3.03-3.03-3.03s-3.03,1.359-3.03,3.03v1.086H5.787
	c-0.719,0-1.303,0.585-1.303,1.304v5.622c0,0.719,0.584,1.304,1.303,1.304h6.426c0.719,0,1.303-0.585,1.303-1.304V8.247
	C13.516,7.528,12.932,6.943,12.213,6.943z M6.97,5.857c0-1.119,0.911-2.03,2.03-2.03s2.03,0.911,2.03,2.03v1.086H6.97V5.857z
	 M12.516,13.869c0,0.167-0.136,0.304-0.303,0.304H5.787c-0.167,0-0.303-0.137-0.303-0.304V8.247c0-0.167,0.136-0.304,0.303-0.304
	h6.426c0.167,0,0.303,0.137,0.303,0.304V13.869z M9,9.854c-0.499,0-0.904,0.404-0.904,0.903S8.501,11.661,9,11.661
	s0.904-0.405,0.904-0.904S9.499,9.854,9,9.854z"/>
</svg>
