<?xml version="1.0" encoding="utf-8"?>
<!-- Generator: Adobe Illustrator 17.0.0, SVG Export Plug-In . SVG Version: 6.00 Build 0)  -->
<!DOCTYPE svg PUBLIC "-//W3C//DTD SVG 1.1//EN" "http://www.w3.org/Graphics/SVG/1.1/DTD/svg11.dtd">
<svg version="1.1" id="Layer_1" xmlns="http://www.w3.org/2000/svg" xmlns:xlink="http://www.w3.org/1999/xlink" x="0px" y="0px"
	 width="24px" height="18px" viewBox="0 0 24 18" enable-background="new 0 0 24 18" xml:space="preserve">
<g>
	<path fill="#B8141A" d="M21.041,17.182H2.959c-1.312,0-2.381-1.068-2.381-2.381V4.197c0-1.312,1.068-2.381,2.381-2.381
		c0.219,0,0.397,0.178,0.397,0.397S3.178,2.61,2.959,2.61c-0.875,0-1.587,0.712-1.587,1.587v10.604c0,0.875,0.712,1.587,1.587,1.587
		h18.082c0.875,0,1.587-0.712,1.587-1.587V4.197c0-0.875-0.712-1.587-1.587-1.587c-0.219,0-0.397-0.178-0.397-0.397
		s0.178-0.397,0.397-0.397c1.312,0,2.381,1.068,2.381,2.381v10.604C23.422,16.113,22.354,17.182,21.041,17.182z"/>
	<g>
		<line fill="#F2D7D8" x1="7.492" y1="2.213" x2="16.511" y2="2.213"/>
		<path fill="#B8141A" d="M16.511,2.61H7.492c-0.219,0-0.397-0.178-0.397-0.397s0.178-0.397,0.397-0.397h9.019
			c0.219,0,0.397,0.178,0.397,0.397S16.73,2.61,16.511,2.61z"/>
	</g>
	<path fill="#B8141A" d="M4.846,2.61H2.959c-0.219,0-0.397-0.178-0.397-0.397S2.74,1.816,2.959,1.816h1.887
		c0.219,0,0.397,0.178,0.397,0.397S5.065,2.61,4.846,2.61z"/>
	<g>
		<path fill="#B8141A" d="M19.991,9.852h-6.798c-0.219,0-0.397-0.178-0.397-0.397s0.178-0.397,0.397-0.397h6.798
			c0.219,0,0.397,0.178,0.397,0.397S20.21,9.852,19.991,9.852z"/>
		<path fill="#B8141A" d="M16.897,7.426h-3.704c-0.219,0-0.397-0.178-0.397-0.397s0.178-0.397,0.397-0.397h3.704
			c0.219,0,0.397,0.178,0.397,0.397S17.116,7.426,16.897,7.426z"/>
		<path fill="#B8141A" d="M19.991,12.277h-6.798c-0.219,0-0.397-0.178-0.397-0.397s0.178-0.397,0.397-0.397h6.798
			c0.219,0,0.397,0.178,0.397,0.397S20.21,12.277,19.991,12.277z"/>
	</g>
	<g>
		<g>
			<path fill="#FFFFFF" d="M7.243,5.717c-1.051,0-1.907,0.79-1.907,1.762c0,1.16,1.023,2.936,1.907,2.936
				c0.884,0,1.907-1.776,1.907-2.936C9.15,6.507,8.294,5.717,7.243,5.717z"/>
			<path fill="#B8141A" d="M7.243,10.811c-1.227,0-2.304-2.078-2.304-3.333c0-1.19,1.034-2.158,2.304-2.158s2.303,0.968,2.303,2.158
				C9.546,8.733,8.47,10.811,7.243,10.811z M7.243,6.114c-0.833,0-1.51,0.612-1.51,1.364c0,1.071,0.963,2.539,1.51,2.539
				c0.546,0,1.509-1.468,1.509-2.539C8.752,6.726,8.076,6.114,7.243,6.114z"/>
		</g>
		<g>
			<path fill="#FFFFFF" d="M10.3,13.584H4.186c-0.241,0-0.437-0.176-0.437-0.395c0-1.274,0.915-2.763,3.493-2.763
				s3.493,1.488,3.493,2.763C10.737,13.408,10.541,13.584,10.3,13.584z"/>
			<path fill="#B8141A" d="M10.3,13.981H4.187c-0.46,0-0.834-0.355-0.834-0.792c0-1.573,1.203-3.16,3.891-3.16
				c2.687,0,3.89,1.587,3.89,3.16C11.133,13.626,10.759,13.981,10.3,13.981z M7.243,10.824c-2.283,0-3.097,1.222-3.097,2.366
				l6.153-0.002c0.027,0,0.042-0.011,0.044-0.014C10.339,12.046,9.526,10.824,7.243,10.824z"/>
		</g>
	</g>
	<path fill="#B8141A" d="M6.169,3.629c-0.219,0-0.397-0.178-0.397-0.397V1.215c0-0.219,0.178-0.397,0.397-0.397
		s0.397,0.178,0.397,0.397v2.017C6.566,3.451,6.388,3.629,6.169,3.629z"/>
	<path fill="#B8141A" d="M21.041,2.61h-1.887c-0.219,0-0.397-0.178-0.397-0.397s0.178-0.397,0.397-0.397h1.887
		c0.219,0,0.397,0.178,0.397,0.397S21.26,2.61,21.041,2.61z"/>
	<path fill="#B8141A" d="M17.831,3.629c-0.219,0-0.397-0.178-0.397-0.397V1.215c0-0.219,0.178-0.397,0.397-0.397
		s0.397,0.178,0.397,0.397v2.017C18.228,3.451,18.05,3.629,17.831,3.629z"/>
</g>
</svg>
