<?xml version="1.0" encoding="utf-8"?>
<!-- Generator: Adobe Illustrator 17.0.0, SVG Export Plug-In . SVG Version: 6.00 Build 0)  -->
<!DOCTYPE svg PUBLIC "-//W3C//DTD SVG 1.1//EN" "http://www.w3.org/Graphics/SVG/1.1/DTD/svg11.dtd">
<svg version="1.1" id="Layer_1" xmlns="http://www.w3.org/2000/svg" xmlns:xlink="http://www.w3.org/1999/xlink" x="0px" y="0px"
	 width="19px" height="19px" viewBox="0 0 19 19" enable-background="new 0 0 19 19" xml:space="preserve">
<g id="Your_Icon_1_">
	<g>
		<path fill="#FFFFFF" d="M17.981,17.106l-5.137-5.138c0.98-1.176,1.57-2.687,1.57-4.334c0-3.74-3.042-6.782-6.782-6.782
			S0.85,3.895,0.85,7.634c0,3.74,3.043,6.782,6.782,6.782c1.647,0,3.158-0.591,4.334-1.571l5.137,5.138c0,0,0.503,0.388,0.879-0.027
			C18.36,17.543,17.981,17.106,17.981,17.106z M7.633,2.092c3.055,0,5.541,2.486,5.541,5.542c0,3.055-2.485,5.541-5.541,5.541
			s-5.542-2.486-5.542-5.541C2.091,4.578,4.577,2.092,7.633,2.092z"/>
	</g>
</g>
</svg>
