<?xml version="1.0" encoding="utf-8"?>
<!-- Generator: Adobe Illustrator 17.0.0, SVG Export Plug-In . SVG Version: 6.00 Build 0)  -->
<!DOCTYPE svg PUBLIC "-//W3C//DTD SVG 1.1//EN" "http://www.w3.org/Graphics/SVG/1.1/DTD/svg11.dtd">
<svg version="1.1" id="Layer_1" xmlns="http://www.w3.org/2000/svg" xmlns:xlink="http://www.w3.org/1999/xlink" x="0px" y="0px"
	 width="30px" height="30px" viewBox="0 0 30 30" enable-background="new 0 0 30 30" xml:space="preserve">
<g>
	<path fill="#B8141A" d="M19.64,15.122c1.214-1.209,1.895-2.834,1.895-4.578c0-3.57-2.905-6.476-6.476-6.476
		s-6.476,2.905-6.476,6.476c0,1.727,0.67,3.341,1.864,4.545c-3.845,1.474-6.196,4.799-6.196,8.861v1.116c0,0.276,0.224,0.5,0.5,0.5
		h6.845c0.276,0,0.5-0.224,0.5-0.5s-0.224-0.5-0.5-0.5H5.251V23.95c0-3.947,2.361-7.008,6.316-8.186
		c0.18-0.054,0.315-0.204,0.349-0.389s-0.038-0.373-0.187-0.487c-1.363-1.046-2.145-2.63-2.145-4.345
		c0-3.02,2.456-5.476,5.476-5.476s5.476,2.456,5.476,5.476c0,1.729-0.793,3.322-2.175,4.369c-0.15,0.113-0.223,0.301-0.191,0.485
		c0.033,0.186,0.167,0.336,0.346,0.392c3.904,1.196,6.235,4.247,6.235,8.16v0.616h-6.232c-0.276,0-0.5,0.224-0.5,0.5
		s0.224,0.5,0.5,0.5h6.732c0.276,0,0.5-0.224,0.5-0.5V23.95C25.749,19.86,23.484,16.616,19.64,15.122z M18.239,22.405l-2.417-4.301
		l1.34-0.305c0.269-0.061,0.438-0.329,0.377-0.599c-0.061-0.269-0.328-0.437-0.598-0.376l-1.891,0.43l-1.891-0.43
		c-0.268-0.061-0.537,0.107-0.598,0.377c-0.061,0.269,0.107,0.537,0.377,0.598l1.359,0.309l-2.437,4.352
		c-0.109,0.195-0.076,0.439,0.083,0.598l2.728,2.728c0.094,0.094,0.221,0.146,0.354,0.146s0.26-0.053,0.354-0.146l2.781-2.781
		C18.315,22.846,18.349,22.601,18.239,22.405z M15.022,24.725l-2.106-2.106l2.144-3.829l2.122,3.775L15.022,24.725z"/>
	<rect x="0" y="0" fill="none" width="30" height="30"/>
</g>
</svg>
