<?xml version="1.0" encoding="utf-8"?>
<!-- Generator: Adobe Illustrator 17.0.0, SVG Export Plug-In . SVG Version: 6.00 Build 0)  -->
<!DOCTYPE svg PUBLIC "-//W3C//DTD SVG 1.1//EN" "http://www.w3.org/Graphics/SVG/1.1/DTD/svg11.dtd">
<svg version="1.1" id="Layer_1" xmlns="http://www.w3.org/2000/svg" xmlns:xlink="http://www.w3.org/1999/xlink" x="0px" y="0px"
	 width="17px" height="17px" viewBox="0 0 17 17" enable-background="new 0 0 17 17" xml:space="preserve">
<g>
	<path fill="#FFFFFF" d="M8.5,16.296c-4.299,0-7.796-3.498-7.796-7.796S4.201,0.704,8.5,0.704s7.796,3.498,7.796,7.796
		S12.799,16.296,8.5,16.296z M8.5,1.704c-3.748,0-6.796,3.049-6.796,6.796s3.049,6.796,6.796,6.796s6.796-3.049,6.796-6.796
		S12.248,1.704,8.5,1.704z"/>
	<g>
		<path fill="#FFFFFF" d="M8.5,12.256c-0.276,0-0.5-0.224-0.5-0.5V5.244c0-0.276,0.224-0.5,0.5-0.5S9,4.968,9,5.244v6.512
			C9,12.032,8.776,12.256,8.5,12.256z"/>
		<path fill="#FFFFFF" d="M11.756,9H5.244c-0.276,0-0.5-0.224-0.5-0.5S4.968,8,5.244,8h6.512c0.276,0,0.5,0.224,0.5,0.5
			S12.032,9,11.756,9z"/>
	</g>
</g>
</svg>
