<?xml version="1.0" encoding="utf-8"?>
<!-- Generator: Adobe Illustrator 17.0.0, SVG Export Plug-In . SVG Version: 6.00 Build 0)  -->
<!DOCTYPE svg PUBLIC "-//W3C//DTD SVG 1.1//EN" "http://www.w3.org/Graphics/SVG/1.1/DTD/svg11.dtd">
<svg version="1.1" id="Layer_1" xmlns="http://www.w3.org/2000/svg" xmlns:xlink="http://www.w3.org/1999/xlink" x="0px" y="0px"
	 width="24px" height="24px" viewBox="0 0 24 24" enable-background="new 0 0 24 24" xml:space="preserve">
<g>
	<path fill="#B8141A" d="M12,23.267C5.788,23.267,0.733,18.212,0.733,12S5.788,0.733,12,0.733S23.267,5.787,23.267,12
		S18.213,23.267,12,23.267z M12,1.527C6.225,1.527,1.527,6.225,1.527,12S6.225,22.473,12,22.473S22.473,17.775,22.473,12
		S17.775,1.527,12,1.527z"/>
	<path fill="#B8141A" d="M12.061,20.507c-3.8,0-7.787-1.578-10.405-4.118c-0.157-0.152-0.161-0.404-0.008-0.561
		c0.153-0.157,0.404-0.16,0.561-0.008c2.476,2.402,6.251,3.894,9.853,3.894c0.002,0,0.004,0,0.007,0
		c3.545-0.002,7.198-1.501,9.771-4.01c0.156-0.153,0.408-0.151,0.561,0.007c0.153,0.157,0.15,0.408-0.007,0.561
		c-2.717,2.65-6.576,4.233-10.324,4.236C12.066,20.507,12.064,20.507,12.061,20.507z"/>
	<path fill="#B8141A" d="M12.067,15.879c-4.031,0-8.072-2.073-10.811-5.545C1.12,10.162,1.15,9.912,1.322,9.777
		C1.494,9.64,1.744,9.67,1.879,9.843c2.59,3.283,6.398,5.242,10.188,5.242c3.754,0,7.541-1.903,10.13-5.091
		c0.139-0.171,0.389-0.195,0.558-0.058c0.17,0.138,0.196,0.388,0.058,0.558C20.075,13.865,16.058,15.879,12.067,15.879z"/>
	<path fill="#B8141A" d="M12.067,9.384c-3.294,0-6.504-1.277-9.039-3.595C2.866,5.64,2.855,5.389,3.003,5.228
		c0.149-0.163,0.399-0.172,0.561-0.025C5.952,7.387,8.972,8.59,12.067,8.59c3.058,0,6.051-1.178,8.426-3.316
		c0.164-0.146,0.413-0.134,0.561,0.029c0.146,0.163,0.133,0.414-0.029,0.561C18.503,8.133,15.322,9.384,12.067,9.384z"/>
	<path fill="#B8141A" d="M12.067,4.146c-1.933,0-3.808-0.423-5.572-1.256c-0.198-0.094-0.283-0.33-0.189-0.528
		C6.4,2.163,6.636,2.079,6.834,2.172c3.292,1.556,7.099,1.567,10.393,0.034c0.2-0.091,0.435-0.006,0.527,0.192
		c0.092,0.199,0.006,0.435-0.192,0.527C15.821,3.735,13.972,4.146,12.067,4.146z"/>
	<path fill="#B8141A" d="M10.018,22.974c-0.082,0-0.164-0.025-0.235-0.078C4.288,18.844,3.564,10.336,8.134,3.528
		c0.123-0.183,0.369-0.23,0.551-0.108c0.182,0.122,0.23,0.369,0.108,0.551c-4.333,6.455-3.691,14.488,1.461,18.288
		c0.177,0.13,0.214,0.378,0.084,0.555C10.26,22.918,10.14,22.974,10.018,22.974z"/>
	<path fill="#B8141A" d="M14.208,22.915c-0.121,0-0.24-0.055-0.317-0.158c-0.132-0.175-0.097-0.424,0.078-0.556
		c5.076-3.819,5.685-11.827,1.386-18.231c-0.122-0.182-0.074-0.429,0.108-0.551c0.182-0.123,0.428-0.073,0.551,0.108
		c4.534,6.754,3.845,15.236-1.567,19.308C14.375,22.889,14.291,22.915,14.208,22.915z"/>
	<path fill="#B8141A" d="M12.073,23.267c-0.219,0-0.397-0.178-0.397-0.397V3.749c0-0.219,0.178-0.397,0.397-0.397
		S12.47,3.53,12.47,3.749V22.87C12.47,23.089,12.293,23.267,12.073,23.267z"/>
</g>
</svg>
