<?xml version="1.0" encoding="utf-8"?>
<!-- Generator: Adobe Illustrator 17.0.0, SVG Export Plug-In . SVG Version: 6.00 Build 0)  -->
<!DOCTYPE svg PUBLIC "-//W3C//DTD SVG 1.1//EN" "http://www.w3.org/Graphics/SVG/1.1/DTD/svg11.dtd">
<svg version="1.1" id="Layer_1" xmlns="http://www.w3.org/2000/svg" xmlns:xlink="http://www.w3.org/1999/xlink" x="0px" y="0px"
	 width="13px" height="15px" viewBox="0 0 13 15" enable-background="new 0 0 13 15" xml:space="preserve">
<g>
	<polygon fill="#929497" points="10.211,12.809 1.891,7.5 10.211,2.191 10.614,2.824 3.285,7.5 10.614,12.176 	"/>
	<g>
		<circle fill="#F6F6F6" cx="10.412" cy="2.507" r="1.524"/>
		<path fill="#929497" d="M10.413,4.407c-1.047,0-1.899-0.853-1.899-1.899s0.852-1.899,1.899-1.899c1.047,0,1.899,0.853,1.899,1.899
			S11.459,4.407,10.413,4.407z M10.413,1.358c-0.634,0-1.149,0.516-1.149,1.149s0.516,1.149,1.149,1.149
			c0.633,0,1.149-0.516,1.149-1.149S11.046,1.358,10.413,1.358z"/>
	</g>
	<g>
		<circle fill="#F6F6F6" cx="2.588" cy="7.5" r="1.524"/>
		<path fill="#929497" d="M2.588,9.399c-1.047,0-1.899-0.852-1.899-1.898s0.852-1.899,1.899-1.899S4.487,6.454,4.487,7.5
			S3.635,9.399,2.588,9.399z M2.588,6.351c-0.634,0-1.149,0.516-1.149,1.149c0,0.633,0.516,1.148,1.149,1.148S3.737,8.133,3.737,7.5
			C3.737,6.867,3.222,6.351,2.588,6.351z"/>
	</g>
	<g>
		<circle fill="#F6F6F6" cx="10.412" cy="12.493" r="1.524"/>
		<path fill="#929497" d="M10.413,14.392c-1.047,0-1.899-0.853-1.899-1.899s0.852-1.899,1.899-1.899
			c1.047,0,1.899,0.853,1.899,1.899S11.459,14.392,10.413,14.392z M10.413,11.343c-0.634,0-1.149,0.516-1.149,1.149
			s0.516,1.149,1.149,1.149c0.633,0,1.149-0.516,1.149-1.149S11.046,11.343,10.413,11.343z"/>
	</g>
</g>
</svg>
