<?xml version="1.0" encoding="UTF-8" standalone="no"?>
<svg
   xmlns:dc="http://purl.org/dc/elements/1.1/"
   xmlns:cc="http://creativecommons.org/ns#"
   xmlns:rdf="http://www.w3.org/1999/02/22-rdf-syntax-ns#"
   xmlns:svg="http://www.w3.org/2000/svg"
   xmlns="http://www.w3.org/2000/svg"
   xml:space="preserve"
   enable-background="new 0 0 17 17"
   viewBox="0 0 17 17"
   height="17px"
   width="17px"
   y="0px"
   x="0px"
   id="Layer_1"
   version="1.1"><metadata
     id="metadata17"><rdf:RDF><cc:Work
         rdf:about=""><dc:format>image/svg+xml</dc:format><dc:type
           rdf:resource="http://purl.org/dc/dcmitype/StillImage" /><dc:title></dc:title></cc:Work></rdf:RDF></metadata><defs
     id="defs15"><filter
       id="filter4145"
       style="color-interpolation-filters:sRGB;"><feColorMatrix
         id="feColorMatrix4147"
         result="color2"
         values="1 0 0 0 0 0 1 0 0 0 0 0 1 0 0 -0.21 -0.72 -0.07 2 0 " /></filter><filter
       id="filter4149"
       style="color-interpolation-filters:sRGB;"><feColorMatrix
         id="feColorMatrix4151"
         result="color2"
         values="1 0 0 0 0 0 1 0 0 0 0 0 1 0 0 -0.21 -0.72 -0.07 2 0 " /></filter><filter
       id="filter4149-1"
       style="color-interpolation-filters:sRGB"><feColorMatrix
         id="feColorMatrix4151-5"
         result="color2"
         values="1 0 0 0 0 0 1 0 0 0 0 0 1 0 0 -0.21 -0.72 -0.07 2 0 " /></filter><filter
       id="filter4145-7"
       style="color-interpolation-filters:sRGB"><feColorMatrix
         id="feColorMatrix4147-1"
         result="color2"
         values="1 0 0 0 0 0 1 0 0 0 0 0 1 0 0 -0.21 -0.72 -0.07 2 0 " /></filter></defs><g
     id="layer1" /><g
     id="layer2"><g
       id="g3"
       transform="translate(0.216101,-0.14406854)"><path
         style="fill:#454545;fill-opacity:1;filter:url(#filter4149-1)"
         id="path5"
         d="m 8.5,16.296 c -4.299,0 -7.796,-3.498 -7.796,-7.796 0,-4.298 3.497,-7.796 7.796,-7.796 4.299,0 7.796,3.498 7.796,7.796 0,4.298 -3.497,7.796 -7.796,7.796 z m 0,-14.592 c -3.748,0 -6.796,3.049 -6.796,6.796 0,3.747 3.049,6.796 6.796,6.796 3.747,0 6.796,-3.049 6.796,-6.796 0,-3.747 -3.048,-6.796 -6.796,-6.796 z" /><g
         style="fill:#454545;fill-opacity:1;filter:url(#filter4145-7)"
         id="g7"><path
           id="path9"
           d="M 8.5,12.256 C 8.224,12.256 8,12.032 8,11.756 L 8,5.244 c 0,-0.276 0.224,-0.5 0.5,-0.5 0.276,0 0.5,0.224 0.5,0.5 l 0,6.512 c 0,0.276 -0.224,0.5 -0.5,0.5 z"
           style="fill:#454545;fill-opacity:1" /><path
           id="path11"
           d="M 11.756,9 5.244,9 C 4.968,9 4.744,8.776 4.744,8.5 4.744,8.224 4.968,8 5.244,8 l 6.512,0 c 0.276,0 0.5,0.224 0.5,0.5 0,0.276 -0.224,0.5 -0.5,0.5 z"
           style="fill:#454545;fill-opacity:1" /></g></g></g></svg>