<?xml version="1.0" encoding="utf-8"?>
<!-- Generator: Adobe Illustrator 17.0.0, SVG Export Plug-In . SVG Version: 6.00 Build 0)  -->
<!DOCTYPE svg PUBLIC "-//W3C//DTD SVG 1.1//EN" "http://www.w3.org/Graphics/SVG/1.1/DTD/svg11.dtd">
<svg version="1.1" id="Layer_1" xmlns="http://www.w3.org/2000/svg" xmlns:xlink="http://www.w3.org/1999/xlink" x="0px" y="0px"
	 width="24px" height="22px" viewBox="0 0 24 22" enable-background="new 0 0 24 22" xml:space="preserve">
<path fill="#929497" d="M19.157,20.701c-0.067,0-0.134-0.014-0.197-0.04L12,17.678l-6.96,2.983c-0.153,0.065-0.332,0.05-0.472-0.043
	c-0.14-0.092-0.225-0.249-0.225-0.417l0.01-16.358c0-1.402,1.137-2.544,2.535-2.544h10.224c1.403,0,2.545,1.142,2.545,2.544v16.358
	c0,0.168-0.084,0.325-0.225,0.417C19.349,20.673,19.253,20.701,19.157,20.701z M12,16.634c0.067,0,0.134,0.014,0.197,0.04l6.46,2.77
	V3.843c0-0.852-0.693-1.544-1.545-1.544H6.888c-0.846,0-1.535,0.692-1.535,1.544l-0.01,15.6l6.459-2.769
	C11.866,16.647,11.933,16.634,12,16.634z"/>
</svg>
