<?xml version="1.0" encoding="utf-8"?>
<!-- Generator: Adobe Illustrator 19.1.0, SVG Export Plug-In . SVG Version: 6.00 Build 0)  -->
<!DOCTYPE svg PUBLIC "-//W3C//DTD SVG 1.1//EN" "http://www.w3.org/Graphics/SVG/1.1/DTD/svg11.dtd">
<svg version="1.1" id="Layer_1" xmlns="http://www.w3.org/2000/svg" xmlns:xlink="http://www.w3.org/1999/xlink" x="0px" y="0px"
	 viewBox="-230 311 19 19" style="enable-background:new -230 311 19 19;" xml:space="preserve">
<style type="text/css">
	.st0{fill:#929497;}
</style>
<g id="Your_Icon_1_">
	<g>
		<path class="st0" d="M-212,328.1l-5.1-5.1c1-1.2,1.6-2.7,1.6-4.3c0-3.7-3-6.8-6.8-6.8c-3.7,0-6.8,3-6.8,6.8c0,3.7,3,6.8,6.8,6.8
			c1.6,0,3.2-0.6,4.3-1.6l5.1,5.1c0,0,0.5,0.4,0.9,0C-211.6,328.5-212,328.1-212,328.1z M-222.4,313.1c3.1,0,5.5,2.5,5.5,5.5
			c0,3.1-2.5,5.5-5.5,5.5s-5.5-2.5-5.5-5.5C-227.9,315.6-225.4,313.1-222.4,313.1z"/>
	</g>
</g>
</svg>
