<?xml version="1.0" encoding="utf-8"?>
<!-- Generator: Adobe Illustrator 17.0.0, SVG Export Plug-In . SVG Version: 6.00 Build 0)  -->
<!DOCTYPE svg PUBLIC "-//W3C//DTD SVG 1.1//EN" "http://www.w3.org/Graphics/SVG/1.1/DTD/svg11.dtd">
<svg version="1.1" id="Layer_1" xmlns="http://www.w3.org/2000/svg" xmlns:xlink="http://www.w3.org/1999/xlink" x="0px" y="0px"
	 width="35px" height="35px" viewBox="0 0 35 35" enable-background="new 0 0 35 35" xml:space="preserve">
<g>
	<path fill="#FFFFFF" d="M17.5,1.843C8.867,1.843,1.843,8.867,1.843,17.5c0,8.634,7.024,15.657,15.657,15.657
		S33.156,26.133,33.156,17.5C33.156,8.867,26.133,1.843,17.5,1.843z"/>
	<path fill="#BC141A" d="M17.5,34.157c-9.185,0-16.657-7.473-16.657-16.657S8.316,0.843,17.5,0.843
		c9.184,0,16.656,7.472,16.656,16.656S26.684,34.157,17.5,34.157z M17.5,1.843C8.867,1.843,1.843,8.867,1.843,17.5
		c0,8.634,7.024,15.657,15.657,15.657S33.157,26.133,33.157,17.5C33.157,8.867,26.133,1.843,17.5,1.843z"/>
	<path fill="#BC141A" d="M24.71,17H18v-6.71c0-0.276-0.224-0.5-0.5-0.5s-0.5,0.224-0.5,0.5V17h-6.71c-0.276,0-0.5,0.224-0.5,0.5
		s0.224,0.5,0.5,0.5H17v6.71c0,0.276,0.224,0.5,0.5,0.5s0.5-0.224,0.5-0.5V18h6.71c0.276,0,0.5-0.224,0.5-0.5S24.986,17,24.71,17z"
		/>
</g>
</svg>
