<?xml version="1.0" encoding="utf-8"?>
<!-- Generator: Adobe Illustrator 19.1.0, SVG Export Plug-In . SVG Version: 6.00 Build 0)  -->
<!DOCTYPE svg PUBLIC "-//W3C//DTD SVG 1.1//EN" "http://www.w3.org/Graphics/SVG/1.1/DTD/svg11.dtd">
<svg version="1.1" id="Layer_1" xmlns="http://www.w3.org/2000/svg" xmlns:xlink="http://www.w3.org/1999/xlink" x="0px" y="0px"
	 viewBox="-473 274.2 12.4 12.8" style="enable-background:new -473 274.2 12.4 12.8;" xml:space="preserve">
<style type="text/css">
	.st0{fill:#318EAF;}
</style>
<path class="st0" d="M-460.6,278l-3.3-3.6c-0.1-0.1-0.2-0.2-0.4-0.2h-5.2c-1,0-1.8,0.8-1.8,1.8v2.3c0,0.3,0.2,0.5,0.5,0.5
	s0.5-0.2,0.5-0.5V276c0-0.4,0.3-0.8,0.8-0.8h4.4v2.9c0,0.3,0.2,0.5,0.5,0.5h3.1v6.6c0,0.4-0.3,0.8-0.8,0.8h-7.2
	c-0.3,0-0.6-0.2-0.7-0.5s-0.4-0.4-0.7-0.3c-0.3,0.1-0.4,0.4-0.3,0.7c0.3,0.7,0.9,1.1,1.6,1.1h7.2c1,0,1.8-0.8,1.8-1.8v-7
	C-460.5,278.2-460.6,278.1-460.6,278z M-464.1,277.7v-2l1.8,2H-464.1L-464.1,277.7z M-462.4,282.5c0.2-0.2,0.2-0.5,0-0.7
	c-0.1-0.1-2.3-2.5-5.2-2.5c-2.8,0-5.1,2.4-5.2,2.5c-0.2,0.2-0.2,0.5,0,0.7c0.1,0.1,2.3,2.5,5.2,2.5
	C-464.7,285.1-462.5,282.6-462.4,282.5z M-467.6,280.3c0.6,0,1.1,0.5,1.1,1.1s-0.5,1.1-1.1,1.1s-1.1-0.5-1.1-1.1
	C-468.6,280.8-468.2,280.3-467.6,280.3z M-469.5,280.8c-0.1,0.2-0.1,0.4-0.1,0.6c0,1.1,0.9,2.1,2.1,2.1c1.1,0,2.1-0.9,2.1-2.1
	c0-0.2,0-0.4-0.1-0.6c0.9,0.4,1.7,1,2.1,1.4c-0.7,0.6-2.3,1.9-4.1,1.9c-1.8,0-3.4-1.2-4.1-1.9C-471.3,281.8-470.5,281.2-469.5,280.8
	z"/>
</svg>
