<?xml version="1.0" encoding="utf-8"?>
<!-- Generator: Adobe Illustrator 17.0.0, SVG Export Plug-In . SVG Version: 6.00 Build 0)  -->
<!DOCTYPE svg PUBLIC "-//W3C//DTD SVG 1.1//EN" "http://www.w3.org/Graphics/SVG/1.1/DTD/svg11.dtd">
<svg version="1.1" id="Layer_1" xmlns="http://www.w3.org/2000/svg" xmlns:xlink="http://www.w3.org/1999/xlink" x="0px" y="0px"
	 width="16px" height="13px" viewBox="0 0 16 13" enable-background="new 0 0 16 13" xml:space="preserve">
<g>
	<g>
		<path fill="#FFFFFF" d="M9.283,12.417c-0.128,0-0.256-0.049-0.354-0.146c-0.195-0.195-0.195-0.512,0-0.707L13.993,6.5L8.93,1.437
			c-0.195-0.195-0.195-0.512,0-0.707s0.512-0.195,0.707,0l5.417,5.417C15.148,6.24,15.2,6.367,15.2,6.5s-0.053,0.26-0.146,0.354
			L9.637,12.27C9.539,12.368,9.411,12.417,9.283,12.417z"/>
		<path fill="#FFFFFF" d="M14.7,7H1.3C1.023,7,0.8,6.777,0.8,6.5S1.023,6,1.3,6H14.7c0.276,0,0.5,0.224,0.5,0.5S14.977,7,14.7,7z"/>
	</g>
</g>
</svg>
