<?xml version="1.0" encoding="utf-8"?>
<!-- Generator: Adobe Illustrator 17.0.0, SVG Export Plug-In . SVG Version: 6.00 Build 0)  -->
<!DOCTYPE svg PUBLIC "-//W3C//DTD SVG 1.1//EN" "http://www.w3.org/Graphics/SVG/1.1/DTD/svg11.dtd">
<svg version="1.1" id="Layer_1" xmlns="http://www.w3.org/2000/svg" xmlns:xlink="http://www.w3.org/1999/xlink" x="0px" y="0px"
	 width="27px" height="27px" viewBox="0 0 27 27" enable-background="new 0 0 27 27" xml:space="preserve">
<g>
	<path fill="#318EAF" d="M19.917,4.583H7.083c-1.379,0-2.5,1.122-2.5,2.5v2.833c0,0.276,0.224,0.5,0.5,0.5
		c0.276,0,0.5-0.224,0.5-0.5V7.083c0-0.827,0.673-1.5,1.5-1.5h12.833c0.827,0,1.5,0.673,1.5,1.5v12.833c0,0.827-0.673,1.5-1.5,1.5
		H7.083c-0.827,0-1.5-0.673-1.5-1.5v-3c0-0.276-0.224-0.5-0.5-0.5c-0.276,0-0.5,0.224-0.5,0.5v3c0,1.378,1.121,2.5,2.5,2.5h12.833
		c1.379,0,2.5-1.122,2.5-2.5V7.083C22.417,5.705,21.295,4.583,19.917,4.583z M4.583,13.5c0,0.276,0.224,0.5,0.5,0.5h10.131
		l-3.036,3.035c-0.195,0.195-0.195,0.512,0,0.707c0.098,0.098,0.226,0.146,0.354,0.146s0.256-0.049,0.354-0.146l3.889-3.889
		c0.094-0.094,0.146-0.221,0.146-0.354s-0.052-0.26-0.146-0.354l-3.889-3.889c-0.195-0.195-0.512-0.195-0.707,0
		s-0.195,0.512,0,0.707L15.215,13H5.083C4.807,13,4.583,13.224,4.583,13.5z"/>
	<rect x="0" fill="none" width="27" height="27"/>
</g>
</svg>
