<?xml version="1.0" encoding="UTF-8" standalone="no"?>
<svg
   xmlns:dc="http://purl.org/dc/elements/1.1/"
   xmlns:cc="http://creativecommons.org/ns#"
   xmlns:rdf="http://www.w3.org/1999/02/22-rdf-syntax-ns#"
   xmlns:svg="http://www.w3.org/2000/svg"
   xmlns="http://www.w3.org/2000/svg"
   xml:space="preserve"
   enable-background="new 0 0 24 24"
   viewBox="0 0 13.788237 12.771288"
   height="3.6043413mm"
   width="3.8913469mm"
   y="0px"
   x="0px"
   id="Layer_1"
   version="1.1"><metadata
     id="metadata25"><rdf:RDF><cc:Work
         rdf:about=""><dc:format>image/svg+xml</dc:format><dc:type
           rdf:resource="http://purl.org/dc/dcmitype/StillImage" /><dc:title></dc:title></cc:Work></rdf:RDF></metadata><defs
     id="defs23" /><g
     transform="matrix(0.61188592,0,0,0.56675638,-0.44851238,-0.41543243)"
     id="g3"><path
       style="fill:#b8141a"
       id="path5"
       d="M 12,23.267 C 5.788,23.267 0.733,18.212 0.733,12 0.733,5.788 5.788,0.733 12,0.733 18.212,0.733 23.267,5.787 23.267,12 23.267,18.213 18.213,23.267 12,23.267 Z M 12,1.527 C 6.225,1.527 1.527,6.225 1.527,12 1.527,17.775 6.225,22.473 12,22.473 17.775,22.473 22.473,17.775 22.473,12 22.473,6.225 17.775,1.527 12,1.527 Z" /><path
       style="fill:#b8141a"
       id="path7"
       d="m 12.061,20.507 c -3.8,0 -7.787,-1.578 -10.405,-4.118 -0.157,-0.152 -0.161,-0.404 -0.008,-0.561 0.153,-0.157 0.404,-0.16 0.561,-0.008 2.476,2.402 6.251,3.894 9.853,3.894 0.002,0 0.004,0 0.007,0 3.545,-0.002 7.198,-1.501 9.771,-4.01 0.156,-0.153 0.408,-0.151 0.561,0.007 0.153,0.157 0.15,0.408 -0.007,0.561 -2.717,2.65 -6.576,4.233 -10.324,4.236 -0.004,-10e-4 -0.006,-10e-4 -0.009,-10e-4 z" /><path
       style="fill:#b8141a"
       id="path9"
       d="M 12.067,15.879 C 8.036,15.879 3.995,13.806 1.256,10.334 1.12,10.162 1.15,9.912 1.322,9.777 1.494,9.64 1.744,9.67 1.879,9.843 c 2.59,3.283 6.398,5.242 10.188,5.242 3.754,0 7.541,-1.903 10.13,-5.091 0.139,-0.171 0.389,-0.195 0.558,-0.058 0.17,0.138 0.196,0.388 0.058,0.558 -2.738,3.371 -6.755,5.385 -10.746,5.385 z" /><path
       style="fill:#b8141a"
       id="path11"
       d="M 12.067,9.384 C 8.773,9.384 5.563,8.107 3.028,5.789 2.866,5.64 2.855,5.389 3.003,5.228 3.152,5.065 3.402,5.056 3.564,5.203 5.952,7.387 8.972,8.59 12.067,8.59 c 3.058,0 6.051,-1.178 8.426,-3.316 0.164,-0.146 0.413,-0.134 0.561,0.029 0.146,0.163 0.133,0.414 -0.029,0.561 -2.522,2.269 -5.703,3.52 -8.958,3.52 z" /><path
       style="fill:#b8141a"
       id="path13"
       d="M 12.067,4.146 C 10.134,4.146 8.259,3.723 6.495,2.89 6.297,2.796 6.212,2.56 6.306,2.362 6.4,2.163 6.636,2.079 6.834,2.172 c 3.292,1.556 7.099,1.567 10.393,0.034 0.2,-0.091 0.435,-0.006 0.527,0.192 0.092,0.199 0.006,0.435 -0.192,0.527 -1.741,0.81 -3.59,1.221 -5.495,1.221 z" /><path
       style="fill:#b8141a"
       id="path15"
       d="M 10.018,22.974 C 9.936,22.974 9.854,22.949 9.783,22.896 4.288,18.844 3.564,10.336 8.134,3.528 8.257,3.345 8.503,3.298 8.685,3.42 c 0.182,0.122 0.23,0.369 0.108,0.551 -4.333,6.455 -3.691,14.488 1.461,18.288 0.177,0.13 0.214,0.378 0.084,0.555 -0.078,0.104 -0.198,0.16 -0.32,0.16 z" /><path
       style="fill:#b8141a"
       id="path17"
       d="m 14.208,22.915 c -0.121,0 -0.24,-0.055 -0.317,-0.158 -0.132,-0.175 -0.097,-0.424 0.078,-0.556 5.076,-3.819 5.685,-11.827 1.386,-18.231 -0.122,-0.182 -0.074,-0.429 0.108,-0.551 0.182,-0.123 0.428,-0.073 0.551,0.108 4.534,6.754 3.845,15.236 -1.567,19.308 -0.072,0.054 -0.156,0.08 -0.239,0.08 z" /><path
       style="fill:#b8141a"
       id="path19"
       d="m 12.073,23.267 c -0.219,0 -0.397,-0.178 -0.397,-0.397 l 0,-19.121 c 0,-0.219 0.178,-0.397 0.397,-0.397 0.219,0 0.397,0.178 0.397,0.397 l 0,19.121 c 0,0.219 -0.177,0.397 -0.397,0.397 z" /></g></svg>