<?xml version="1.0" encoding="utf-8"?>
<!-- Generator: Adobe Illustrator 17.0.0, SVG Export Plug-In . SVG Version: 6.00 Build 0)  -->
<!DOCTYPE svg PUBLIC "-//W3C//DTD SVG 1.1//EN" "http://www.w3.org/Graphics/SVG/1.1/DTD/svg11.dtd">
<svg version="1.1" id="Layer_1" xmlns="http://www.w3.org/2000/svg" xmlns:xlink="http://www.w3.org/1999/xlink" x="0px" y="0px"
	 width="16px" height="23px" viewBox="0 0 16 23" enable-background="new 0 0 16 23" xml:space="preserve">
<g>
	<g>
		<g>
			<g>
				<path fill="#B8141A" d="M8,22.303c-4.064,0-7.371-3.307-7.371-7.371c0-1.901,0.722-3.706,2.033-5.083
					C2.813,9.69,3.064,9.685,3.223,9.835c0.159,0.151,0.165,0.402,0.014,0.561c-1.17,1.229-1.814,2.839-1.814,4.536
					c0,3.627,2.95,6.577,6.577,6.577s6.577-2.95,6.577-6.577c0-1.785-0.703-3.455-1.979-4.703c-0.157-0.153-0.16-0.404-0.006-0.561
					c0.154-0.157,0.405-0.16,0.561-0.006c1.43,1.398,2.218,3.27,2.218,5.27C15.371,18.996,12.064,22.303,8,22.303z"/>
				<path fill="#B8141A" d="M7.995,20.526c-2.558,0-4.949-0.953-6.732-2.684c-0.157-0.152-0.161-0.404-0.008-0.561
					c0.153-0.157,0.404-0.16,0.561-0.008c1.635,1.586,3.83,2.459,6.18,2.459c0.002,0,0.004,0,0.006,0
					c2.357-0.001,4.557-0.88,6.193-2.475c0.156-0.153,0.407-0.151,0.561,0.007c0.153,0.157,0.15,0.408-0.007,0.561
					c-1.785,1.74-4.181,2.7-6.747,2.701C7.999,20.526,7.997,20.526,7.995,20.526z"/>
				<path fill="#B8141A" d="M8,17.466c-2.754,0-5.373-1.318-7.185-3.615c-0.136-0.172-0.106-0.421,0.066-0.557
					c0.172-0.137,0.422-0.107,0.557,0.066C3.099,15.464,5.491,16.672,8,16.672c2.461,0,4.822-1.168,6.477-3.207
					c0.138-0.17,0.389-0.196,0.558-0.058c0.17,0.138,0.196,0.388,0.058,0.558C13.287,16.19,10.701,17.466,8,17.466z"/>
			</g>
			<path fill="#B8141A" d="M8,22.303L7.873,22.3c-0.083-0.002-0.207-0.032-0.272-0.082c-2.217-1.689-3.489-4.197-3.489-6.88
				c0-0.805,0.115-1.603,0.341-2.371c0.062-0.21,0.282-0.327,0.493-0.269c0.21,0.062,0.33,0.283,0.269,0.493
				c-0.205,0.695-0.309,1.417-0.309,2.146c0,2.393,1.119,4.635,3.076,6.17l0.019,0c0.219,0,0.397,0.178,0.397,0.397
				S8.219,22.303,8,22.303z"/>
			<path fill="#B8141A" d="M8,22.303c-0.219,0-0.397-0.178-0.397-0.397S7.781,21.509,8,21.509l0.019,0
				c1.957-1.536,3.076-3.778,3.076-6.17c0-0.737-0.106-1.467-0.316-2.17c-0.062-0.21,0.057-0.431,0.267-0.494
				c0.212-0.062,0.431,0.057,0.494,0.267c0.232,0.777,0.35,1.583,0.35,2.397c0,2.683-1.272,5.191-3.489,6.88
				c-0.066,0.05-0.146,0.079-0.229,0.081L8,22.303z"/>
		</g>
	</g>
	<g>
		<g>
			<path fill="#FFFFFF" d="M11.077,2.368c-1.699-1.699-4.455-1.699-6.154,0C3.392,3.899,3.22,6.783,4.519,8.515L8,13.542
				l3.481-5.027C12.78,6.783,12.608,3.899,11.077,2.368z M8.042,6.831c-0.753,0-1.363-0.61-1.363-1.363s0.61-1.363,1.363-1.363
				c0.753,0,1.363,0.61,1.363,1.363S8.795,6.831,8.042,6.831z"/>
			<path fill="#B8141A" d="M8,13.939c-0.13,0-0.252-0.064-0.326-0.171L4.193,8.741c-1.412-1.883-1.206-4.997,0.45-6.653
				C5.54,1.191,6.732,0.697,8,0.697s2.461,0.494,3.358,1.391c1.656,1.656,1.862,4.771,0.44,6.666l-3.472,5.015
				C8.252,13.875,8.13,13.939,8,13.939z M8,1.49c-1.056,0-2.049,0.412-2.796,1.159C3.832,4.021,3.657,6.703,4.836,8.277L8,12.845
				l3.155-4.556c1.188-1.585,1.014-4.268-0.358-5.64C10.049,1.902,9.056,1.49,8,1.49z M8.042,7.228c-0.97,0-1.76-0.79-1.76-1.76
				c0-0.97,0.79-1.76,1.76-1.76s1.76,0.79,1.76,1.76C9.802,6.438,9.013,7.228,8.042,7.228z M8.042,4.502
				c-0.533,0-0.966,0.433-0.966,0.966S7.51,6.434,8.042,6.434S9.008,6,9.008,5.468S8.575,4.502,8.042,4.502z"/>
		</g>
	</g>
</g>
</svg>
