<?xml version="1.0" encoding="utf-8"?>
<!-- Generator: Adobe Illustrator 17.0.0, SVG Export Plug-In . SVG Version: 6.00 Build 0)  -->
<!DOCTYPE svg PUBLIC "-//W3C//DTD SVG 1.1//EN" "http://www.w3.org/Graphics/SVG/1.1/DTD/svg11.dtd">
<svg version="1.1" id="Layer_1" xmlns="http://www.w3.org/2000/svg" xmlns:xlink="http://www.w3.org/1999/xlink" x="0px" y="0px"
	 width="42px" height="26px" viewBox="0 0 42 26" enable-background="new 0 0 42 26" xml:space="preserve">
<g>
	<path fill="#FFFFFF" d="M40.176,25.337H12.859c-0.658,0-1.191-0.534-1.191-1.192s0.533-1.192,1.191-1.192h27.317
		c0.658,0,1.191,0.534,1.191,1.192S40.834,25.337,40.176,25.337z"/>
	<path fill="#FFFFFF" d="M40.176,3.046H24.752c-0.658,0-1.191-0.534-1.191-1.192s0.533-1.192,1.191-1.192h15.424
		c0.658,0,1.191,0.534,1.191,1.192S40.834,3.046,40.176,3.046z"/>
	<path fill="#FFFFFF" d="M40.176,14.192H1.824c-0.658,0-1.191-0.534-1.191-1.192s0.533-1.192,1.191-1.192h38.353
		c0.658,0,1.191,0.534,1.191,1.192S40.834,14.192,40.176,14.192z"/>
</g>
</svg>
