<?xml version="1.0" encoding="utf-8"?>
<!-- Generator: Adobe Illustrator 17.0.0, SVG Export Plug-In . SVG Version: 6.00 Build 0)  -->
<!DOCTYPE svg PUBLIC "-//W3C//DTD SVG 1.1//EN" "http://www.w3.org/Graphics/SVG/1.1/DTD/svg11.dtd">
<svg version="1.1" id="Layer_1" xmlns="http://www.w3.org/2000/svg" xmlns:xlink="http://www.w3.org/1999/xlink" x="0px" y="0px"
	 width="33px" height="33px" viewBox="0 0 33 33" enable-background="new 0 0 33 33" xml:space="preserve">
<g>
	<g>
		<g>
			<path fill="#FFFFFF" d="M29.3,23.168c0,1.001-0.725,2.243-1.587,2.726l-9.626,5.486c-0.863,0.483-2.312,0.483-3.174,0
				l-9.626-5.486C4.425,25.41,3.7,24.168,3.7,23.168V3.088c0-1.001,0.828-1.829,1.829-1.829h21.909c1.001,0,1.829,0.828,1.829,1.829
				v20.08H29.3z"/>
			<path fill="#B8141A" d="M16.5,32.341c-0.708,0-1.375-0.156-1.88-0.439l-9.63-5.488c-1.041-0.583-1.89-2.041-1.89-3.247V3.087
				c0-1.339,1.089-2.429,2.429-2.429h21.909c1.339,0,2.429,1.089,2.429,2.429v19.89c0.022,0.06,0.034,0.124,0.034,0.19
				c0,1.207-0.85,2.665-1.894,3.249L18.384,31.9C17.875,32.185,17.207,32.341,16.5,32.341z M5.529,1.859
				C4.863,1.859,4.3,2.421,4.3,3.087v20.08c0,0.777,0.61,1.827,1.28,2.202l9.63,5.488c0.642,0.359,1.936,0.361,2.584-0.002
				l9.622-5.484c0.627-0.351,1.199-1.285,1.275-2.04c-0.017-0.052-0.026-0.107-0.026-0.165V3.087c0-0.666-0.562-1.229-1.229-1.229
				H5.529z"/>
		</g>
	</g>
	<g>
		<g>
			<polygon fill="#FFFFFF" points="8.088,12.931 24.257,6.658 17.985,22.827 16.454,14.461 			"/>
			<path fill="#B8141A" d="M17.985,23.428c-0.019,0-0.038-0.001-0.057-0.003c-0.267-0.025-0.485-0.225-0.534-0.489l-1.456-7.958
				L7.98,13.521c-0.264-0.048-0.464-0.267-0.489-0.534s0.13-0.519,0.38-0.616L24.04,6.099c0.221-0.086,0.473-0.033,0.641,0.135
				s0.221,0.419,0.135,0.641l-6.272,16.169C18.454,23.277,18.23,23.428,17.985,23.428z M10.284,12.723l6.278,1.148
				c0.246,0.045,0.438,0.237,0.482,0.482l1.148,6.278l5.013-12.922L10.284,12.723z"/>
		</g>
	</g>
</g>
</svg>
