<?xml version="1.0" encoding="utf-8"?>
<!-- Generator: Adobe Illustrator 17.0.0, SVG Export Plug-In . SVG Version: 6.00 Build 0)  -->
<!DOCTYPE svg PUBLIC "-//W3C//DTD SVG 1.1//EN" "http://www.w3.org/Graphics/SVG/1.1/DTD/svg11.dtd">
<svg version="1.1" id="Layer_1" xmlns="http://www.w3.org/2000/svg" xmlns:xlink="http://www.w3.org/1999/xlink" x="0px" y="0px"
	 width="36px" height="35px" viewBox="0 0 36 35" enable-background="new 0 0 36 35" xml:space="preserve">
<g>
	<g>
		<g>
			<path fill="#FFFFFF" d="M27.545,17.236l1.533,1.486c1.015,0.984,1.04,2.619,0.056,3.634L19.08,32.722
				c-0.984,1.015-2.619,1.04-3.634,0.056L2.201,19.931c-1.015-0.984-1.04-2.619-0.056-3.634L12.199,5.932
				c0.984-1.015,2.619-1.04,3.634-0.056L27.545,17.236z"/>
			<path fill="#B8141A" d="M17.235,34.099c-0.83,0-1.614-0.316-2.206-0.891L1.784,20.362c-0.606-0.587-0.947-1.378-0.96-2.227
				c-0.013-0.849,0.304-1.649,0.891-2.255L11.768,5.514c1.174-1.211,3.271-1.244,4.482-0.069l13.245,12.846
				c0.606,0.587,0.947,1.378,0.96,2.227c0.013,0.848-0.304,1.649-0.891,2.255L19.511,33.139
				C18.911,33.758,18.102,34.099,17.235,34.099z M14.044,5.754c-0.54,0-1.042,0.211-1.415,0.595L2.576,16.715
				c-0.364,0.376-0.561,0.874-0.552,1.401c0.008,0.528,0.219,1.02,0.595,1.384l13.246,12.846c0.751,0.729,2.057,0.708,2.785-0.042
				l10.053-10.366c0.364-0.375,0.561-0.873,0.552-1.401c-0.008-0.528-0.219-1.02-0.595-1.384L15.414,6.307
				C15.047,5.95,14.56,5.754,14.044,5.754z"/>
		</g>
		<path fill="#B8141A" d="M15.99,27.666c-0.15,0-0.301-0.056-0.417-0.169c-0.238-0.23-0.244-0.61-0.013-0.849l2.922-3.013
			c0.231-0.238,0.611-0.244,0.848-0.013c0.238,0.23,0.244,0.61,0.013,0.849l-2.922,3.013C16.303,27.605,16.147,27.666,15.99,27.666z
			"/>
	</g>
	<g>
		<g>
			<path fill="#FFFFFF" d="M31.001,18.056l0.858,1.955c0.568,1.294-0.027,2.818-1.321,3.385l-13.224,5.799
				c-1.294,0.568-2.818-0.027-3.385-1.321L6.518,10.976C5.95,9.682,6.545,8.159,7.839,7.591l13.224-5.799
				c1.294-0.568,2.818,0.027,3.385,1.321L31.001,18.056z"/>
			<path fill="#B8141A" d="M16.289,30.011c-1.263,0-2.405-0.744-2.91-1.895L5.968,11.218c-0.339-0.773-0.355-1.634-0.047-2.425
				C6.229,8.002,6.825,7.38,7.598,7.042l13.224-5.799c0.402-0.176,0.828-0.266,1.266-0.266c1.263,0,2.405,0.744,2.91,1.896
				l7.411,16.897c0.339,0.773,0.356,1.634,0.047,2.425c-0.309,0.791-0.904,1.413-1.677,1.751l-13.224,5.8
				C17.152,29.922,16.727,30.011,16.289,30.011z M22.088,2.177c-0.271,0-0.535,0.056-0.784,0.165L8.08,8.14
				c-0.479,0.21-0.849,0.597-1.041,1.089c-0.192,0.492-0.182,1.027,0.028,1.506l7.411,16.898c0.422,0.962,1.622,1.439,2.595,1.013
				l13.224-5.8c0.479-0.21,0.849-0.597,1.042-1.089c0.192-0.492,0.182-1.027-0.028-1.506L23.899,3.354
				C23.585,2.639,22.874,2.177,22.088,2.177z"/>
		</g>
		<path fill="#B8141A" d="M11.958,12.832c-0.231,0-0.451-0.134-0.55-0.359c-0.133-0.303,0.005-0.657,0.309-0.79l9.729-4.266
			c0.304-0.133,0.658,0.006,0.79,0.309c0.133,0.303-0.005,0.657-0.309,0.79l-9.729,4.266C12.121,12.816,12.039,12.832,11.958,12.832
			z"/>
		<path fill="#B8141A" d="M16.59,23.392c-0.231,0-0.451-0.134-0.55-0.359c-0.133-0.303,0.005-0.657,0.309-0.79l3.844-1.686
			c0.304-0.135,0.658,0.005,0.79,0.309c0.133,0.303-0.005,0.657-0.309,0.79l-3.844,1.686C16.752,23.376,16.67,23.392,16.59,23.392z"
			/>
		<path fill="#B8141A" d="M14.274,18.112c-0.231,0-0.451-0.134-0.55-0.359c-0.133-0.304,0.005-0.658,0.308-0.791l7.766-3.406
			c0.306-0.133,0.658,0.006,0.791,0.308c0.133,0.304-0.005,0.658-0.308,0.791l-7.766,3.406
			C14.436,18.096,14.354,18.112,14.274,18.112z"/>
	</g>
	<g>
		<g>
			<path fill="#FFFFFF" d="M34.577,20.387v2.135c0,1.413-1.156,2.57-2.57,2.57h-14.44c-1.413,0-2.57-1.156-2.57-2.57V4.071
				c0-1.413,1.156-2.57,2.57-2.57h14.44c1.413,0,2.57,1.156,2.57,2.57V20.387z"/>
			<path fill="#B8141A" d="M32.007,25.692H17.567c-1.748,0-3.17-1.422-3.17-3.17V4.071c0-1.748,1.422-3.169,3.17-3.169h14.439
				c1.748,0,3.17,1.422,3.17,3.169v18.452C35.177,24.27,33.755,25.692,32.007,25.692z M17.567,2.101c-1.086,0-1.97,0.883-1.97,1.969
				v18.452c0,1.086,0.884,1.97,1.97,1.97h14.439c1.086,0,1.97-0.884,1.97-1.97V4.071c0-1.086-0.884-1.969-1.97-1.969H17.567z"/>
		</g>
		<g>
			<g>
				<path fill="#FFFFFF" d="M21.263,8.6c0,0.152-0.123,0.275-0.275,0.275h-2.455c-0.152,0-0.275-0.123-0.275-0.275V6.145
					c0-0.152,0.123-0.275,0.275-0.275h2.455c0.152,0,0.275,0.123,0.275,0.275V8.6z"/>
				<path fill="#B8141A" d="M20.988,9.475h-2.456c-0.482,0-0.875-0.393-0.875-0.875V6.145c0-0.482,0.393-0.875,0.875-0.875h2.456
					c0.482,0,0.875,0.393,0.875,0.875V8.6C21.863,9.083,21.471,9.475,20.988,9.475z M18.858,8.275h1.805V6.47h-1.805V8.275z"/>
			</g>
			<g>
				<path fill="#FFFFFF" d="M26.365,8.6c0,0.152-0.123,0.275-0.275,0.275h-2.455c-0.152,0-0.275-0.123-0.275-0.275V6.145
					c0-0.152,0.123-0.275,0.275-0.275h2.455c0.152,0,0.275,0.123,0.275,0.275V8.6z"/>
				<path fill="#B8141A" d="M26.09,9.475h-2.456c-0.482,0-0.875-0.393-0.875-0.875V6.145c0-0.482,0.393-0.875,0.875-0.875h2.456
					c0.482,0,0.875,0.393,0.875,0.875V8.6C26.965,9.083,26.573,9.475,26.09,9.475z M23.96,8.275h1.805V6.47H23.96V8.275z"/>
			</g>
			<g>
				<path fill="#FFFFFF" d="M31.36,8.6c0,0.152-0.123,0.275-0.275,0.275H28.63c-0.152,0-0.275-0.123-0.275-0.275V6.145
					c0-0.152,0.123-0.275,0.275-0.275h2.455c0.152,0,0.275,0.123,0.275,0.275V8.6z"/>
				<path fill="#B8141A" d="M31.085,9.475H28.63c-0.482,0-0.875-0.393-0.875-0.875V6.145c0-0.482,0.393-0.875,0.875-0.875h2.455
					c0.482,0,0.875,0.393,0.875,0.875V8.6C31.96,9.083,31.567,9.475,31.085,9.475z M28.955,8.275h1.805V6.47h-1.805V8.275z"/>
			</g>
			<g>
				<path fill="#FFFFFF" d="M21.263,14.324c0,0.152-0.123,0.275-0.275,0.275h-2.455c-0.152,0-0.275-0.123-0.275-0.275v-2.455
					c0-0.152,0.123-0.275,0.275-0.275h2.455c0.152,0,0.275,0.123,0.275,0.275V14.324z"/>
				<path fill="#B8141A" d="M20.988,15.199h-2.456c-0.482,0-0.875-0.393-0.875-0.875v-2.455c0-0.482,0.393-0.875,0.875-0.875h2.456
					c0.482,0,0.875,0.393,0.875,0.875v2.455C21.863,14.806,21.471,15.199,20.988,15.199z M18.858,13.999h1.805v-1.805h-1.805V13.999
					z"/>
			</g>
			<g>
				<path fill="#FFFFFF" d="M26.365,14.324c0,0.152-0.123,0.275-0.275,0.275h-2.455c-0.152,0-0.275-0.123-0.275-0.275v-2.455
					c0-0.152,0.123-0.275,0.275-0.275h2.455c0.152,0,0.275,0.123,0.275,0.275V14.324z"/>
				<path fill="#B8141A" d="M26.09,15.199h-2.456c-0.482,0-0.875-0.393-0.875-0.875v-2.455c0-0.482,0.393-0.875,0.875-0.875h2.456
					c0.482,0,0.875,0.393,0.875,0.875v2.455C26.965,14.806,26.573,15.199,26.09,15.199z M23.96,13.999h1.805v-1.805H23.96V13.999z"
					/>
			</g>
			<g>
				<path fill="#FFFFFF" d="M31.36,14.324c0,0.152-0.123,0.275-0.275,0.275H28.63c-0.152,0-0.275-0.123-0.275-0.275v-2.455
					c0-0.152,0.123-0.275,0.275-0.275h2.455c0.152,0,0.275,0.123,0.275,0.275V14.324z"/>
				<path fill="#B8141A" d="M31.085,15.199H28.63c-0.482,0-0.875-0.393-0.875-0.875v-2.455c0-0.482,0.393-0.875,0.875-0.875h2.455
					c0.482,0,0.875,0.393,0.875,0.875v2.455C31.96,14.806,31.567,15.199,31.085,15.199z M28.955,13.999h1.805v-1.805h-1.805V13.999z
					"/>
			</g>
			<g>
				<path fill="#FFFFFF" d="M21.263,20.047c0,0.152-0.123,0.275-0.275,0.275h-2.455c-0.152,0-0.275-0.123-0.275-0.275v-2.455
					c0-0.152,0.123-0.275,0.275-0.275h2.455c0.152,0,0.275,0.123,0.275,0.275V20.047z"/>
				<path fill="#B8141A" d="M20.988,20.922h-2.456c-0.482,0-0.875-0.393-0.875-0.875v-2.455c0-0.482,0.393-0.875,0.875-0.875h2.456
					c0.482,0,0.875,0.393,0.875,0.875v2.455C21.863,20.53,21.471,20.922,20.988,20.922z M18.858,19.722h1.805v-1.805h-1.805V19.722z
					"/>
			</g>
			<g>
				<path fill="#FFFFFF" d="M26.365,20.047c0,0.152-0.123,0.275-0.275,0.275h-2.455c-0.152,0-0.275-0.123-0.275-0.275v-2.455
					c0-0.152,0.123-0.275,0.275-0.275h2.455c0.152,0,0.275,0.123,0.275,0.275V20.047z"/>
				<path fill="#B8141A" d="M26.09,20.922h-2.456c-0.482,0-0.875-0.393-0.875-0.875v-2.455c0-0.482,0.393-0.875,0.875-0.875h2.456
					c0.482,0,0.875,0.393,0.875,0.875v2.455C26.965,20.53,26.573,20.922,26.09,20.922z M23.96,19.722h1.805v-1.805H23.96V19.722z"/>
			</g>
			<g>
				<path fill="#FFFFFF" d="M31.36,20.047c0,0.152-0.123,0.275-0.275,0.275H28.63c-0.152,0-0.275-0.123-0.275-0.275v-2.455
					c0-0.152,0.123-0.275,0.275-0.275h2.455c0.152,0,0.275,0.123,0.275,0.275V20.047z"/>
				<path fill="#B8141A" d="M31.085,20.922H28.63c-0.482,0-0.875-0.393-0.875-0.875v-2.455c0-0.482,0.393-0.875,0.875-0.875h2.455
					c0.482,0,0.875,0.393,0.875,0.875v2.455C31.96,20.53,31.567,20.922,31.085,20.922z M28.955,19.722h1.805v-1.805h-1.805V19.722z"
					/>
			</g>
		</g>
	</g>
</g>
</svg>
