<?xml version="1.0" encoding="utf-8"?>
<!-- Generator: Adobe Illustrator 17.0.0, SVG Export Plug-In . SVG Version: 6.00 Build 0)  -->
<!DOCTYPE svg PUBLIC "-//W3C//DTD SVG 1.1//EN" "http://www.w3.org/Graphics/SVG/1.1/DTD/svg11.dtd">
<svg version="1.1" id="Layer_1" xmlns="http://www.w3.org/2000/svg" xmlns:xlink="http://www.w3.org/1999/xlink" x="0px" y="0px"
	 width="17px" height="17px" viewBox="0 0 17 17" enable-background="new 0 0 17 17" xml:space="preserve">
<path fill="#B8141A" d="M8.5,3.26l1.54,3.121l0.233,0.471l0.52,0.076l3.444,0.5l-2.492,2.429l-0.376,0.367l0.089,0.518l0.588,3.43
	l-3.08-1.619L8.5,12.308l-0.465,0.245l-3.08,1.619l0.588-3.43l0.089-0.518L5.255,9.857L2.763,7.428l3.444-0.5l0.52-0.076L6.96,6.38
	L8.5,3.26 M8.5,1L6.063,5.938L0.614,6.729l3.943,3.843L3.626,16L8.5,13.438L13.374,16l-0.931-5.427l3.943-3.843l-5.449-0.792L8.5,1
	L8.5,1z"/>
</svg>
