<?xml version="1.0" encoding="utf-8"?>
<!-- Generator: Adobe Illustrator 17.0.0, SVG Export Plug-In . SVG Version: 6.00 Build 0)  -->
<!DOCTYPE svg PUBLIC "-//W3C//DTD SVG 1.1//EN" "http://www.w3.org/Graphics/SVG/1.1/DTD/svg11.dtd">
<svg version="1.1" id="Layer_1" xmlns="http://www.w3.org/2000/svg" xmlns:xlink="http://www.w3.org/1999/xlink" x="0px" y="0px"
	 width="24px" height="22px" viewBox="0 0 24 22" enable-background="new 0 0 24 22" xml:space="preserve">
<g>
	<g>
		<g>
			<path fill="#FFFFFF" d="M2.559,17.586c2.07,2.573,5.834,2.981,8.407,0.911l0,0l7.879-6.339c2.573-2.07,2.98-5.833,0.91-8.407
				c-2.07-2.573-5.836-2.979-8.407-0.911L3.469,9.179l0,0C0.896,11.249,0.489,15.013,2.559,17.586z"/>
			<path fill="#B8141A" d="M7.222,20.318C7.222,20.318,7.222,20.318,7.222,20.318c-1.975,0-3.816-0.882-5.053-2.418
				c-2.239-2.784-1.797-6.871,0.986-9.11l7.879-6.339c1.146-0.922,2.587-1.431,4.057-1.431c1.975,0,3.817,0.882,5.053,2.418
				c1.085,1.349,1.581,3.039,1.394,4.76c-0.186,1.721-1.031,3.266-2.379,4.351l-7.879,6.339C10.132,19.81,8.691,20.318,7.222,20.318
				z M15.091,2.02c-1.261,0-2.447,0.419-3.43,1.21L3.782,9.569c-2.354,1.894-2.728,5.35-0.834,7.704
				c1.045,1.3,2.603,2.045,4.273,2.045c0,0,0,0,0,0c1.26,0,2.446-0.418,3.431-1.21l7.879-6.339c1.14-0.917,1.855-2.224,2.012-3.679
				c0.158-1.455-0.261-2.885-1.179-4.025C18.32,2.765,16.762,2.02,15.091,2.02z"/>
		</g>
	</g>
	<g>
		<g>
			<path fill="#FFFFFF" d="M1.401,16.131c1.168,3.089,4.618,4.647,7.707,3.48l0,0l9.459-3.576c3.089-1.168,4.646-4.618,3.478-7.708
				c-1.168-3.089-4.621-4.646-7.707-3.48L4.88,8.424l0,0C1.791,9.592,0.234,13.043,1.401,16.131z"/>
			<path fill="#B8141A" d="M6.997,20.499C6.996,20.499,6.996,20.499,6.997,20.499c-2.679,0-5.116-1.685-6.063-4.19
				c-1.263-3.342,0.428-7.089,3.77-8.353l9.459-3.575c0.737-0.278,1.507-0.42,2.289-0.42c2.679,0,5.116,1.684,6.063,4.19
				c1.263,3.342-0.427,7.089-3.769,8.353l-9.459,3.575C8.548,20.357,7.778,20.499,6.997,20.499z M16.451,4.96
				c-0.661,0-1.312,0.119-1.935,0.355L5.057,8.891c-2.826,1.068-4.256,4.237-3.188,7.063c0.801,2.119,2.861,3.544,5.127,3.544
				c0.661,0,1.312-0.12,1.936-0.355l9.459-3.575c2.826-1.068,4.255-4.237,3.187-7.063C20.777,6.384,18.716,4.96,16.451,4.96z"/>
		</g>
	</g>
	<g>
		<g>
			<path fill="#FFFFFF" d="M0.854,14.247c0,3.442,2.79,6.232,6.231,6.232l0,0h9.831c3.441,0,6.231-2.79,6.231-6.232
				c0-3.442-2.793-6.232-6.231-6.232H7.085l0,0C3.644,8.016,0.854,10.806,0.854,14.247z"/>
			<path fill="#B8141A" d="M16.916,20.98H7.085c-3.712-0.001-6.731-3.021-6.731-6.732s3.02-6.731,6.731-6.732h9.831
				c3.711,0,6.731,3.021,6.731,6.732S20.627,20.98,16.916,20.98z M7.085,8.515c-3.16,0.001-5.731,2.572-5.731,5.732
				s2.571,5.731,5.731,5.732h9.831c3.16,0,5.731-2.571,5.731-5.732s-2.571-5.732-5.731-5.732H7.085z"/>
		</g>
		<g>
			<line fill="#FFFFFF" x1="9.73" y1="16.661" x2="17.725" y2="16.661"/>
			<path fill="#B8141A" d="M17.725,17.162H9.73c-0.276,0-0.5-0.224-0.5-0.5s0.224-0.5,0.5-0.5h7.995c0.276,0,0.5,0.224,0.5,0.5
				S18.001,17.162,17.725,17.162z"/>
		</g>
		<g>
			<line fill="#FFFFFF" x1="9.73" y1="14.248" x2="15.152" y2="14.248"/>
			<path fill="#B8141A" d="M15.151,14.748H9.73c-0.276,0-0.5-0.224-0.5-0.5s0.224-0.5,0.5-0.5h5.421c0.276,0,0.5,0.224,0.5,0.5
				S15.428,14.748,15.151,14.748z"/>
		</g>
		<g>
			<line fill="#FFFFFF" x1="9.73" y1="11.834" x2="17.725" y2="11.834"/>
			<path fill="#B8141A" d="M17.725,12.333H9.73c-0.276,0-0.5-0.224-0.5-0.5s0.224-0.5,0.5-0.5h7.995c0.276,0,0.5,0.224,0.5,0.5
				S18.001,12.333,17.725,12.333z"/>
		</g>
		<g>
			<circle fill="#FFFFFF" cx="5.449" cy="14.248" r="1.661"/>
			<path fill="#B8141A" d="M5.449,16.409c-1.191,0-2.161-0.97-2.161-2.161s0.97-2.161,2.161-2.161s2.161,0.97,2.161,2.161
				S6.641,16.409,5.449,16.409z M5.449,13.086c-0.64,0-1.161,0.521-1.161,1.161s0.521,1.161,1.161,1.161s1.161-0.521,1.161-1.161
				S6.089,13.086,5.449,13.086z"/>
		</g>
	</g>
</g>
</svg>
