<?xml version="1.0" encoding="utf-8"?>
<!-- Generator: Adobe Illustrator 17.0.0, SVG Export Plug-In . SVG Version: 6.00 Build 0)  -->
<!DOCTYPE svg PUBLIC "-//W3C//DTD SVG 1.1//EN" "http://www.w3.org/Graphics/SVG/1.1/DTD/svg11.dtd">
<svg version="1.1" id="Layer_1" xmlns="http://www.w3.org/2000/svg" xmlns:xlink="http://www.w3.org/1999/xlink" x="0px" y="0px"
	 width="54px" height="32px" viewBox="0 0 54 32" enable-background="new 0 0 54 32" xml:space="preserve">
<path fill="#B4141A" d="M39.42,31.233c-0.248,0-0.494-0.092-0.685-0.271c-0.335-0.314-0.413-0.817-0.188-1.219l3.242-5.781
	c-10.117-1.228-12.301-7.145-12.301-12.02c0-6.193,4.568-10.778,11.109-11.149c0.303-0.018,0.605-0.026,0.903-0.026
	c7.034,0,11.456,4.534,11.828,12.13c0.399,8.177-6.933,14.009-13.366,18.175C39.797,31.18,39.608,31.233,39.42,31.233z
	 M41.501,2.767c-0.261,0-0.525,0.008-0.79,0.022c-5.516,0.313-9.223,3.991-9.223,9.153c0,6.201,4.035,9.623,11.993,10.171
	c0.342,0.024,0.648,0.221,0.811,0.522c0.163,0.302,0.16,0.666-0.008,0.965l-1.886,3.362c4.84-3.598,9.214-8.202,8.932-13.969
	C51.013,6.495,47.43,2.767,41.501,2.767z M10.588,31.233c-0.248,0-0.494-0.092-0.685-0.271c-0.335-0.314-0.413-0.817-0.188-1.219
	l3.242-5.781C2.84,22.735,0.656,16.818,0.656,11.943c0-6.193,4.568-10.778,11.109-11.149c0.303-0.018,0.604-0.026,0.903-0.026
	c7.034,0,11.456,4.534,11.828,12.13c0.399,8.177-6.933,14.009-13.366,18.175C10.965,31.18,10.775,31.233,10.588,31.233z
	 M12.669,2.767c-0.261,0-0.525,0.008-0.79,0.022c-5.516,0.313-9.222,3.991-9.222,9.153c0,6.201,4.035,9.623,11.993,10.171
	c0.342,0.024,0.648,0.221,0.811,0.522s0.16,0.666-0.008,0.965l-1.886,3.362c4.839-3.599,9.213-8.202,8.931-13.969
	C22.18,6.495,18.597,2.767,12.669,2.767z"/>
</svg>
