<?xml version="1.0" encoding="utf-8"?>
<!-- Generator: Adobe Illustrator 17.0.0, SVG Export Plug-In . SVG Version: 6.00 Build 0)  -->
<!DOCTYPE svg PUBLIC "-//W3C//DTD SVG 1.1//EN" "http://www.w3.org/Graphics/SVG/1.1/DTD/svg11.dtd">
<svg version="1.1" id="Layer_1" xmlns="http://www.w3.org/2000/svg" xmlns:xlink="http://www.w3.org/1999/xlink" x="0px" y="0px"
	 width="312.824px" height="49.951px" viewBox="0 0 312.824 49.951" enable-background="new 0 0 312.824 49.951"
	 xml:space="preserve">
<g>
	<path fill="#FFFFFF" d="M232,3.187h-13.888c-5.13,0-9.303,4.174-9.303,9.304c0,5.129,4.173,9.304,9.303,9.305H232
		c5.129,0,9.303-4.174,9.303-9.305S237.129,3.187,232,3.187z M232,20.796h-13.888c-4.578-0.001-8.303-3.727-8.303-8.305
		s3.725-8.304,8.303-8.304H232c4.578,0,8.303,3.725,8.303,8.304S236.578,20.796,232,20.796z M233.144,15.402h-11.295
		c-0.276,0-0.5,0.224-0.5,0.5c0,0.276,0.224,0.5,0.5,0.5h11.295c0.276,0,0.5-0.224,0.5-0.5
		C233.644,15.625,233.419,15.402,233.144,15.402z M221.849,12.992h7.659c0.276,0,0.5-0.224,0.5-0.5s-0.224-0.5-0.5-0.5h-7.659
		c-0.276,0-0.5,0.224-0.5,0.5S221.572,12.992,221.849,12.992z M233.144,8.582h-11.295c-0.276,0-0.5,0.224-0.5,0.5s0.224,0.5,0.5,0.5
		h11.295c0.276,0,0.5-0.224,0.5-0.5S233.419,8.582,233.144,8.582z M215.801,9.645c-1.569,0-2.846,1.277-2.846,2.847
		s1.277,2.847,2.846,2.847c1.57,0,2.847-1.277,2.847-2.847S217.371,9.645,215.801,9.645z M215.801,14.338
		c-1.018,0-1.846-0.829-1.846-1.847s0.829-1.847,1.846-1.847c1.019,0,1.847,0.829,1.847,1.847S216.819,14.338,215.801,14.338z"/>
	<path fill="#FFFFFF" d="M276.689,3.187h-13.888c-5.129,0-9.303,4.174-9.303,9.304c0,5.129,4.174,9.304,9.303,9.305h13.888
		c5.129,0,9.302-4.174,9.302-9.305S281.818,3.187,276.689,3.187z M276.689,20.796h-13.888c-4.578-0.001-8.303-3.727-8.303-8.305
		s3.725-8.304,8.303-8.304h13.888c4.578,0,8.302,3.725,8.302,8.304S281.268,20.796,276.689,20.796z M277.833,15.402h-11.294
		c-0.276,0-0.5,0.224-0.5,0.5c0,0.276,0.224,0.5,0.5,0.5h11.294c0.276,0,0.5-0.224,0.5-0.5
		C278.333,15.625,278.108,15.402,277.833,15.402z M266.538,12.992h7.659c0.276,0,0.5-0.224,0.5-0.5s-0.224-0.5-0.5-0.5h-7.659
		c-0.276,0-0.5,0.224-0.5,0.5S266.262,12.992,266.538,12.992z M277.833,8.582h-11.294c-0.276,0-0.5,0.224-0.5,0.5s0.224,0.5,0.5,0.5
		h11.294c0.276,0,0.5-0.224,0.5-0.5S278.108,8.582,277.833,8.582z M260.49,9.645c-1.569,0-2.847,1.277-2.847,2.847
		s1.277,2.847,2.847,2.847s2.847-1.277,2.847-2.847S262.06,9.645,260.49,9.645z M260.49,14.338c-1.019,0-1.847-0.829-1.847-1.847
		s0.828-1.847,1.847-1.847c1.018,0,1.847,0.829,1.847,1.847S261.508,14.338,260.49,14.338z"/>
	<path fill="#FFFFFF" d="M255.228,28.155h-13.889c-5.129,0-9.302,4.174-9.302,9.304c0,5.131,4.173,9.305,9.302,9.305h13.889
		c5.129-0.001,9.303-4.175,9.303-9.305C264.53,32.329,260.357,28.155,255.228,28.155z M255.228,45.763h-13.889
		c-4.578,0-8.302-3.725-8.302-8.305c0-4.579,3.724-8.304,8.302-8.304h13.889c4.578,0,8.303,3.726,8.303,8.304
		C263.53,42.037,259.806,45.762,255.228,45.763z M251.49,40.369h-11.294c-0.276,0-0.5,0.224-0.5,0.5s0.224,0.5,0.5,0.5h11.294
		c0.276,0,0.5-0.224,0.5-0.5S251.767,40.369,251.49,40.369z M251.49,36.959h-7.659c-0.276,0-0.5,0.224-0.5,0.5s0.224,0.5,0.5,0.5
		h7.659c0.276,0,0.5-0.224,0.5-0.5S251.767,36.959,251.49,36.959z M251.49,33.549h-11.294c-0.276,0-0.5,0.224-0.5,0.5
		s0.224,0.5,0.5,0.5h11.294c0.276,0,0.5-0.224,0.5-0.5S251.767,33.549,251.49,33.549z M257.538,34.613
		c-1.569,0-2.846,1.276-2.846,2.846s1.277,2.846,2.846,2.846c1.57,0,2.847-1.276,2.847-2.846S259.108,34.613,257.538,34.613z
		 M257.538,39.305c-1.018,0-1.846-0.828-1.846-1.846s0.829-1.846,1.846-1.846c1.019,0,1.847,0.828,1.847,1.846
		S258.557,39.305,257.538,39.305z"/>
	<path fill="#FFFFFF" d="M62.546,12.492c0-5.13-4.173-9.304-9.303-9.304H39.355c-5.13,0-9.303,4.174-9.303,9.304
		c0,5.129,4.173,9.304,9.303,9.305h13.888C58.373,21.796,62.546,17.622,62.546,12.492z M53.243,20.796H39.355
		c-4.578-0.001-8.303-3.727-8.303-8.305s3.725-8.304,8.303-8.304h13.888c4.578,0,8.303,3.725,8.303,8.304
		S57.821,20.796,53.243,20.796z M54.387,15.402H43.092c-0.276,0-0.5,0.224-0.5,0.5c0,0.276,0.224,0.5,0.5,0.5h11.294
		c0.276,0,0.5-0.224,0.5-0.5C54.887,15.625,54.663,15.402,54.387,15.402z M43.092,12.992h7.659c0.276,0,0.5-0.224,0.5-0.5
		s-0.224-0.5-0.5-0.5h-7.659c-0.276,0-0.5,0.224-0.5,0.5S42.816,12.992,43.092,12.992z M54.387,8.582H43.092
		c-0.276,0-0.5,0.224-0.5,0.5s0.224,0.5,0.5,0.5h11.294c0.276,0,0.5-0.224,0.5-0.5C54.887,8.806,54.663,8.582,54.387,8.582z
		 M37.044,9.645c-1.57,0-2.847,1.277-2.847,2.847s1.277,2.847,2.847,2.847c1.569,0,2.846-1.277,2.846-2.847
		S38.614,9.645,37.044,9.645z M37.044,14.338c-1.018,0-1.847-0.829-1.847-1.847s0.829-1.847,1.847-1.847s1.846,0.829,1.846,1.847
		S38.062,14.338,37.044,14.338z M107.235,12.492c0-5.13-4.173-9.304-9.303-9.304H84.044c-5.129,0-9.303,4.174-9.303,9.304
		c0,5.129,4.173,9.304,9.303,9.305h13.888C103.062,21.796,107.235,17.622,107.235,12.492z M97.933,20.796H84.045
		c-4.579-0.001-8.303-3.727-8.303-8.305s3.725-8.304,8.303-8.304h13.888c4.578,0,8.303,3.725,8.303,8.304
		S102.511,20.796,97.933,20.796z M99.076,15.402H87.781c-0.276,0-0.5,0.224-0.5,0.5c0,0.276,0.224,0.5,0.5,0.5h11.295
		c0.276,0,0.5-0.224,0.5-0.5C99.576,15.625,99.352,15.402,99.076,15.402z M87.781,12.992h7.659c0.276,0,0.5-0.224,0.5-0.5
		s-0.224-0.5-0.5-0.5h-7.659c-0.276,0-0.5,0.224-0.5,0.5S87.505,12.992,87.781,12.992z M99.076,8.582H87.781
		c-0.276,0-0.5,0.224-0.5,0.5s0.224,0.5,0.5,0.5h11.295c0.276,0,0.5-0.224,0.5-0.5S99.352,8.582,99.076,8.582z M81.733,9.645
		c-1.569,0-2.846,1.277-2.846,2.847s1.277,2.847,2.846,2.847c1.57,0,2.847-1.277,2.847-2.847S83.303,9.645,81.733,9.645z
		 M81.733,14.338c-1.018,0-1.846-0.829-1.846-1.847s0.828-1.847,1.846-1.847c1.019,0,1.847,0.829,1.847,1.847
		S82.752,14.338,81.733,14.338z M151.924,12.492c0-5.13-4.173-9.304-9.302-9.304h-13.889c-5.129,0-9.303,4.174-9.303,9.304
		c0,5.129,4.173,9.304,9.303,9.305h13.889C147.751,21.796,151.924,17.622,151.924,12.492z M142.622,20.796h-13.889
		c-4.578-0.001-8.303-3.727-8.303-8.305s3.725-8.304,8.303-8.304h13.889c4.578,0,8.302,3.725,8.302,8.304
		S147.2,20.796,142.622,20.796z M143.765,15.402h-11.294c-0.276,0-0.5,0.224-0.5,0.5c0,0.276,0.224,0.5,0.5,0.5h11.294
		c0.276,0,0.5-0.224,0.5-0.5C144.265,15.625,144.041,15.402,143.765,15.402z M132.471,12.992h7.659c0.276,0,0.5-0.224,0.5-0.5
		s-0.224-0.5-0.5-0.5h-7.659c-0.276,0-0.5,0.224-0.5,0.5S132.194,12.992,132.471,12.992z M143.765,8.582h-11.294
		c-0.276,0-0.5,0.224-0.5,0.5s0.224,0.5,0.5,0.5h11.294c0.276,0,0.5-0.224,0.5-0.5S144.041,8.582,143.765,8.582z M126.423,9.645
		c-1.57,0-2.847,1.277-2.847,2.847s1.277,2.847,2.847,2.847c1.569,0,2.847-1.277,2.847-2.847S127.992,9.645,126.423,9.645z
		 M126.423,14.338c-1.019,0-1.847-0.829-1.847-1.847s0.828-1.847,1.847-1.847c1.018,0,1.847,0.829,1.847,1.847
		S127.441,14.338,126.423,14.338z M196.613,12.492c0-5.13-4.173-9.304-9.303-9.304h-13.888c-5.13,0-9.303,4.174-9.303,9.304
		c0,5.129,4.173,9.304,9.303,9.305h13.888C192.44,21.796,196.613,17.622,196.613,12.492z M187.311,20.796h-13.888
		c-4.578-0.001-8.303-3.727-8.303-8.305s3.725-8.304,8.303-8.304h13.888c4.578,0,8.303,3.725,8.303,8.304
		S191.889,20.796,187.311,20.796z M188.454,15.402H177.16c-0.276,0-0.5,0.224-0.5,0.5c0,0.276,0.224,0.5,0.5,0.5h11.294
		c0.276,0,0.5-0.224,0.5-0.5C188.954,15.625,188.73,15.402,188.454,15.402z M177.16,12.992h7.659c0.276,0,0.5-0.224,0.5-0.5
		s-0.224-0.5-0.5-0.5h-7.659c-0.276,0-0.5,0.224-0.5,0.5S176.884,12.992,177.16,12.992z M188.454,8.582H177.16
		c-0.276,0-0.5,0.224-0.5,0.5s0.224,0.5,0.5,0.5h11.294c0.276,0,0.5-0.224,0.5-0.5C188.954,8.806,188.73,8.582,188.454,8.582z
		 M171.112,9.645c-1.57,0-2.846,1.277-2.846,2.847s1.276,2.847,2.846,2.847s2.846-1.277,2.846-2.847S172.682,9.645,171.112,9.645z
		 M171.112,14.338c-1.018,0-1.846-0.829-1.846-1.847s0.828-1.847,1.846-1.847s1.846,0.829,1.846,1.847S172.13,14.338,171.112,14.338
		z M210.538,28.155H196.65c-5.13,0-9.303,4.174-9.303,9.304c0,5.131,4.173,9.305,9.303,9.305h13.888
		c5.13-0.001,9.303-4.175,9.303-9.305C219.841,32.329,215.668,28.155,210.538,28.155z M210.538,45.763H196.65
		c-4.578,0-8.303-3.725-8.303-8.305c0-4.579,3.725-8.304,8.303-8.304h13.888c4.578,0,8.303,3.726,8.303,8.304
		C218.841,42.037,215.116,45.762,210.538,45.763z M206.801,40.369h-11.294c-0.276,0-0.5,0.224-0.5,0.5s0.224,0.5,0.5,0.5h11.294
		c0.276,0,0.5-0.224,0.5-0.5S207.077,40.369,206.801,40.369z M206.801,36.959h-7.659c-0.276,0-0.5,0.224-0.5,0.5s0.224,0.5,0.5,0.5
		h7.659c0.276,0,0.5-0.224,0.5-0.5S207.077,36.959,206.801,36.959z M206.801,33.549h-11.294c-0.276,0-0.5,0.224-0.5,0.5
		s0.224,0.5,0.5,0.5h11.294c0.276,0,0.5-0.224,0.5-0.5S207.077,33.549,206.801,33.549z M212.849,34.613
		c-1.57,0-2.846,1.276-2.846,2.846s1.276,2.846,2.846,2.846s2.846-1.276,2.846-2.846S214.419,34.613,212.849,34.613z
		 M212.849,39.305c-1.018,0-1.846-0.828-1.846-1.846s0.828-1.846,1.846-1.846s1.846,0.828,1.846,1.846
		S213.867,39.305,212.849,39.305z M165.849,28.155h-13.888c-5.129,0-9.303,4.174-9.303,9.304c0,5.131,4.173,9.305,9.303,9.305
		h13.888c5.13-0.001,9.303-4.175,9.303-9.305S170.979,28.155,165.849,28.155z M165.849,45.763h-13.888
		c-4.578,0-8.303-3.725-8.303-8.305c0-4.579,3.725-8.304,8.303-8.304h13.888c4.578,0,8.303,3.726,8.303,8.304
		C174.152,42.037,170.427,45.762,165.849,45.763z M162.112,40.369h-11.295c-0.276,0-0.5,0.224-0.5,0.5s0.224,0.5,0.5,0.5h11.295
		c0.276,0,0.5-0.224,0.5-0.5S162.389,40.369,162.112,40.369z M162.112,36.959h-7.659c-0.276,0-0.5,0.224-0.5,0.5s0.224,0.5,0.5,0.5
		h7.659c0.276,0,0.5-0.224,0.5-0.5S162.389,36.959,162.112,36.959z M162.112,33.549h-11.295c-0.276,0-0.5,0.224-0.5,0.5
		s0.224,0.5,0.5,0.5h11.295c0.276,0,0.5-0.224,0.5-0.5S162.389,33.549,162.112,33.549z M168.16,34.613
		c-1.57,0-2.847,1.276-2.847,2.846s1.277,2.846,2.847,2.846c1.569,0,2.846-1.276,2.846-2.846S169.729,34.613,168.16,34.613z
		 M168.16,39.305c-1.019,0-1.847-0.828-1.847-1.846s0.828-1.846,1.847-1.846c1.018,0,1.846,0.828,1.846,1.846
		S169.178,39.305,168.16,39.305z M121.16,28.155h-13.888c-5.129,0-9.302,4.174-9.302,9.304c0,5.131,4.173,9.305,9.302,9.305h13.888
		c5.129-0.001,9.303-4.175,9.303-9.305S126.289,28.155,121.16,28.155z M121.16,45.763h-13.888c-4.578,0-8.302-3.725-8.302-8.305
		c0-4.579,3.725-8.304,8.302-8.304h13.888c4.579,0,8.303,3.726,8.303,8.304C129.463,42.037,125.738,45.762,121.16,45.763z
		 M117.423,40.369h-11.294c-0.276,0-0.5,0.224-0.5,0.5s0.224,0.5,0.5,0.5h11.294c0.276,0,0.5-0.224,0.5-0.5
		S117.699,40.369,117.423,40.369z M117.423,36.959h-7.659c-0.276,0-0.5,0.224-0.5,0.5s0.224,0.5,0.5,0.5h7.659
		c0.276,0,0.5-0.224,0.5-0.5S117.699,36.959,117.423,36.959z M117.423,33.549h-11.294c-0.276,0-0.5,0.224-0.5,0.5s0.224,0.5,0.5,0.5
		h11.294c0.276,0,0.5-0.224,0.5-0.5S117.699,33.549,117.423,33.549z M123.471,34.613c-1.569,0-2.847,1.276-2.847,2.846
		s1.277,2.846,2.847,2.846s2.847-1.276,2.847-2.846S125.04,34.613,123.471,34.613z M123.471,39.305
		c-1.018,0-1.847-0.828-1.847-1.846s0.829-1.846,1.847-1.846c1.019,0,1.847,0.828,1.847,1.846S124.489,39.305,123.471,39.305z
		 M76.471,28.155H62.583c-5.129,0-9.302,4.174-9.302,9.304c0,5.131,4.173,9.305,9.302,9.305h13.888
		c5.129-0.001,9.303-4.175,9.303-9.305C85.773,32.329,81.6,28.155,76.471,28.155z M76.471,45.763H62.583
		c-4.578,0-8.302-3.725-8.302-8.305c0-4.579,3.725-8.304,8.302-8.304h13.888c4.578,0,8.303,3.726,8.303,8.304
		C84.773,42.037,81.049,45.762,76.471,45.763z M72.734,40.369H61.439c-0.276,0-0.5,0.224-0.5,0.5s0.224,0.5,0.5,0.5h11.294
		c0.276,0,0.5-0.224,0.5-0.5C73.234,40.593,73.01,40.369,72.734,40.369z M72.734,36.959h-7.659c-0.276,0-0.5,0.224-0.5,0.5
		s0.224,0.5,0.5,0.5h7.659c0.276,0,0.5-0.224,0.5-0.5S73.01,36.959,72.734,36.959z M72.734,33.549H61.439
		c-0.276,0-0.5,0.224-0.5,0.5s0.224,0.5,0.5,0.5h11.294c0.276,0,0.5-0.224,0.5-0.5C73.234,33.773,73.01,33.549,72.734,33.549z
		 M78.782,34.613c-1.57,0-2.847,1.276-2.847,2.846s1.277,2.846,2.847,2.846c1.569,0,2.846-1.276,2.846-2.846
		S80.351,34.613,78.782,34.613z M78.782,39.305c-1.018,0-1.847-0.828-1.847-1.846s0.829-1.846,1.847-1.846s1.846,0.828,1.846,1.846
		S79.8,39.305,78.782,39.305z M31.781,28.155H17.894c-5.129,0-9.303,4.174-9.303,9.304c0,5.131,4.173,9.305,9.303,9.305h13.888
		c5.129-0.001,9.303-4.175,9.303-9.305C41.084,32.329,36.911,28.155,31.781,28.155z M31.781,45.763H17.894
		c-4.578,0-8.303-3.725-8.303-8.305c0-4.579,3.725-8.304,8.303-8.304h13.888c4.578,0,8.303,3.726,8.303,8.304
		C40.084,42.037,36.359,45.762,31.781,45.763z M28.045,40.369H16.75c-0.276,0-0.5,0.224-0.5,0.5s0.224,0.5,0.5,0.5h11.295
		c0.276,0,0.5-0.224,0.5-0.5S28.321,40.369,28.045,40.369z M28.045,36.959h-7.659c-0.276,0-0.5,0.224-0.5,0.5s0.224,0.5,0.5,0.5
		h7.659c0.276,0,0.5-0.224,0.5-0.5S28.321,36.959,28.045,36.959z M28.045,33.549H16.75c-0.276,0-0.5,0.224-0.5,0.5
		s0.224,0.5,0.5,0.5h11.295c0.276,0,0.5-0.224,0.5-0.5S28.321,33.549,28.045,33.549z M34.093,34.613
		c-1.57,0-2.847,1.276-2.847,2.846s1.277,2.846,2.847,2.846c1.569,0,2.846-1.276,2.846-2.846S35.662,34.613,34.093,34.613z
		 M34.093,39.305c-1.019,0-1.847-0.828-1.847-1.846s0.828-1.846,1.847-1.846c1.018,0,1.846,0.828,1.846,1.846
		S35.111,39.305,34.093,39.305z"/>
	<path fill="#FFFFFF" d="M310.727,12.492c0,0.276,0.224,0.5,0.5,0.5h1.597v-1h-1.597C310.95,11.992,310.727,12.215,310.727,12.492z
		 M310.727,9.082c0,0.276,0.224,0.5,0.5,0.5h1.597v-1h-1.597C310.95,8.582,310.727,8.806,310.727,9.082z M310.727,15.902
		c0,0.276,0.224,0.5,0.5,0.5h1.597v-1h-1.597C310.95,15.402,310.727,15.625,310.727,15.902z M307.49,3.187
		c-5.13,0-9.303,4.174-9.303,9.304c0,5.129,4.173,9.304,9.303,9.305h5.334v-1h-5.334c-4.578-0.001-8.303-3.727-8.303-8.305
		s3.725-8.304,8.303-8.304h5.334v-1C312.824,3.187,307.49,3.187,307.49,3.187z M305.179,9.645c-1.569,0-2.846,1.277-2.846,2.847
		s1.277,2.847,2.846,2.847c1.57,0,2.847-1.277,2.847-2.847S306.749,9.645,305.179,9.645z M305.179,14.338
		c-1.018,0-1.846-0.829-1.846-1.847s0.829-1.847,1.846-1.847c1.019,0,1.847,0.829,1.847,1.847S306.197,14.338,305.179,14.338z"/>
	<path fill="#FFFFFF" d="M8.554,3.187H0v1h8.554c4.578,0,8.303,3.725,8.303,8.304s-3.725,8.305-8.303,8.305H0v1h8.554
		c5.129,0,9.303-4.174,9.303-9.305S13.683,3.187,8.554,3.187z M6.562,12.492c0-0.276-0.224-0.5-0.5-0.5H0v1h6.062
		C6.338,12.992,6.562,12.768,6.562,12.492z M10.198,9.082c0-0.276-0.224-0.5-0.5-0.5H0v1h9.698
		C9.974,9.582,10.198,9.358,10.198,9.082z M10.198,15.902c0-0.276-0.224-0.5-0.5-0.5H0v1h9.698
		C9.974,16.402,10.198,16.178,10.198,15.902z"/>
	<path fill="#FFFFFF" d="M299.916,28.155h-13.889c-5.129,0-9.302,4.174-9.302,9.304c0,5.131,4.173,9.305,9.302,9.305h13.889
		c5.129-0.001,9.303-4.175,9.303-9.305S305.046,28.155,299.916,28.155z M299.916,45.763h-13.889c-4.578,0-8.302-3.725-8.302-8.305
		c0-4.579,3.724-8.304,8.302-8.304h13.889c4.578,0,8.303,3.726,8.303,8.304C308.219,42.037,304.495,45.762,299.916,45.763z
		 M296.179,40.369h-11.294c-0.276,0-0.5,0.224-0.5,0.5s0.224,0.5,0.5,0.5h11.294c0.276,0,0.5-0.224,0.5-0.5
		S296.455,40.369,296.179,40.369z M296.179,36.959h-7.659c-0.276,0-0.5,0.224-0.5,0.5s0.224,0.5,0.5,0.5h7.659
		c0.276,0,0.5-0.224,0.5-0.5S296.455,36.959,296.179,36.959z M296.179,33.549h-11.294c-0.276,0-0.5,0.224-0.5,0.5s0.224,0.5,0.5,0.5
		h11.294c0.276,0,0.5-0.224,0.5-0.5S296.455,33.549,296.179,33.549z M302.227,34.613c-1.569,0-2.846,1.276-2.846,2.846
		s1.277,2.846,2.846,2.846c1.57,0,2.847-1.276,2.847-2.846S303.797,34.613,302.227,34.613z M302.227,39.305
		c-1.018,0-1.846-0.828-1.846-1.846s0.829-1.846,1.846-1.846c1.019,0,1.847,0.828,1.847,1.846S303.245,39.305,302.227,39.305z"/>
	<rect x="0" y="0" fill="none" width="312.824" height="49.951"/>
</g>
</svg>
