<?xml version="1.0" encoding="utf-8"?>
<!-- Generator: Adobe Illustrator 17.0.0, SVG Export Plug-In . SVG Version: 6.00 Build 0)  -->
<!DOCTYPE svg PUBLIC "-//W3C//DTD SVG 1.1//EN" "http://www.w3.org/Graphics/SVG/1.1/DTD/svg11.dtd">
<svg version="1.1" id="Layer_1" xmlns="http://www.w3.org/2000/svg" xmlns:xlink="http://www.w3.org/1999/xlink" x="0px" y="0px"
	 width="40.595px" height="40.595px" viewBox="0 0 40.595 40.595" enable-background="new 0 0 40.595 40.595" xml:space="preserve">
<path fill="#B8141A" d="M20.297,0C9.105,0,0,9.105,0,20.297s9.105,20.297,20.297,20.297s20.297-9.105,20.297-20.297
	S31.489,0,20.297,0z M20.297,39.095C9.933,39.095,1.5,30.662,1.5,20.297S9.933,1.5,20.297,1.5s18.797,8.433,18.797,18.797
	S30.662,39.095,20.297,39.095z M35.853,19.547h-2.594c-0.414,0-0.75,0.335-0.75,0.75s0.336,0.75,0.75,0.75h2.594
	c0.414,0,0.75-0.335,0.75-0.75S36.267,19.547,35.853,19.547z M7.695,19.547H5.1c-0.414,0-0.75,0.335-0.75,0.75s0.336,0.75,0.75,0.75
	h2.595c0.414,0,0.75-0.335,0.75-0.75S8.109,19.547,7.695,19.547z M20.477,8.266c0.414,0,0.75-0.336,0.75-0.75V4.921
	c0-0.414-0.336-0.75-0.75-0.75s-0.75,0.336-0.75,0.75v2.595C19.727,7.93,20.062,8.266,20.477,8.266z M9.074,30.635
	c-0.14,0.14-0.22,0.34-0.22,0.53c0,0.2,0.08,0.39,0.22,0.54c0.14,0.14,0.33,0.21,0.53,0.21s0.39-0.08,0.53-0.22
	c0.14-0.141,0.22-0.33,0.22-0.53c0-0.19-0.08-0.39-0.22-0.53C9.854,30.365,9.354,30.355,9.074,30.635z M9.074,8.895
	c-0.14,0.14-0.22,0.33-0.22,0.53c0,0.2,0.08,0.39,0.22,0.53c0.14,0.14,0.33,0.22,0.53,0.22s0.39-0.08,0.53-0.22
	c0.14-0.14,0.22-0.33,0.22-0.53c0-0.2-0.08-0.39-0.22-0.53C9.854,8.615,9.354,8.615,9.074,8.895z M30.824,8.895
	c-0.14,0.14-0.22,0.33-0.22,0.53c0,0.2,0.08,0.39,0.22,0.53c0.14,0.14,0.33,0.22,0.53,0.22c0.19,0,0.38-0.08,0.53-0.22
	c0.14-0.14,0.22-0.33,0.22-0.53c0-0.2-0.08-0.39-0.22-0.53C31.604,8.615,31.094,8.615,30.824,8.895z M30.814,30.645
	c-0.14,0.14-0.21,0.33-0.21,0.53c0,0.19,0.08,0.39,0.22,0.53c0.13,0.13,0.33,0.22,0.53,0.22c0.19,0,0.39-0.09,0.53-0.22
	c0.14-0.14,0.22-0.34,0.22-0.53c0-0.2-0.08-0.39-0.23-0.54C31.594,30.365,31.104,30.355,30.814,30.645z M20.477,32.329
	c-0.414,0-0.75,0.336-0.75,0.75v2.595c0,0.414,0.336,0.75,0.75,0.75s0.75-0.336,0.75-0.75v-2.595
	C21.227,32.665,20.891,32.329,20.477,32.329z M27.533,12.083l-10.658,4.384c-0.036,0.015-0.058,0.047-0.09,0.066
	c-0.053,0.032-0.102,0.063-0.146,0.108c-0.043,0.043-0.074,0.09-0.106,0.143c-0.02,0.033-0.053,0.055-0.068,0.091l-4.384,10.658
	c-0.115,0.28-0.05,0.602,0.164,0.815c0.144,0.144,0.335,0.22,0.53,0.22c0.096,0,0.193-0.018,0.285-0.056l10.658-4.384
	c0.036-0.015,0.058-0.047,0.09-0.067c0.053-0.032,0.101-0.063,0.145-0.107c0.043-0.043,0.074-0.091,0.106-0.143
	c0.02-0.033,0.053-0.055,0.068-0.091l4.384-10.658c0.115-0.28,0.051-0.602-0.163-0.815C28.134,12.032,27.812,11.968,27.533,12.083z
	 M14.154,26.441l3.272-7.954l4.682,4.682L14.154,26.441z M23.168,22.108l-4.682-4.682l7.954-3.271L23.168,22.108z"/>
</svg>
