<?xml version="1.0" encoding="utf-8"?>
<!-- Generator: Adobe Illustrator 17.0.0, SVG Export Plug-In . SVG Version: 6.00 Build 0)  -->
<!DOCTYPE svg PUBLIC "-//W3C//DTD SVG 1.1//EN" "http://www.w3.org/Graphics/SVG/1.1/DTD/svg11.dtd">
<svg version="1.1" id="Layer_1" xmlns="http://www.w3.org/2000/svg" xmlns:xlink="http://www.w3.org/1999/xlink" x="0px" y="0px"
	 width="62px" height="60px" viewBox="0 0 62 60" enable-background="new 0 0 62 60" xml:space="preserve">
<g>
	<g>
		<g>
			<path fill="#EED3D4" d="M11.453,30c0,10.796,8.751,19.547,19.547,19.547c5.417,0,10.318-2.206,13.858-5.765l-27.64-27.64
				C13.658,19.682,11.453,24.583,11.453,30z"/>
		</g>
		<g>
			<path fill="#FFFFFF" d="M50.623,29.924c0-10.796-8.751-19.547-19.547-19.547c-5.417,0-10.318,2.206-13.858,5.765l27.64,27.64
				C48.418,40.242,50.623,35.341,50.623,29.924z"/>
		</g>
		<g>
			<g>
				<g>
					<path fill="#B4141A" d="M31,50.297c-11.192,0-20.297-9.105-20.297-20.297S19.808,9.703,31,9.703S51.297,18.809,51.297,30
						S42.192,50.297,31,50.297z M31,11.203c-10.365,0-18.797,8.433-18.797,18.797S20.635,48.797,31,48.797S49.797,40.364,49.797,30
						S41.364,11.203,31,11.203z"/>
				</g>
				<g>
					<g>
						<g>
							<g>
								<line fill="#3C3C3B" x1="46.556" y1="30" x2="43.961" y2="30"/>
								<path fill="#B4141A" d="M46.555,30.75h-2.594c-0.414,0-0.75-0.336-0.75-0.75s0.336-0.75,0.75-0.75h2.594
									c0.414,0,0.75,0.336,0.75,0.75S46.969,30.75,46.555,30.75z"/>
							</g>
							<g>
								<line fill="#3C3C3B" x1="18.397" y1="30" x2="15.803" y2="30"/>
								<path fill="#B4141A" d="M18.397,30.75h-2.595c-0.414,0-0.75-0.336-0.75-0.75s0.336-0.75,0.75-0.75h2.595
									c0.414,0,0.75,0.336,0.75,0.75S18.811,30.75,18.397,30.75z"/>
							</g>
						</g>
						<g>
							<g>
								<line fill="#3C3C3B" x1="31.179" y1="14.624" x2="31.179" y2="17.218"/>
								<path fill="#B4141A" d="M31.179,17.968c-0.414,0-0.75-0.336-0.75-0.75v-2.595c0-0.414,0.336-0.75,0.75-0.75
									s0.75,0.336,0.75,0.75v2.595C31.929,17.632,31.593,17.968,31.179,17.968z"/>
							</g>
						</g>
					</g>
					<g>
						<g>
							<g>
								<line fill="#3C3C3B" x1="42.052" y1="19.127" x2="42.052" y2="19.127"/>
								<path fill="#B4141A" d="M42.057,19.875c-0.2,0-0.4-0.08-0.54-0.22c-0.13-0.14-0.22-0.33-0.22-0.53s0.09-0.39,0.23-0.529
									c0.27-0.271,0.78-0.28,1.06,0c0.13,0.14,0.22,0.329,0.22,0.529s-0.09,0.391-0.23,0.53
									C42.447,19.795,42.247,19.875,42.057,19.875z"/>
							</g>
							<g>
								<line fill="#3C3C3B" x1="20.306" y1="40.873" x2="20.306" y2="40.873"/>
								<path fill="#B4141A" d="M20.307,41.625c-0.2,0-0.39-0.08-0.53-0.22s-0.22-0.34-0.22-0.53c0-0.2,0.08-0.39,0.22-0.529
									c0.28-0.28,0.78-0.28,1.06-0.011c0.14,0.15,0.22,0.34,0.22,0.54s-0.08,0.391-0.22,0.53S20.497,41.625,20.307,41.625z"/>
							</g>
						</g>
						<g>
							<g>
								<line fill="#3C3C3B" x1="20.306" y1="19.127" x2="20.306" y2="19.127"/>
								<path fill="#B4141A" d="M20.307,19.875c-0.2,0-0.39-0.08-0.53-0.22s-0.22-0.33-0.22-0.53s0.08-0.39,0.22-0.529
									c0.27-0.271,0.78-0.28,1.06,0c0.14,0.14,0.22,0.329,0.22,0.529s-0.08,0.391-0.22,0.53S20.507,19.875,20.307,19.875z"/>
							</g>
							<g>
								<line fill="#3C3C3B" x1="42.052" y1="40.873" x2="42.052" y2="40.873"/>
								<path fill="#B4141A" d="M42.057,41.625c-0.2,0-0.4-0.08-0.54-0.22c-0.14-0.14-0.21-0.34-0.21-0.53
									c0-0.2,0.07-0.39,0.21-0.529c0.28-0.28,0.79-0.28,1.07,0c0.14,0.14,0.22,0.329,0.22,0.529c0,0.19-0.08,0.391-0.22,0.53
									S42.247,41.625,42.057,41.625z"/>
							</g>
						</g>
					</g>
				</g>
				<g>
					<g>
						<g>
							<g>
								<line fill="#3C3C3B" x1="31.179" y1="45.377" x2="31.179" y2="42.782"/>
								<path fill="#B4141A" d="M31.179,46.126c-0.414,0-0.75-0.336-0.75-0.75v-2.594c0-0.414,0.336-0.75,0.75-0.75
									s0.75,0.336,0.75,0.75v2.594C31.929,45.79,31.593,46.126,31.179,46.126z"/>
							</g>
						</g>
					</g>
				</g>
			</g>
			<g>
				<g>
					<polygon fill="#FFFFFF" points="34.137,33.137 23.479,37.521 27.863,26.863 					"/>
					<path fill="#B4141A" d="M23.479,38.272c-0.195,0-0.387-0.076-0.53-0.22c-0.214-0.214-0.278-0.536-0.164-0.815l4.384-10.658
						c0.096-0.232,0.301-0.401,0.546-0.45c0.25-0.049,0.5,0.027,0.678,0.205l6.273,6.273c0.177,0.178,0.254,0.432,0.205,0.678
						s-0.218,0.451-0.45,0.546l-10.658,4.385C23.672,38.253,23.575,38.272,23.479,38.272z M28.129,28.19l-3.272,7.954l7.954-3.272
						L28.129,28.19z"/>
				</g>
				<g>
					<polygon fill="#EED3D4" points="27.863,26.863 38.521,22.479 34.137,33.137 					"/>
					<path fill="#B4141A" d="M34.136,33.887c-0.197,0-0.388-0.077-0.53-0.22l-6.273-6.273c-0.177-0.178-0.254-0.432-0.205-0.678
						s0.218-0.451,0.45-0.546l10.658-4.385c0.279-0.114,0.601-0.052,0.815,0.163c0.214,0.214,0.278,0.536,0.163,0.815L34.83,33.422
						c-0.096,0.232-0.301,0.401-0.547,0.45C34.235,33.882,34.185,33.887,34.136,33.887z M29.189,27.129l4.682,4.682l3.272-7.954
						L29.189,27.129z"/>
				</g>
			</g>
		</g>
	</g>
</g>
</svg>
