<?xml version="1.0" encoding="utf-8"?>
<!-- Generator: Adobe Illustrator 17.0.0, SVG Export Plug-In . SVG Version: 6.00 Build 0)  -->
<!DOCTYPE svg PUBLIC "-//W3C//DTD SVG 1.1//EN" "http://www.w3.org/Graphics/SVG/1.1/DTD/svg11.dtd">
<svg version="1.1" id="Layer_1" xmlns="http://www.w3.org/2000/svg" xmlns:xlink="http://www.w3.org/1999/xlink" x="0px" y="0px"
	 width="31.647px" height="45.973px" viewBox="0 0 31.647 45.973" enable-background="new 0 0 31.647 45.973" xml:space="preserve">
<path fill="#C6C8C9" d="M31.647,15.823C31.647,7.099,24.549,0,15.824,0C7.099,0,0,7.099,0,15.823c0,4.57,2.75,8.223,5.662,12.09
	c2.516,3.342,5.112,6.792,5.699,10.862h-0.286c-0.414,0-0.75,0.336-0.75,0.75s0.336,0.75,0.75,0.75h9.498
	c0.414,0,0.75-0.336,0.75-0.75s-0.336-0.75-0.75-0.75h-0.286c0.587-4.072,3.183-7.521,5.7-10.862
	C28.897,24.045,31.647,20.393,31.647,15.823z M18.772,38.774l-5.897,0.001c-0.577-4.541-3.339-8.21-6.015-11.765
	C4.104,23.35,1.5,19.892,1.5,15.823C1.5,7.925,7.926,1.5,15.824,1.5c7.897,0,14.323,6.425,14.323,14.323
	c0,4.068-2.603,7.526-5.359,11.188C22.113,30.564,19.351,34.232,18.772,38.774z M20.128,41.624h-8.609
	c-0.414,0-0.75,0.335-0.75,0.75c0,0.414,0.336,0.75,0.75,0.75h8.609c0.414,0,0.75-0.336,0.75-0.75
	C20.878,41.959,20.542,41.624,20.128,41.624z M19.108,44.473h-6.569c-0.414,0-0.75,0.335-0.75,0.75c0,0.414,0.336,0.75,0.75,0.75
	h6.569c0.414,0,0.75-0.336,0.75-0.75C19.858,44.808,19.522,44.473,19.108,44.473z M20.547,15.208l-4.723,4.723l-4.723-4.723
	c-0.293-0.293-0.768-0.293-1.061,0s-0.293,0.768,0,1.061l5.034,5.033v11.018c0,0.415,0.336,0.75,0.75,0.75s0.75-0.335,0.75-0.75
	V21.302l5.034-5.033c0.293-0.293,0.293-0.768,0-1.061S20.84,14.915,20.547,15.208z"/>
</svg>
