<?xml version="1.0" encoding="utf-8"?>
<!-- Generator: Adobe Illustrator 17.0.0, SVG Export Plug-In . SVG Version: 6.00 Build 0)  -->
<!DOCTYPE svg PUBLIC "-//W3C//DTD SVG 1.1//EN" "http://www.w3.org/Graphics/SVG/1.1/DTD/svg11.dtd">
<svg version="1.1" id="Layer_1" xmlns="http://www.w3.org/2000/svg" xmlns:xlink="http://www.w3.org/1999/xlink" x="0px" y="0px"
	 width="62px" height="60px" viewBox="0 0 62 60" enable-background="new 0 0 62 60" xml:space="preserve">
<g>
	<g>
		<g>
			<path fill="#C6C8C9" d="M27.375,47.289c-0.392,0-0.718-0.302-0.748-0.693c-0.336-4.426-3.108-8.108-5.789-11.669
				c-2.912-3.867-5.662-7.52-5.662-12.091c0-8.725,7.099-15.822,15.824-15.822c8.725,0,15.823,7.098,15.823,15.822
				c0,4.57-2.75,8.223-5.66,12.091c-2.681,3.56-5.452,7.241-5.789,11.668c-0.03,0.392-0.356,0.693-0.748,0.693L27.375,47.289z
				 M31.001,8.514c-7.898,0-14.324,6.425-14.324,14.322c0,4.069,2.604,7.527,5.36,11.188c2.676,3.555,5.438,7.224,6.016,11.765
				l5.897-0.001c0.579-4.541,3.34-8.21,6.016-11.764c2.756-3.661,5.359-7.12,5.359-11.188C45.323,14.939,38.898,8.514,31.001,8.514z
				"/>
			<path fill="#C6C8C9" d="M35.749,47.289h-9.498c-0.414,0-0.75-0.336-0.75-0.75s0.336-0.75,0.75-0.75h9.498
				c0.414,0,0.75,0.336,0.75,0.75S36.163,47.289,35.749,47.289z"/>
			<path fill="#C6C8C9" d="M35.305,50.138h-8.609c-0.414,0-0.75-0.336-0.75-0.75s0.336-0.75,0.75-0.75h8.609
				c0.414,0,0.75,0.336,0.75,0.75S35.719,50.138,35.305,50.138z"/>
			<path fill="#C6C8C9" d="M34.285,52.987h-6.569c-0.414,0-0.75-0.336-0.75-0.75s0.336-0.75,0.75-0.75h6.569
				c0.414,0,0.75,0.336,0.75,0.75S34.699,52.987,34.285,52.987z"/>
			<path fill="#C6C8C9" d="M31,40.083c-0.414,0-0.75-0.336-0.75-0.75V28.005c0-0.414,0.336-0.75,0.75-0.75s0.75,0.336,0.75,0.75
				v11.328C31.75,39.747,31.414,40.083,31,40.083z"/>
			<path fill="#C6C8C9" d="M31,28.755c-0.192,0-0.384-0.073-0.53-0.22c-0.293-0.293-0.293-0.768,0-1.061l5.253-5.253
				c0.293-0.293,0.768-0.293,1.061,0s0.293,0.768,0,1.061l-5.253,5.253C31.384,28.682,31.192,28.755,31,28.755z"/>
			<path fill="#C6C8C9" d="M31,28.755c-0.192,0-0.384-0.073-0.53-0.22l-5.253-5.253c-0.293-0.293-0.293-0.768,0-1.061
				s0.768-0.293,1.061,0l5.253,5.253c0.293,0.293,0.293,0.768,0,1.061C31.384,28.682,31.192,28.755,31,28.755z"/>
		</g>
	</g>
</g>
</svg>
