<?xml version="1.0" encoding="utf-8"?>
<!-- Generator: Adobe Illustrator 17.0.0, SVG Export Plug-In . SVG Version: 6.00 Build 0)  -->
<!DOCTYPE svg PUBLIC "-//W3C//DTD SVG 1.1//EN" "http://www.w3.org/Graphics/SVG/1.1/DTD/svg11.dtd">
<svg version="1.1" id="Layer_1" xmlns="http://www.w3.org/2000/svg" xmlns:xlink="http://www.w3.org/1999/xlink" x="0px" y="0px"
	 width="62px" height="60px" viewBox="0 0 62 60" enable-background="new 0 0 62 60" xml:space="preserve">
<g>
	<g>
		<g>
			<g>
				<path fill="#C6C8C9" d="M40.782,49.629H17.67c-2.681,0-4.863-2.182-4.863-4.862V15.234c0-2.682,2.182-4.863,4.863-4.863h23.112
					c2.681,0,4.863,2.182,4.863,4.863v5.378c0,0.414-0.336,0.75-0.75,0.75s-0.75-0.336-0.75-0.75v-5.378
					c0-1.854-1.509-3.363-3.363-3.363H17.67c-1.854,0-3.363,1.509-3.363,3.363v29.533c0,1.854,1.509,3.362,3.363,3.362h23.112
					c1.854,0,3.363-1.509,3.363-3.362v-3.418c0-0.414,0.336-0.75,0.75-0.75s0.75,0.336,0.75,0.75v3.418
					C45.645,47.448,43.463,49.629,40.782,49.629z"/>
				<path fill="#C6C8C9" d="M37.727,21.321H20.725c-0.414,0-0.75-0.336-0.75-0.75s0.336-0.75,0.75-0.75h17.002
					c0.414,0,0.75,0.336,0.75,0.75S38.141,21.321,37.727,21.321z"/>
				<path fill="#C6C8C9" d="M27.443,39.778h-6.718c-0.414,0-0.75-0.336-0.75-0.75s0.336-0.75,0.75-0.75h6.718
					c0.414,0,0.75,0.336,0.75,0.75S27.857,39.778,27.443,39.778z"/>
				<g>
					<polygon fill="#FFFFFF" points="35.963,40.924 31.359,42.557 32.992,37.953 52.669,18.279 55.64,21.249 					"/>
					<path fill="#C6C8C9" d="M31.359,43.307c-0.195,0-0.387-0.076-0.53-0.22c-0.205-0.204-0.273-0.509-0.177-0.781l1.634-4.604
						c0.038-0.105,0.098-0.2,0.177-0.279l19.677-19.674c0.293-0.293,0.768-0.293,1.061,0l2.97,2.97
						c0.141,0.141,0.22,0.331,0.22,0.53s-0.079,0.39-0.22,0.53L36.493,41.453c-0.079,0.079-0.174,0.14-0.279,0.177l-4.604,1.634
						C31.528,43.293,31.443,43.307,31.359,43.307z M33.642,38.364l-1.05,2.96l2.96-1.051l19.027-19.023l-1.91-1.909L33.642,38.364z"
						/>
				</g>
				<path fill="#C6C8C9" d="M34.298,30.549H20.725c-0.414,0-0.75-0.336-0.75-0.75s0.336-0.75,0.75-0.75h13.573
					c0.414,0,0.75,0.336,0.75,0.75S34.712,30.549,34.298,30.549z"/>
			</g>
		</g>
	</g>
</g>
</svg>
