<?xml version="1.0" encoding="utf-8"?>
<!-- Generator: Adobe Illustrator 17.0.0, SVG Export Plug-In . SVG Version: 6.00 Build 0)  -->
<!DOCTYPE svg PUBLIC "-//W3C//DTD SVG 1.1//EN" "http://www.w3.org/Graphics/SVG/1.1/DTD/svg11.dtd">
<svg version="1.1" id="Layer_1" xmlns="http://www.w3.org/2000/svg" xmlns:xlink="http://www.w3.org/1999/xlink" x="0px" y="0px"
	 width="43.583px" height="39.259px" viewBox="0 0 43.583 39.259" enable-background="new 0 0 43.583 39.259" xml:space="preserve">
<path fill="#B8141A" d="M32.088,30.229c-0.414,0-0.75,0.335-0.75,0.75v3.417c0,1.854-1.509,3.363-3.363,3.363H4.863
	c-1.854,0-3.363-1.509-3.363-3.363V4.863C1.5,3.008,3.009,1.5,4.863,1.5h23.112c1.854,0,3.363,1.508,3.363,3.363v5.378
	c0,0.415,0.336,0.75,0.75,0.75s0.75-0.335,0.75-0.75V4.863C32.838,2.181,30.656,0,27.975,0H4.863C2.182,0,0,2.181,0,4.863v29.533
	c0,2.682,2.182,4.863,4.863,4.863h23.112c2.681,0,4.863-2.182,4.863-4.863v-3.417C32.838,30.564,32.502,30.229,32.088,30.229z
	 M25.67,10.201c0-0.415-0.336-0.75-0.75-0.75H7.918c-0.414,0-0.75,0.335-0.75,0.75c0,0.414,0.336,0.75,0.75,0.75H24.92
	C25.334,10.951,25.67,10.615,25.67,10.201z M7.918,27.907c-0.414,0-0.75,0.335-0.75,0.75c0,0.414,0.336,0.75,0.75,0.75h6.718
	c0.414,0,0.75-0.336,0.75-0.75c0-0.415-0.336-0.75-0.75-0.75H7.918z M43.363,10.349l-2.97-2.97c-0.293-0.293-0.768-0.293-1.061,0
	L19.655,27.052c-0.079,0.079-0.139,0.175-0.177,0.28l-1.633,4.604c-0.097,0.272-0.028,0.577,0.177,0.781
	c0.143,0.143,0.335,0.22,0.53,0.22c0.084,0,0.169-0.015,0.251-0.043l4.604-1.634c0.105-0.038,0.201-0.098,0.279-0.176l19.677-19.674
	c0.141-0.141,0.22-0.332,0.22-0.53S43.503,10.489,43.363,10.349z M22.745,29.903l-2.959,1.05l1.05-2.96L39.862,8.969l1.91,1.91
	L22.745,29.903z M22.241,19.428c0-0.414-0.336-0.75-0.75-0.75H7.918c-0.414,0-0.75,0.336-0.75,0.75c0,0.415,0.336,0.75,0.75,0.75
	h13.573C21.905,20.178,22.241,19.843,22.241,19.428z"/>
</svg>
