<?xml version="1.0" encoding="utf-8"?>
<!-- Generator: Adobe Illustrator 17.0.0, SVG Export Plug-In . SVG Version: 6.00 Build 0)  -->
<!DOCTYPE svg PUBLIC "-//W3C//DTD SVG 1.1//EN" "http://www.w3.org/Graphics/SVG/1.1/DTD/svg11.dtd">
<svg version="1.1" id="Layer_1" xmlns="http://www.w3.org/2000/svg" xmlns:xlink="http://www.w3.org/1999/xlink" x="0px" y="0px"
	 width="59.098px" height="45.272px" viewBox="0 0 59.098 45.272" enable-background="new 0 0 59.098 45.272" xml:space="preserve">
<path fill="#C6C8C9" d="M55.038,0H24.784c-2.238,0-4.06,1.821-4.06,4.06v18.375c0,2.239,1.821,4.06,4.06,4.06h9.984
	c0.414,0,0.75-0.336,0.75-0.75c0-0.415-0.336-0.75-0.75-0.75h-9.984c-1.411,0-2.56-1.148-2.56-2.56v-9.332h12.088
	c1.412,0,2.56,1.148,2.56,2.56v18.375c0,1.412-1.148,2.56-2.56,2.56H14.337c-0.199,0-0.39,0.079-0.531,0.22l-5.883,5.893v-5.363
	c0-0.415-0.336-0.75-0.75-0.75H4.06c-1.411,0-2.56-1.148-2.56-2.56V15.662c0-1.412,1.148-2.56,2.56-2.56h14.491
	c0.414,0,0.75-0.336,0.75-0.75c0-0.415-0.336-0.75-0.75-0.75H4.06c-2.238,0-4.06,1.821-4.06,4.06v18.375
	c0,2.239,1.821,4.06,4.06,4.06h2.364v6.426c0,0.303,0.183,0.577,0.463,0.693c0.093,0.039,0.19,0.057,0.287,0.057
	c0.195,0,0.387-0.077,0.531-0.221l6.944-6.955h19.665c2.239,0,4.06-1.821,4.06-4.06v-7.542h6.077l6.943,6.955
	c0.144,0.144,0.335,0.221,0.531,0.221c0.097,0,0.194-0.019,0.287-0.057c0.28-0.116,0.463-0.39,0.463-0.693v-6.426h2.364
	c2.238,0,4.06-1.821,4.06-4.06V4.06C59.098,1.821,57.276,0,55.038,0z M57.598,22.434c0,1.412-1.148,2.56-2.56,2.56h-3.114
	c-0.414,0-0.75,0.335-0.75,0.75v5.362l-5.882-5.893c-0.141-0.141-0.332-0.22-0.531-0.22h-6.388v-9.332c0-2.239-1.821-4.06-4.06-4.06
	H22.225V4.06c0-1.411,1.148-2.56,2.56-2.56h30.254c1.411,0,2.56,1.148,2.56,2.56V22.434z M16.16,25.141H7.446
	c-0.414,0-0.75,0.336-0.75,0.75s0.336,0.75,0.75,0.75h8.714c0.414,0,0.75-0.336,0.75-0.75S16.574,25.141,16.16,25.141z
	 M16.16,20.992H7.446c-0.414,0-0.75,0.335-0.75,0.75c0,0.414,0.336,0.75,0.75,0.75h8.714c0.414,0,0.75-0.336,0.75-0.75
	C16.91,21.328,16.574,20.992,16.16,20.992z M16.16,29.289H7.446c-0.414,0-0.75,0.336-0.75,0.75c0,0.415,0.336,0.75,0.75,0.75h8.714
	c0.414,0,0.75-0.335,0.75-0.75C16.91,29.625,16.574,29.289,16.16,29.289z M51.652,6.303h-8.714c-0.414,0-0.75,0.336-0.75,0.75
	c0,0.415,0.336,0.75,0.75,0.75h8.714c0.414,0,0.75-0.335,0.75-0.75C52.402,6.639,52.066,6.303,51.652,6.303z M51.652,11.291h-8.714
	c-0.414,0-0.75,0.335-0.75,0.75s0.336,0.75,0.75,0.75h8.714c0.414,0,0.75-0.335,0.75-0.75S52.066,11.291,51.652,11.291z"/>
</svg>
