<?xml version="1.0" encoding="utf-8"?>
<!-- Generator: Adobe Illustrator 17.0.0, SVG Export Plug-In . SVG Version: 6.00 Build 0)  -->
<!DOCTYPE svg PUBLIC "-//W3C//DTD SVG 1.1//EN" "http://www.w3.org/Graphics/SVG/1.1/DTD/svg11.dtd">
<svg version="1.1" id="Layer_1" xmlns="http://www.w3.org/2000/svg" xmlns:xlink="http://www.w3.org/1999/xlink" x="0px" y="0px"
	 width="62px" height="60px" viewBox="0 0 62 60" enable-background="new 0 0 62 60" xml:space="preserve">
<g>
	<g>
		<g>
			<path fill="#C6C8C9" d="M36.219,33.858h-9.984c-2.238,0-4.06-1.821-4.06-4.06V19.716c0-0.414,0.336-0.75,0.75-0.75
				s0.75,0.336,0.75,0.75v10.082c0,1.411,1.148,2.56,2.56,2.56h9.984c0.414,0,0.75,0.336,0.75,0.75S36.633,33.858,36.219,33.858z"/>
			<path fill="#C6C8C9" d="M53.375,41.034c-0.195,0-0.387-0.076-0.531-0.22l-6.944-6.956h-6.6c-0.414,0-0.75-0.336-0.75-0.75
				s0.336-0.75,0.75-0.75h6.911c0.199,0,0.39,0.079,0.531,0.22l5.883,5.894v-5.363c0-0.414,0.336-0.75,0.75-0.75h3.114
				c1.411,0,2.56-1.148,2.56-2.56V11.423c0-1.411-1.148-2.56-2.56-2.56H26.235c-1.411,0-2.56,1.148-2.56,2.56v8.293
				c0,0.414-0.336,0.75-0.75,0.75s-0.75-0.336-0.75-0.75v-8.293c0-2.238,1.821-4.06,4.06-4.06h30.254c2.238,0,4.06,1.821,4.06,4.06
				v18.375c0,2.238-1.821,4.06-4.06,4.06h-2.364v6.426c0,0.304-0.183,0.577-0.463,0.693C53.569,41.015,53.472,41.034,53.375,41.034z
				"/>
			<path fill="#C6C8C9" d="M8.624,52.636c-0.097,0-0.194-0.019-0.287-0.057c-0.28-0.116-0.463-0.39-0.463-0.693V45.46H5.511
				c-2.238,0-4.06-1.821-4.06-4.06V23.026c0-2.238,1.821-4.06,4.06-4.06h14.491c0.414,0,0.75,0.336,0.75,0.75s-0.336,0.75-0.75,0.75
				H5.511c-1.411,0-2.56,1.148-2.56,2.56v18.375c0,1.411,1.148,2.56,2.56,2.56h3.114c0.414,0,0.75,0.336,0.75,0.75v5.363
				l5.883-5.894c0.141-0.141,0.332-0.22,0.531-0.22h19.976c1.412,0,2.56-1.148,2.56-2.56V23.026c0-1.411-1.148-2.56-2.56-2.56
				H22.926c-0.414,0-0.75-0.336-0.75-0.75s0.336-0.75,0.75-0.75h12.838c2.239,0,4.06,1.821,4.06,4.06v18.375
				c0,2.238-1.821,4.06-4.06,4.06H16.099l-6.944,6.956C9.012,52.56,8.82,52.636,8.624,52.636z"/>
			<path fill="#C6C8C9" d="M17.611,34.004H8.897c-0.414,0-0.75-0.336-0.75-0.75s0.336-0.75,0.75-0.75h8.714
				c0.414,0,0.75,0.336,0.75,0.75S18.025,34.004,17.611,34.004z"/>
			<path fill="#C6C8C9" d="M17.611,29.856H8.897c-0.414,0-0.75-0.336-0.75-0.75s0.336-0.75,0.75-0.75h8.714
				c0.414,0,0.75,0.336,0.75,0.75S18.025,29.856,17.611,29.856z"/>
			<path fill="#C6C8C9" d="M17.611,38.154H8.897c-0.414,0-0.75-0.336-0.75-0.75s0.336-0.75,0.75-0.75h8.714
				c0.414,0,0.75,0.336,0.75,0.75S18.025,38.154,17.611,38.154z"/>
			<path fill="#C6C8C9" d="M53.103,15.167h-8.714c-0.414,0-0.75-0.336-0.75-0.75s0.336-0.75,0.75-0.75h8.714
				c0.414,0,0.75,0.336,0.75,0.75S53.517,15.167,53.103,15.167z"/>
			<path fill="#C6C8C9" d="M53.103,20.155h-8.714c-0.414,0-0.75-0.336-0.75-0.75s0.336-0.75,0.75-0.75h8.714
				c0.414,0,0.75,0.336,0.75,0.75S53.517,20.155,53.103,20.155z"/>
		</g>
	</g>
</g>
</svg>
