<?xml version="1.0" encoding="utf-8"?>
<!-- Generator: Adobe Illustrator 17.0.0, SVG Export Plug-In . SVG Version: 6.00 Build 0)  -->
<!DOCTYPE svg PUBLIC "-//W3C//DTD SVG 1.1//EN" "http://www.w3.org/Graphics/SVG/1.1/DTD/svg11.dtd">
<svg version="1.1" id="Layer_1" xmlns="http://www.w3.org/2000/svg" xmlns:xlink="http://www.w3.org/1999/xlink" x="0px" y="0px"
	 width="62px" height="62px" viewBox="0 0 62 62" enable-background="new 0 0 62 62" xml:space="preserve">
<g>
	<g>
		<path fill="#FFFFFF" d="M54.998,48H7.002C3.693,48,1,45.498,1,42.187v-29.99C1,8.885,3.693,6,7.002,6h47.995
			C58.307,6,61,8.885,61,12.196v29.99C61,45.498,58.307,48,54.998,48z M7.002,8C4.795,8,3,9.988,3,12.196v29.99
			C3,44.395,4.795,46,7.002,46h47.995C57.205,46,59,44.395,59,42.187v-29.99C59,9.988,57.205,8,54.998,8H7.002z"/>
		<path fill="#FFFFFF" d="M60,41H3c-0.552,0-1-0.447-1-1s0.448-1,1-1h57c0.552,0,1,0.447,1,1S60.552,41,60,41z"/>
		<path fill="#FFFFFF" d="M27,55.192c-0.552,0-1-0.447-1-1v-6c0-0.553,0.448-1,1-1c0.552,0,1,0.447,1,1v6
			C28,54.744,27.552,55.192,27,55.192z"/>
		<path fill="#FFFFFF" d="M35,55.192c-0.552,0-1-0.447-1-1v-6c0-0.553,0.448-1,1-1c0.552,0,1,0.447,1,1v6
			C36,54.744,35.552,55.192,35,55.192z"/>
		<path fill="#FFFFFF" d="M40,56H22c-0.552,0-1-0.447-1-1s0.448-1,1-1h18c0.552,0,1,0.447,1,1S40.552,56,40,56z"/>
	</g>
</g>
</svg>
