<?xml version="1.0" encoding="utf-8"?>
<!-- Generator: Adobe Illustrator 17.0.0, SVG Export Plug-In . SVG Version: 6.00 Build 0)  -->
<!DOCTYPE svg PUBLIC "-//W3C//DTD SVG 1.1//EN" "http://www.w3.org/Graphics/SVG/1.1/DTD/svg11.dtd">
<svg version="1.1" id="Layer_1" xmlns="http://www.w3.org/2000/svg" xmlns:xlink="http://www.w3.org/1999/xlink" x="0px" y="0px"
	 width="196.806px" height="98.459px" viewBox="0 0 196.806 98.459" enable-background="new 0 0 196.806 98.459"
	 xml:space="preserve">
<g>
	<g>
		<g>
			<g>
				<path d="M41.082,37.251H40.87c-0.209,0-0.707,0.076-0.849,0.782l-0.117,0.887l-0.143-0.113
					c-0.942-0.738-2.976-1.975-6.003-1.975c-3.315,0-7.475,1.422-8.468,8.199l-0.317,2.209h-2.689c-0.449,0-0.757,0.241-0.843,0.662
					l-0.036,0.18c-0.059,0.242-0.015,0.467,0.123,0.64c0.104,0.132,0.303,0.288,0.669,0.288h2.503l-0.016,0.12L20.85,76.646
					c-0.078,0.386,0.034,0.618,0.142,0.745l0.278,0.243h0.462c0.448,0,0.788-0.315,0.89-0.822l3.877-27.803h7.85
					c0.43,0,0.774-0.266,0.879-0.68l0.045-0.191c0.048-0.225-0.003-0.444-0.142-0.613c-0.149-0.182-0.386-0.285-0.655-0.285H26.77
					l0.298-2.065c0.642-4.424,2.831-6.575,6.69-6.575c3.047,0,4.927,1.522,5.776,2.43l0.034,0.037l-0.007,0.049l-3.597,25.582
					c-0.052,0.27,0,0.513,0.146,0.692c0.137,0.164,0.339,0.255,0.568,0.255h0.213c0.388,0,0.711-0.312,0.804-0.776l4.098-28.667
					c0.056-0.27,0.005-0.513-0.142-0.691C41.515,37.343,41.312,37.251,41.082,37.251z"/>
				<path d="M54.21,46.82c-6.109,0-10.715,5.324-10.715,12.385c0,5.407,3.126,8.901,7.962,8.901c2.809,0,5.975-1.431,7.011-2.457
					c0.231-0.229,0.285-0.582,0.137-0.878l-0.128-0.259c-0.187-0.363-0.471-0.417-0.624-0.417c-0.18,0-0.362,0.071-0.524,0.206
					c-0.623,0.479-2.876,2.036-5.87,2.036c-3.81,0-6.176-2.765-6.176-7.216c0-0.186,0.008-0.379,0.026-0.61l0.01-0.11l0.109,0.015
					c1.629,0.223,3.199,0.331,4.804,0.331c7.056,0,11.267-2.292,11.267-6.131C61.496,49.257,58.432,46.82,54.21,46.82z
					 M59.71,52.616c0,2.731-3.56,4.362-9.522,4.362c-1.251,0-2.781-0.112-4.551-0.333l-0.111-0.014l0.022-0.11
					c0.923-4.744,4.404-7.932,8.662-7.932C57.449,48.589,59.71,50.245,59.71,52.616z"/>
				<path d="M74.791,47.24H68.26l0.593-4.607c0.057-0.234,0.009-0.464-0.131-0.643c-0.145-0.184-0.37-0.29-0.619-0.29H67.89
					c-0.175,0-0.6,0.072-0.762,0.741L66.47,47.24h-1.46c-0.183,0-0.624,0.064-0.78,0.662l-0.059,0.151
					c-0.06,0.238-0.008,0.502,0.142,0.695l0.268,0.261h1.618l-0.016,0.12l-1.807,12.734c-0.266,1.851-0.393,3.912,0.69,5.151
					c0.635,0.725,1.628,1.093,2.951,1.093c2.331,0,5.062-1.392,5.666-1.766c0.202-0.133,0.343-0.33,0.384-0.537
					c0.031-0.157,0.004-0.311-0.079-0.433l-0.172-0.331c-0.213-0.312-0.5-0.36-0.651-0.36c-0.157,0-0.31,0.047-0.482,0.15
					c-0.74,0.49-2.862,1.507-4.665,1.507c-0.769,0-1.293-0.172-1.604-0.528c-0.631-0.717-0.474-2.273-0.258-3.805l1.842-12.996
					h6.668c0.411,0,0.77-0.28,0.874-0.681l0.053-0.158c0.048-0.233-0.006-0.468-0.152-0.647
					C75.288,47.341,75.057,47.24,74.791,47.24z"/>
				<path d="M94.008,49.499c-0.767-0.801-2.974-2.679-6.725-2.679c-5.6,0-11.393,4.476-11.393,11.966
					c0,5.227,3.74,9.321,8.514,9.321c4.329,0,7.583-3.147,7.941-3.505c0.148-0.148,0.229-0.348,0.229-0.565
					c0-0.221-0.082-0.429-0.227-0.57l-0.497-0.419h-0.216c-0.074,0-0.326,0.014-0.496,0.189l-0.164,0.145
					c-2.048,1.905-4.382,2.956-6.571,2.956c-3.71,0-6.728-3.388-6.728-7.552c0-6.298,4.987-10.197,9.606-10.197
					c3.025,0,4.685,1.6,5.23,2.127l0.121,0.116c0.322,0.318,0.851,0.336,1.151,0.043L94,50.664c0.289-0.291,0.333-0.678,0.115-1.036
					L94.008,49.499z"/>
				<path d="M106.347,46.82c-2.14,0-4.173,0.838-6.04,2.49l-0.214,0.19l1.633-11.303c0.051-0.254-0.004-0.49-0.153-0.673
					c-0.146-0.173-0.367-0.273-0.604-0.273h-0.168c-0.209,0-0.707,0.075-0.848,0.776l-4.143,28.672
					c-0.065,0.333,0.042,0.549,0.145,0.672c0.103,0.126,0.298,0.274,0.656,0.274h0.168c0.257,0,0.709-0.1,0.848-0.775l2.095-14.421
					l0.018-0.022c2.037-2.55,4.256-3.836,6.608-3.836c1.542,0,2.64,0.398,3.356,1.216c1.026,1.173,1.32,3.336,0.878,6.432
					l-1.517,10.457c-0.072,0.35,0.057,0.572,0.139,0.674c0.104,0.126,0.302,0.276,0.657,0.276h0.171
					c0.431,0,0.702-0.261,0.804-0.775l1.521-10.484c0.545-3.621,0.138-6.155-1.247-7.746
					C110.061,47.431,108.458,46.82,106.347,46.82z"/>
				<path d="M126.077,46.82c-6.109,0-10.715,5.324-10.715,12.385c0,5.407,3.126,8.901,7.962,8.901c2.809,0,5.976-1.431,7.011-2.457
					c0.231-0.229,0.285-0.582,0.137-0.878l-0.128-0.259c-0.187-0.363-0.471-0.417-0.624-0.417c-0.18,0-0.362,0.071-0.524,0.206
					c-0.623,0.479-2.876,2.036-5.87,2.036c-3.81,0-6.176-2.765-6.176-7.216c0-0.186,0.008-0.379,0.026-0.61l0.009-0.11l0.109,0.015
					c1.629,0.223,3.2,0.331,4.804,0.331c7.056,0,11.267-2.292,11.267-6.131C133.364,49.257,130.3,46.82,126.077,46.82z
					 M131.578,52.616c0,2.731-3.56,4.362-9.523,4.362c-1.252,0-2.782-0.112-4.55-0.333l-0.111-0.014l0.022-0.11
					c0.923-4.744,4.404-7.932,8.661-7.932C129.316,48.589,131.578,50.245,131.578,52.616z"/>
				<path d="M149.476,47.689c-0.658-0.402-1.642-0.869-3.352-0.869c-1.834,0-3.71,0.756-5.286,2.129l-0.204,0.177l0.108-0.937
					c0.055-0.277,0.001-0.524-0.149-0.705l-0.272-0.244h-0.505c-0.195,0-0.666,0.076-0.804,0.777l-2.661,18.681
					c-0.056,0.283-0.011,0.513,0.132,0.687c0.098,0.118,0.285,0.259,0.623,0.259h0.213c0.432,0,0.702-0.26,0.803-0.775l2.158-14.677
					c0.41-0.602,2.621-3.603,5.845-3.603c0.949,0,1.7,0.205,2.366,0.645c0.124,0.074,0.272,0.114,0.422,0.114
					c0.316,0,0.601-0.171,0.746-0.445c0.16-0.213,0.224-0.43,0.194-0.641C149.82,48.045,149.69,47.847,149.476,47.689z"/>
			</g>
		</g>
	</g>
	<g>
		<path fill="#B1141A" d="M174.739,42.855V24.268c0.717-0.225,1.241-0.888,1.241-1.678c0-0.974-0.792-1.766-1.766-1.766
			c-0.791,0-1.454,0.525-1.678,1.242h-18.586c-0.225-0.717-0.887-1.242-1.678-1.242c-0.974,0-1.766,0.793-1.766,1.766
			c0,0.68,0.391,1.266,0.957,1.561c-0.235,1.701-0.238,3.4-0.019,5.059l-12.344,3.887c-0.319-0.458-0.848-0.76-1.448-0.76
			c-0.975,0-1.767,0.793-1.767,1.766c0,0.974,0.792,1.766,1.767,1.766c0.618,0,1.16-0.32,1.476-0.802l16.261,4.612
			c0.024,0.938,0.78,1.693,1.717,1.717l4.615,16.226c-0.614,0.277-1.044,0.892-1.044,1.608c0,0.974,0.792,1.766,1.767,1.766
			c0.975,0,1.767-0.793,1.767-1.766c0-0.514-0.225-0.974-0.577-1.297l3.958-12.569c0.812,0.107,1.633,0.166,2.459,0.166
			c0.863,0,1.732-0.067,2.602-0.187c0.295,0.565,0.88,0.955,1.56,0.955c0.975,0,1.767-0.793,1.767-1.766
			C175.982,43.742,175.457,43.08,174.739,42.855z M174.215,45.25c-0.138,0-0.265-0.041-0.374-0.108
			c-0.205-0.126-0.344-0.351-0.344-0.61c0-0.158,0.053-0.302,0.139-0.421c0.017-0.023,0.035-0.045,0.055-0.066
			c0.131-0.141,0.317-0.231,0.524-0.231c0.207,0,0.393,0.09,0.524,0.231c0.119,0.128,0.194,0.298,0.194,0.487
			C174.933,44.929,174.611,45.25,174.215,45.25z M173.728,22.066c0.128-0.119,0.299-0.193,0.487-0.193
			c0.395,0,0.717,0.322,0.717,0.718c0,0.188-0.074,0.358-0.193,0.486c-0.049,0.053-0.107,0.098-0.17,0.134
			c-0.096,0.055-0.204,0.089-0.321,0.094c-0.011,0.001-0.022,0.003-0.034,0.003c-0.396,0-0.718-0.322-0.718-0.718
			c0-0.006,0.002-0.012,0.002-0.019c0.003-0.122,0.038-0.236,0.096-0.336C173.63,22.173,173.675,22.116,173.728,22.066z
			 M158.165,38.191c-0.287-0.202-0.636-0.323-1.013-0.323c-0.267,0-0.517,0.064-0.744,0.17c-1.96-2.362-3.246-5.146-3.786-8.098
			l19.749-6.219L158.165,38.191z M156.436,39.65c0-0.005-0.002-0.011-0.002-0.016c0-0.279,0.161-0.518,0.394-0.637
			c0.098-0.05,0.206-0.081,0.323-0.081c0.013,0,0.025,0.003,0.038,0.004c0.076,0.004,0.148,0.019,0.216,0.045
			c0.26,0.099,0.446,0.343,0.461,0.633c0.001,0.012,0.004,0.024,0.004,0.036c0,0.117-0.031,0.227-0.081,0.325
			c-0.119,0.232-0.358,0.394-0.637,0.394c-0.007,0-0.014-0.002-0.022-0.002c-0.128-0.004-0.247-0.042-0.35-0.105
			c-0.093-0.057-0.172-0.133-0.231-0.225c-0.003-0.004-0.005-0.01-0.008-0.014C156.478,39.901,156.439,39.78,156.436,39.65z
			 M158.806,39.034l14.251-14.516l-6.192,19.666c-2.96-0.541-5.753-1.833-8.119-3.803c0.107-0.228,0.172-0.479,0.172-0.747
			C158.918,39.422,158.875,39.222,158.806,39.034z M151.555,22.591c0-0.396,0.322-0.718,0.717-0.718
			c0.188,0,0.359,0.074,0.487,0.193c0.141,0.131,0.231,0.317,0.231,0.524c0,0.208-0.09,0.393-0.231,0.524
			c-0.021,0.02-0.044,0.038-0.067,0.055c-0.118,0.086-0.263,0.138-0.42,0.138c-0.257,0-0.481-0.137-0.608-0.341
			C151.597,22.857,151.555,22.729,151.555,22.591z M152.496,24.334c0.691-0.088,1.252-0.572,1.455-1.219h16.853l-18.342,5.775
			C152.28,27.394,152.288,25.865,152.496,24.334z M137.653,34.821c-0.396,0-0.718-0.322-0.718-0.717
			c0-0.396,0.322-0.718,0.718-0.718c0.11,0,0.213,0.027,0.306,0.071c0.242,0.115,0.411,0.36,0.411,0.646
			c0,0.279-0.161,0.518-0.394,0.637C137.878,34.79,137.77,34.821,137.653,34.821z M151.613,30.257
			c0.579,3.047,1.911,5.921,3.923,8.373l-16.054-4.553L151.613,30.257z M161.727,59.23c0-0.235,0.115-0.441,0.29-0.572
			c0.12-0.09,0.267-0.145,0.429-0.145c0.396,0,0.718,0.322,0.718,0.718c0,0.083-0.017,0.162-0.043,0.237
			c-0.098,0.279-0.362,0.481-0.675,0.481C162.049,59.948,161.727,59.626,161.727,59.23z M162.728,57.326l-4.567-16.057
			c2.454,2.017,5.335,3.349,8.386,3.929L162.728,57.326z M167.915,44.343l5.775-18.342v16.854c-0.648,0.203-1.131,0.764-1.22,1.454
			C170.941,44.516,169.412,44.524,167.915,44.343z"/>
	</g>
</g>
</svg>
