<?xml version="1.0" encoding="utf-8"?>
<!-- Generator: Adobe Illustrator 17.0.0, SVG Export Plug-In . SVG Version: 6.00 Build 0)  -->
<!DOCTYPE svg PUBLIC "-//W3C//DTD SVG 1.1//EN" "http://www.w3.org/Graphics/SVG/1.1/DTD/svg11.dtd">
<svg version="1.1" id="Layer_1" xmlns="http://www.w3.org/2000/svg" xmlns:xlink="http://www.w3.org/1999/xlink" x="0px" y="0px"
	 width="7px" height="18px" viewBox="0 0 7 18" enable-background="new 0 0 7 18" xml:space="preserve">
<g>
	<path fill="#B8141A" d="M3.547,17.382c-1.612,0-2.917-1.287-2.935-2.884L0.638,7.22c0.001-0.331,0.27-0.598,0.6-0.598
		c0,0,0.001,0,0.002,0c0.332,0.001,0.599,0.271,0.598,0.602l-0.026,7.268c0.005,0.446,0.189,0.874,0.52,1.197
		c0.33,0.323,0.769,0.498,1.217,0.493c0.463-0.021,0.888-0.206,1.211-0.535c0.319-0.326,0.492-0.753,0.487-1.201L5.24,3.536
		C5.23,2.572,4.467,1.818,3.499,1.818c-0.007,0-0.014,0-0.021,0C3.019,1.823,2.572,2.015,2.251,2.343
		C1.903,2.699,1.749,3.036,1.754,3.435C1.757,3.766,1.491,4.038,1.16,4.042C0.855,4.038,0.558,3.779,0.553,3.448
		c-0.008-0.723,0.267-1.359,0.84-1.944C1.935,0.95,2.69,0.627,3.465,0.618c0.8,0,1.533,0.289,2.094,0.836
		c0.56,0.548,0.874,1.285,0.882,2.074l0.006,10.909c0.008,0.762-0.286,1.492-0.83,2.048c-0.533,0.543-1.255,0.861-2.036,0.896
		C3.57,17.382,3.558,17.382,3.547,17.382z"/>
	<path fill="#B8141A" d="M3.629,14.799c-0.331,0-0.599-0.268-0.6-0.599L3.013,7.209C3.01,6.887,2.752,6.634,2.426,6.634
		c-0.002,0-0.005,0-0.007,0C2.264,6.635,2.114,6.699,2.005,6.81c-0.105,0.108-0.168,0.26-0.167,0.405
		c0.003,0.332-0.262,0.603-0.593,0.607c-0.002,0-0.005,0-0.007,0c-0.328,0-0.596-0.264-0.6-0.593
		c-0.005-0.463,0.18-0.921,0.509-1.258c0.33-0.337,0.789-0.533,1.259-0.538c0.006,0,0.013,0,0.02,0c0.976,0,1.776,0.789,1.788,1.767
		l0.015,6.997c0,0.332-0.268,0.601-0.599,0.602C3.63,14.799,3.629,14.799,3.629,14.799z"/>
</g>
</svg>
