<?xml version="1.0" encoding="UTF-8" standalone="no"?>
<!-- Created with Inkscape (http://www.inkscape.org/) -->

<svg
   xmlns:dc="http://purl.org/dc/elements/1.1/"
   xmlns:cc="http://creativecommons.org/ns#"
   xmlns:rdf="http://www.w3.org/1999/02/22-rdf-syntax-ns#"
   xmlns:svg="http://www.w3.org/2000/svg"
   xmlns="http://www.w3.org/2000/svg"
   xmlns:sodipodi="http://sodipodi.sourceforge.net/DTD/sodipodi-0.dtd"
   xmlns:inkscape="http://www.inkscape.org/namespaces/inkscape"
   width="4.0640001mm"
   height="3.339606mm"
   viewBox="0 0 14.4 11.83325"
   id="svg2"
   version="1.1"
   inkscape:version="0.91 r13725"
   sodipodi:docname="icon-review-black.svg">
  <defs
     id="defs4" />
  <sodipodi:namedview
     id="base"
     pagecolor="#ffffff"
     bordercolor="#666666"
     borderopacity="1.0"
     inkscape:pageopacity="0.0"
     inkscape:pageshadow="2"
     inkscape:zoom="22.4"
     inkscape:cx="12.049845"
     inkscape:cy="9.8706115"
     inkscape:document-units="px"
     inkscape:current-layer="layer1"
     showgrid="false"
     fit-margin-top="0"
     fit-margin-left="0"
     fit-margin-right="0"
     fit-margin-bottom="0"
     inkscape:window-width="1920"
     inkscape:window-height="1016"
     inkscape:window-x="0"
     inkscape:window-y="27"
     inkscape:window-maximized="1" />
  <metadata
     id="metadata7">
    <rdf:RDF>
      <cc:Work
         rdf:about="">
        <dc:format>image/svg+xml</dc:format>
        <dc:type
           rdf:resource="http://purl.org/dc/dcmitype/StillImage" />
        <dc:title></dc:title>
      </cc:Work>
    </rdf:RDF>
  </metadata>
  <g
     inkscape:label="Layer 1"
     inkscape:groupmode="layer"
     id="layer1"
     transform="translate(-490.8052,-647.43532)">
    <g
       id="g3377"
       transform="translate(490.0052,646.85157)">
      <g
         id="g3379"
         style="fill:#000000">
        <path
           id="path3381"
           d="m 9.283,12.417 c -0.128,0 -0.256,-0.049 -0.354,-0.146 -0.195,-0.195 -0.195,-0.512 0,-0.707 L 13.993,6.5 8.93,1.437 C 8.735,1.242 8.735,0.925 8.93,0.73 9.125,0.535 9.442,0.535 9.637,0.73 l 5.417,5.417 C 15.148,6.24 15.2,6.367 15.2,6.5 c 0,0.133 -0.053,0.26 -0.146,0.354 L 9.637,12.27 c -0.098,0.098 -0.226,0.147 -0.354,0.147 z"
           inkscape:connector-curvature="0"
           style="fill:#000000" />
        <path
           id="path3383"
           d="M 14.7,7 1.3,7 C 1.023,7 0.8,6.777 0.8,6.5 0.8,6.223 1.023,6 1.3,6 l 13.4,0 c 0.276,0 0.5,0.224 0.5,0.5 0,0.276 -0.223,0.5 -0.5,0.5 z"
           inkscape:connector-curvature="0"
           style="fill:#000000" />
      </g>
    </g>
  </g>
</svg>
