<?xml version="1.0" encoding="utf-8"?>
<!-- Generator: Adobe Illustrator 17.0.0, SVG Export Plug-In . SVG Version: 6.00 Build 0)  -->
<!DOCTYPE svg PUBLIC "-//W3C//DTD SVG 1.1//EN" "http://www.w3.org/Graphics/SVG/1.1/DTD/svg11.dtd">
<svg version="1.1" id="Layer_1" xmlns="http://www.w3.org/2000/svg" xmlns:xlink="http://www.w3.org/1999/xlink" x="0px" y="0px"
	 width="27px" height="27px" viewBox="0 0 27 27" enable-background="new 0 0 27 27" xml:space="preserve">
<g>
	<path fill="#318EAF" d="M21.081,6.728h-4.987c-0.234-1.22-1.307-2.145-2.594-2.145s-2.359,0.925-2.594,2.145H5.919
		c-0.276,0-0.5,0.224-0.5,0.5s0.224,0.5,0.5,0.5h1.289v12.567c0,1.042,0.793,2.121,2.121,2.121h8.404
		c0.859,0,2.059-0.807,2.059-2.121V7.728h1.289c0.276,0,0.5-0.224,0.5-0.5S21.357,6.728,21.081,6.728z M13.5,5.583
		c0.731,0,1.346,0.483,1.559,1.145h-3.117C12.154,6.066,12.768,5.583,13.5,5.583z M18.792,20.296c0,0.726-0.699,1.121-1.059,1.121
		H9.329c-0.817,0-1.121-0.688-1.121-1.121V7.728h10.584V20.296z M10.604,19.499c0.276,0,0.5-0.224,0.5-0.5V9.871
		c0-0.276-0.224-0.5-0.5-0.5s-0.5,0.224-0.5,0.5v9.127C10.104,19.275,10.328,19.499,10.604,19.499z M13.5,19.499
		c0.276,0,0.5-0.224,0.5-0.5V9.871c0-0.276-0.224-0.5-0.5-0.5S13,9.595,13,9.871v9.127C13,19.275,13.224,19.499,13.5,19.499z
		 M16.396,19.499c0.276,0,0.5-0.224,0.5-0.5V9.871c0-0.276-0.224-0.5-0.5-0.5c-0.276,0-0.5,0.224-0.5,0.5v9.127
		C15.896,19.275,16.12,19.499,16.396,19.499z"/>
	<rect fill="none" width="27" height="27"/>
</g>
</svg>
