<?xml version="1.0" encoding="utf-8"?>
<!-- Generator: Adobe Illustrator 17.0.0, SVG Export Plug-In . SVG Version: 6.00 Build 0)  -->
<!DOCTYPE svg PUBLIC "-//W3C//DTD SVG 1.1//EN" "http://www.w3.org/Graphics/SVG/1.1/DTD/svg11.dtd">
<svg version="1.1" id="Layer_1" xmlns="http://www.w3.org/2000/svg" xmlns:xlink="http://www.w3.org/1999/xlink" x="0px" y="0px"
	 width="10px" height="10px" viewBox="0 0 10 10" enable-background="new 0 0 10 10" xml:space="preserve">
<g>
	<polygon fill="#B8141A" points="2.507,8.475 0.985,9.016 1.525,7.493 8.033,0.985 9.016,1.968 	"/>
	<path fill="#B8141A" d="M0.984,9.39c-0.098,0-0.194-0.038-0.265-0.11C0.617,9.178,0.583,9.026,0.631,8.89l0.541-1.522
		C1.19,7.315,1.22,7.267,1.26,7.227l6.508-6.508c0.146-0.146,0.384-0.146,0.53,0l0.982,0.982c0.07,0.07,0.11,0.166,0.11,0.266
		s-0.04,0.195-0.11,0.266L2.773,8.741C2.733,8.78,2.685,8.81,2.633,8.829L1.11,9.369C1.069,9.384,1.026,9.39,0.984,9.39z
		 M1.85,7.698L1.601,8.399L2.302,8.15l6.183-6.183L8.033,1.515L1.85,7.698z"/>
</g>
</svg>
