<?xml version="1.0" encoding="utf-8"?>
<!-- Generator: Adobe Illustrator 17.0.0, SVG Export Plug-In . SVG Version: 6.00 Build 0)  -->
<!DOCTYPE svg PUBLIC "-//W3C//DTD SVG 1.1//EN" "http://www.w3.org/Graphics/SVG/1.1/DTD/svg11.dtd">
<svg version="1.1" id="Layer_1" xmlns="http://www.w3.org/2000/svg" xmlns:xlink="http://www.w3.org/1999/xlink" x="0px" y="0px"
	 width="17px" height="17px" viewBox="0 0 17 17" enable-background="new 0 0 17 17" xml:space="preserve">
<g>
	<defs>
		<path id="SVGID_55_" d="M-19.827,545.677c0,9.136,7.407,16.542,16.542,16.542c9.136,0,16.543-7.406,16.543-16.542
			s-7.407-16.542-16.543-16.542C-12.42,529.135-19.827,536.541-19.827,545.677"/>
	</defs>
	<clipPath id="SVGID_2_">
		<use xlink:href="#SVGID_55_"  overflow="visible"/>
	</clipPath>
	<g clip-path="url(#SVGID_2_)">
		<defs>
			<rect id="SVGID_57_" x="-961.379" y="-68.679" width="1600" height="2259"/>
		</defs>
		<clipPath id="SVGID_4_">
			<use xlink:href="#SVGID_57_"  overflow="visible"/>
		</clipPath>
	</g>
</g>
<g>
	<defs>
		<path id="SVGID_65_" d="M316.156,545.677c0,9.136,7.407,16.542,16.542,16.542c9.136,0,16.543-7.406,16.543-16.542
			s-7.407-16.542-16.543-16.542C323.563,529.135,316.156,536.541,316.156,545.677"/>
	</defs>
	<clipPath id="SVGID_6_">
		<use xlink:href="#SVGID_65_"  overflow="visible"/>
	</clipPath>
	<g clip-path="url(#SVGID_6_)">
		<defs>
			<rect id="SVGID_67_" x="-625.396" y="-68.679" width="1600" height="2259"/>
		</defs>
		<clipPath id="SVGID_8_">
			<use xlink:href="#SVGID_67_"  overflow="visible"/>
		</clipPath>
	</g>
</g>
<g>
	<polygon fill="#3C3C3B" points="10.914,14.034 5.379,8.5 10.914,2.966 11.621,3.673 6.793,8.5 11.621,13.327 	"/>
</g>
<rect x="0" y="0" fill="none" width="17" height="17"/>
</svg>
