<?xml version="1.0" encoding="utf-8"?>
<!-- Generator: Adobe Illustrator 19.1.0, SVG Export Plug-In . SVG Version: 6.00 Build 0)  -->
<!DOCTYPE svg PUBLIC "-//W3C//DTD SVG 1.1//EN" "http://www.w3.org/Graphics/SVG/1.1/DTD/svg11.dtd">
<svg version="1.1" id="Layer_1" xmlns="http://www.w3.org/2000/svg" xmlns:xlink="http://www.w3.org/1999/xlink" x="0px" y="0px"
	 viewBox="-470 272 18 18" style="enable-background:new -470 272 18 18;" xml:space="preserve">
<style type="text/css">
	.st0{fill:#FFFFFF;}
</style>
<path class="st0" d="M-454.9,278.3l-3.3-3.6c-0.1-0.1-0.2-0.2-0.4-0.2h-5.2c-1,0-1.8,0.8-1.8,1.8v2.3c0,0.3,0.2,0.5,0.5,0.5
	s0.5-0.2,0.5-0.5v-2.3c0-0.4,0.3-0.8,0.8-0.8h4.4v2.9c0,0.3,0.2,0.5,0.5,0.5h3.1v6.6c0,0.4-0.3,0.8-0.8,0.8h-7.2
	c-0.3,0-0.6-0.2-0.7-0.5c-0.1-0.3-0.4-0.4-0.7-0.3s-0.4,0.4-0.3,0.7c0.3,0.7,0.9,1.1,1.6,1.1h7.2c1,0,1.8-0.8,1.8-1.8v-7
	C-454.8,278.5-454.9,278.4-454.9,278.3z M-458.4,278v-2l1.8,2L-458.4,278L-458.4,278z M-456.7,282.8c0.2-0.2,0.2-0.5,0-0.7
	c-0.1-0.1-2.3-2.5-5.2-2.5c-2.8,0-5.1,2.4-5.2,2.5c-0.2,0.2-0.2,0.5,0,0.7c0.1,0.1,2.3,2.5,5.2,2.5
	C-459,285.4-456.8,282.9-456.7,282.8z M-461.9,280.6c0.6,0,1.1,0.5,1.1,1.1c0,0.6-0.5,1.1-1.1,1.1s-1.1-0.5-1.1-1.1
	C-462.9,281.1-462.5,280.6-461.9,280.6z M-463.8,281.1c-0.1,0.2-0.1,0.4-0.1,0.6c0,1.1,0.9,2.1,2.1,2.1c1.1,0,2.1-0.9,2.1-2.1
	c0-0.2,0-0.4-0.1-0.6c0.9,0.4,1.7,1,2.1,1.4c-0.7,0.6-2.3,1.9-4.1,1.9c-1.8,0-3.4-1.2-4.1-1.9C-465.6,282.1-464.8,281.5-463.8,281.1
	z"/>
</svg>
