<?xml version="1.0" encoding="utf-8"?>
<!-- Generator: Adobe Illustrator 17.0.0, SVG Export Plug-In . SVG Version: 6.00 Build 0)  -->
<!DOCTYPE svg PUBLIC "-//W3C//DTD SVG 1.1//EN" "http://www.w3.org/Graphics/SVG/1.1/DTD/svg11.dtd">
<svg version="1.1" id="Layer_1" xmlns="http://www.w3.org/2000/svg" xmlns:xlink="http://www.w3.org/1999/xlink" x="0px" y="0px"
	 width="24px" height="22px" viewBox="0 0 24 22" enable-background="new 0 0 24 22" xml:space="preserve">
<g>
	<g>
		<circle fill="#FFFFFF" cx="5.34" cy="5.534" r="1.321"/>
		<path fill="#B8141A" d="M5.34,7.356c-1.004,0-1.821-0.817-1.821-1.821S4.335,3.713,5.34,3.713s1.822,0.817,1.822,1.821
			S6.344,7.356,5.34,7.356z M5.34,4.713c-0.453,0-0.821,0.368-0.821,0.821S4.887,6.356,5.34,6.356c0.453,0,0.822-0.368,0.822-0.821
			S5.793,4.713,5.34,4.713z"/>
	</g>
	<path fill="#B8141A" d="M19.982,6.035H8.93c-0.276,0-0.5-0.224-0.5-0.5s0.224-0.5,0.5-0.5h11.052c0.276,0,0.5,0.224,0.5,0.5
		S20.258,6.035,19.982,6.035z"/>
	<g>
		<circle fill="#FFFFFF" cx="5.34" cy="11" r="1.321"/>
		<path fill="#B8141A" d="M5.34,12.821c-1.004,0-1.821-0.817-1.821-1.821S4.335,9.178,5.34,9.178S7.161,9.996,7.161,11
			S6.344,12.821,5.34,12.821z M5.34,10.178c-0.453,0-0.821,0.368-0.821,0.821s0.369,0.821,0.821,0.821
			c0.453,0,0.822-0.368,0.822-0.821S5.793,10.178,5.34,10.178z"/>
	</g>
	<path fill="#B8141A" d="M19.982,11.5H8.93c-0.276,0-0.5-0.224-0.5-0.5s0.224-0.5,0.5-0.5h11.052c0.276,0,0.5,0.224,0.5,0.5
		S20.258,11.5,19.982,11.5z"/>
	<g>
		<circle fill="#FFFFFF" cx="5.34" cy="16.465" r="1.321"/>
		<path fill="#B8141A" d="M5.34,18.287c-1.004,0-1.821-0.817-1.821-1.821s0.817-1.821,1.821-1.821s1.822,0.817,1.822,1.821
			S6.344,18.287,5.34,18.287z M5.34,15.644c-0.453,0-0.821,0.368-0.821,0.821s0.369,0.821,0.821,0.821
			c0.453,0,0.822-0.368,0.822-0.821S5.793,15.644,5.34,15.644z"/>
	</g>
	<path fill="#B8141A" d="M19.982,16.965H8.93c-0.276,0-0.5-0.224-0.5-0.5s0.224-0.5,0.5-0.5h11.052c0.276,0,0.5,0.224,0.5,0.5
		S20.258,16.965,19.982,16.965z"/>
</g>
</svg>
