<?xml version="1.0" encoding="utf-8"?>
<!-- Generator: Adobe Illustrator 17.0.0, SVG Export Plug-In . SVG Version: 6.00 Build 0)  -->
<!DOCTYPE svg PUBLIC "-//W3C//DTD SVG 1.1//EN" "http://www.w3.org/Graphics/SVG/1.1/DTD/svg11.dtd">
<svg version="1.1" id="Layer_1" xmlns="http://www.w3.org/2000/svg" xmlns:xlink="http://www.w3.org/1999/xlink" x="0px" y="0px"
	 width="24px" height="22px" viewBox="0 0 24 22" enable-background="new 0 0 24 22" xml:space="preserve">
<g>
	<g>
		<path fill="#FFFFFF" d="M17.151,16.678v1.71c0,1.132-0.926,2.058-2.058,2.058H3.531c-1.132,0-2.058-0.926-2.058-2.058V3.612
			c0-1.132,0.926-2.058,2.058-2.058h11.563c1.132,0,2.058,0.926,2.058,2.058v2.691"/>
		<path fill="#B8141A" d="M15.094,20.945H3.531c-1.41,0-2.558-1.147-2.558-2.558V3.612c0-1.41,1.147-2.558,2.558-2.558h11.562
			c1.41,0,2.558,1.147,2.558,2.558v2.69c0,0.276-0.224,0.5-0.5,0.5s-0.5-0.224-0.5-0.5v-2.69c0-0.859-0.699-1.558-1.558-1.558H3.531
			c-0.859,0-1.558,0.699-1.558,1.558v14.775c0,0.858,0.699,1.558,1.558,1.558h11.562c0.859,0,1.558-0.699,1.558-1.558v-1.71
			c0-0.276,0.224-0.5,0.5-0.5s0.5,0.224,0.5,0.5v1.71C17.651,19.798,16.504,20.945,15.094,20.945z"/>
	</g>
	<g>
		<line fill="#FFFFFF" x1="5.059" y1="6.282" x2="13.565" y2="6.282"/>
		<path fill="#B8141A" d="M13.565,6.782H5.059c-0.276,0-0.5-0.224-0.5-0.5s0.224-0.5,0.5-0.5h8.506c0.276,0,0.5,0.224,0.5,0.5
			S13.842,6.782,13.565,6.782z"/>
	</g>
	<g>
		<line fill="#FFFFFF" x1="5.059" y1="15.516" x2="8.42" y2="15.516"/>
		<path fill="#B8141A" d="M8.42,16.016H5.059c-0.276,0-0.5-0.224-0.5-0.5s0.224-0.5,0.5-0.5H8.42c0.276,0,0.5,0.224,0.5,0.5
			S8.697,16.016,8.42,16.016z"/>
	</g>
	<g>
		<polygon fill="#FFFFFF" points="12.683,16.465 10.379,17.282 11.197,14.979 21.041,5.136 22.527,6.622 		"/>
		<path fill="#B8141A" d="M10.379,17.782c-0.13,0-0.258-0.051-0.354-0.146c-0.136-0.136-0.182-0.339-0.118-0.521l0.817-2.304
			c0.025-0.07,0.065-0.134,0.118-0.187l9.844-9.843c0.094-0.094,0.221-0.146,0.354-0.146l0,0c0.133,0,0.26,0.053,0.354,0.146
			l1.486,1.486c0.195,0.195,0.195,0.512,0,0.707l-9.844,9.843c-0.053,0.053-0.116,0.093-0.187,0.118l-2.303,0.817
			C10.492,17.773,10.435,17.782,10.379,17.782z M11.63,15.252l-0.429,1.208l1.208-0.429l9.411-9.409l-0.779-0.779L11.63,15.252z"/>
	</g>
	<g>
		<line fill="#FFFFFF" x1="5.059" y1="10.899" x2="11.85" y2="10.899"/>
		<path fill="#B8141A" d="M11.85,11.399H5.059c-0.276,0-0.5-0.224-0.5-0.5s0.224-0.5,0.5-0.5h6.791c0.276,0,0.5,0.224,0.5,0.5
			S12.126,11.399,11.85,11.399z"/>
	</g>
</g>
</svg>
