<?xml version="1.0" encoding="utf-8"?>
<!-- Generator: Adobe Illustrator 17.0.0, SVG Export Plug-In . SVG Version: 6.00 Build 0)  -->
<!DOCTYPE svg PUBLIC "-//W3C//DTD SVG 1.1//EN" "http://www.w3.org/Graphics/SVG/1.1/DTD/svg11.dtd">
<svg version="1.1" id="Layer_1" xmlns="http://www.w3.org/2000/svg" xmlns:xlink="http://www.w3.org/1999/xlink" x="0px" y="0px"
	 width="18px" height="18px" viewBox="0 0 18 18" enable-background="new 0 0 18 18" xml:space="preserve">
<path fill="#318EAF" d="M15.052,6.302l-3.285-3.551c-0.094-0.102-0.228-0.16-0.367-0.16H6.205c-0.977,0-1.771,0.795-1.771,1.772
	v2.338c0,0.276,0.224,0.5,0.5,0.5c0.276,0,0.5-0.224,0.5-0.5V4.363c0-0.426,0.346-0.772,0.771-0.772h4.429v2.945
	c0,0.276,0.224,0.5,0.5,0.5h3.051v6.602c0,0.426-0.346,0.771-0.772,0.771H6.205c-0.31,0-0.589-0.185-0.71-0.47
	c-0.108-0.253-0.402-0.372-0.656-0.264s-0.372,0.401-0.264,0.656c0.279,0.654,0.918,1.077,1.63,1.077h7.208
	c0.977,0,1.772-0.795,1.772-1.771V6.642C15.185,6.516,15.138,6.395,15.052,6.302z M11.634,6.036V4.08l1.81,1.957H11.634z
	 M13.28,10.827c0.173-0.19,0.173-0.481,0-0.672c-0.094-0.104-2.329-2.529-5.167-2.529c-2.838,0-5.074,2.426-5.168,2.529
	c-0.173,0.19-0.173,0.481,0,0.672c0.094,0.104,2.33,2.53,5.168,2.53C10.951,13.357,13.186,10.931,13.28,10.827z M8.113,8.626
	c0.581,0,1.053,0.473,1.053,1.053c0,0.581-0.472,1.054-1.053,1.054c-0.581,0-1.054-0.473-1.054-1.054
	C7.059,9.099,7.532,8.626,8.113,8.626z M6.161,9.073C6.1,9.266,6.059,9.466,6.059,9.679c0,1.133,0.921,2.054,2.054,2.054
	c1.132,0,2.053-0.921,2.053-2.054c0-0.211-0.042-0.412-0.101-0.604c0.948,0.42,1.714,1.037,2.13,1.417
	c-0.675,0.617-2.266,1.865-4.082,1.865c-1.81,0-3.406-1.25-4.083-1.867C4.446,10.11,5.211,9.493,6.161,9.073z"/>
</svg>
