<?xml version="1.0" encoding="utf-8"?>
<!-- Generator: Adobe Illustrator 19.1.0, SVG Export Plug-In . SVG Version: 6.00 Build 0)  -->
<!DOCTYPE svg PUBLIC "-//W3C//DTD SVG 1.1//EN" "http://www.w3.org/Graphics/SVG/1.1/DTD/svg11.dtd">
<svg version="1.1" id="Layer_1" xmlns="http://www.w3.org/2000/svg" xmlns:xlink="http://www.w3.org/1999/xlink" x="0px" y="0px"
	 viewBox="-463.5 273.7 17 14.6" style="enable-background:new -463.5 273.7 17 14.6;" xml:space="preserve">
<style type="text/css">
	.st0{fill:#FFFFFF;}
	.st1{fill:#B8141A;}
</style>
<g>
	<g>
		<circle class="st0" cx="-461.7" cy="275.5" r="1.3"/>
		<path class="st1" d="M-461.7,277.4c-1,0-1.8-0.8-1.8-1.8s0.8-1.8,1.8-1.8c1,0,1.8,0.8,1.8,1.8
			C-459.8,276.5-460.7,277.4-461.7,277.4z M-461.7,274.7c-0.5,0-0.8,0.4-0.8,0.8c0,0.5,0.4,0.8,0.8,0.8c0.5,0,0.8-0.4,0.8-0.8
			S-461.2,274.7-461.7,274.7z"/>
	</g>
	<path class="st1" d="M-447,276h-11.1c-0.3,0-0.5-0.2-0.5-0.5s0.2-0.5,0.5-0.5h11.1c0.3,0,0.5,0.2,0.5,0.5S-446.7,276-447,276z"/>
	<g>
		<circle class="st0" cx="-461.7" cy="281" r="1.3"/>
		<path class="st1" d="M-461.7,282.8c-1,0-1.8-0.8-1.8-1.8s0.8-1.8,1.8-1.8c1,0,1.8,0.8,1.8,1.8S-460.7,282.8-461.7,282.8z
			 M-461.7,280.2c-0.5,0-0.8,0.4-0.8,0.8s0.4,0.8,0.8,0.8c0.5,0,0.8-0.4,0.8-0.8S-461.2,280.2-461.7,280.2z"/>
	</g>
	<path class="st1" d="M-447,281.5h-11.1c-0.3,0-0.5-0.2-0.5-0.5s0.2-0.5,0.5-0.5h11.1c0.3,0,0.5,0.2,0.5,0.5S-446.7,281.5-447,281.5
		z"/>
	<g>
		<circle class="st0" cx="-461.7" cy="286.5" r="1.3"/>
		<path class="st1" d="M-461.7,288.3c-1,0-1.8-0.8-1.8-1.8s0.8-1.8,1.8-1.8c1,0,1.8,0.8,1.8,1.8S-460.7,288.3-461.7,288.3z
			 M-461.7,285.6c-0.5,0-0.8,0.4-0.8,0.8c0,0.5,0.4,0.8,0.8,0.8c0.5,0,0.8-0.4,0.8-0.8C-460.8,286-461.2,285.6-461.7,285.6z"/>
	</g>
	<path class="st1" d="M-447,287h-11.1c-0.3,0-0.5-0.2-0.5-0.5c0-0.3,0.2-0.5,0.5-0.5h11.1c0.3,0,0.5,0.2,0.5,0.5
		C-446.5,286.7-446.7,287-447,287z"/>
</g>
</svg>
