<?xml version="1.0" encoding="utf-8"?>
<!-- Generator: Adobe Illustrator 19.1.0, SVG Export Plug-In . SVG Version: 6.00 Build 0)  -->
<!DOCTYPE svg PUBLIC "-//W3C//DTD SVG 1.1//EN" "http://www.w3.org/Graphics/SVG/1.1/DTD/svg11.dtd">
<svg version="1.1" id="Layer_1" xmlns="http://www.w3.org/2000/svg" xmlns:xlink="http://www.w3.org/1999/xlink" x="0px" y="0px"
	 viewBox="-468 275 11 11" style="enable-background:new -468 275 11 11;" xml:space="preserve">
<style type="text/css">
	.st0{fill:#BCBBDA;}
</style>
<g>
	<g>
		<path class="st0" d="M-462.5,286c-3,0-5.5-2.5-5.5-5.5s2.5-5.5,5.5-5.5s5.5,2.5,5.5,5.5S-459.5,286-462.5,286z M-462.5,276
			c-2.5,0-4.5,2-4.5,4.5s2,4.5,4.5,4.5s4.5-2,4.5-4.5S-460,276-462.5,276z"/>
	</g>
	<g>
		<path class="st0" d="M-463.1,281.5v-0.2c0-0.3,0-0.5,0.1-0.6c0.1-0.2,0.3-0.3,0.5-0.5c0.3-0.2,0.4-0.4,0.5-0.5
			c0.1-0.1,0.1-0.3,0.1-0.4c0-0.2-0.1-0.3-0.2-0.4s-0.3-0.2-0.6-0.2c-0.2,0-0.4,0-0.6,0.1c-0.2,0.1-0.4,0.1-0.5,0.2l-0.3-0.6
			c0.5-0.3,1-0.4,1.5-0.4c0.4,0,0.8,0.1,1.1,0.3s0.4,0.5,0.4,0.9c0,0.2,0,0.3-0.1,0.5c0,0.1-0.1,0.3-0.2,0.4
			c-0.1,0.1-0.3,0.3-0.5,0.5c-0.2,0.2-0.4,0.3-0.4,0.4c-0.1,0.1-0.1,0.3-0.1,0.4v0.2L-463.1,281.5L-463.1,281.5z M-463.2,282.6
			c0-0.3,0.2-0.5,0.5-0.5c0.2,0,0.3,0,0.4,0.1c0.1,0.1,0.1,0.2,0.1,0.4c0,0.2,0,0.3-0.1,0.4c-0.1,0.1-0.2,0.1-0.4,0.1
			c-0.2,0-0.3,0-0.4-0.1C-463.2,282.9-463.2,282.7-463.2,282.6z"/>
	</g>
</g>
</svg>
