<?xml version="1.0" encoding="utf-8"?>
<!-- Generator: Adobe Illustrator 17.0.0, SVG Export Plug-In . SVG Version: 6.00 Build 0)  -->
<!DOCTYPE svg PUBLIC "-//W3C//DTD SVG 1.1//EN" "http://www.w3.org/Graphics/SVG/1.1/DTD/svg11.dtd">
<svg version="1.1" id="Layer_1" xmlns="http://www.w3.org/2000/svg" xmlns:xlink="http://www.w3.org/1999/xlink" x="0px" y="0px"
	 width="19px" height="15px" viewBox="0 0 19 15" enable-background="new 0 0 19 15" xml:space="preserve">
<g>
	<g>
		<g>
			<g>
				<path fill="#FFFFFF" d="M0.962,9.322c0,2.388,1.936,4.324,4.324,4.324l0,0h6.821c2.388,0,4.323-1.936,4.323-4.324
					c0-2.388-1.938-4.324-4.323-4.324H5.286l0,0C2.898,4.998,0.962,6.934,0.962,9.322z"/>
				<path fill="#E36307" d="M12.107,14.022H5.286c-2.591-0.001-4.699-2.109-4.699-4.699c0-2.591,2.108-4.699,4.699-4.7h6.821
					c2.591,0,4.698,2.108,4.698,4.7C16.805,11.913,14.698,14.022,12.107,14.022z M5.286,5.373c-2.177,0-3.949,1.772-3.949,3.95
					c0,2.177,1.771,3.948,3.949,3.949h6.821c2.177,0,3.948-1.771,3.948-3.949s-1.771-3.95-3.948-3.95H5.286z"/>
			</g>
			<g>
				<circle fill="#FFFFFF" cx="4.151" cy="9.322" r="1.152"/>
				<path fill="#E36307" d="M4.151,10.85c-0.842,0-1.527-0.686-1.527-1.527c0-0.842,0.685-1.528,1.527-1.528S5.678,8.48,5.678,9.323
					C5.678,10.164,4.993,10.85,4.151,10.85z M4.151,8.545c-0.429,0-0.777,0.349-0.777,0.778S3.722,10.1,4.151,10.1
					s0.778-0.349,0.778-0.777S4.579,8.545,4.151,8.545z"/>
			</g>
		</g>
	</g>
	<g>
		<g>
			<circle fill="#FFFFFF" cx="13.24" cy="6.151" r="4.798"/>
			<path fill="#E36307" d="M13.24,11.324c-2.853,0-5.173-2.32-5.173-5.173s2.321-5.173,5.173-5.173s5.173,2.321,5.173,5.173
				S16.093,11.324,13.24,11.324z M13.24,1.728c-2.439,0-4.423,1.984-4.423,4.423s1.984,4.423,4.423,4.423
				c2.438,0,4.423-1.984,4.423-4.423S15.678,1.728,13.24,1.728z"/>
		</g>
		<g>
			<line fill="#FFFFFF" x1="13.24" y1="3.752" x2="13.24" y2="8.55"/>
			<path fill="#E36307" d="M13.24,8.926c-0.207,0-0.375-0.168-0.375-0.375V3.752c0-0.207,0.168-0.375,0.375-0.375
				s0.375,0.168,0.375,0.375v4.798C13.615,8.758,13.447,8.926,13.24,8.926z"/>
		</g>
		<g>
			<line fill="#FFFFFF" x1="10.84" y1="6.151" x2="15.639" y2="6.151"/>
			<path fill="#E36307" d="M15.638,6.527h-4.798c-0.207,0-0.375-0.168-0.375-0.375s0.168-0.375,0.375-0.375h4.798
				c0.207,0,0.375,0.168,0.375,0.375S15.845,6.527,15.638,6.527z"/>
		</g>
	</g>
</g>
</svg>
