<?xml version="1.0" encoding="utf-8"?>
<!-- Generator: Adobe Illustrator 19.1.0, SVG Export Plug-In . SVG Version: 6.00 Build 0)  -->
<!DOCTYPE svg PUBLIC "-//W3C//DTD SVG 1.1//EN" "http://www.w3.org/Graphics/SVG/1.1/DTD/svg11.dtd">
<svg version="1.1"
	 id="svg2" xmlns:dc="http://purl.org/dc/elements/1.1/" xmlns:cc="http://creativecommons.org/ns#" xmlns:rdf="http://www.w3.org/1999/02/22-rdf-syntax-ns#" xmlns:svg="http://www.w3.org/2000/svg" xmlns:sodipodi="http://sodipodi.sourceforge.net/DTD/sodipodi-0.dtd" xmlns:inkscape="http://www.inkscape.org/namespaces/inkscape" sodipodi:docname="icon-review-black.svg" inkscape:version="0.91 r13725"
	 xmlns="http://www.w3.org/2000/svg" xmlns:xlink="http://www.w3.org/1999/xlink" x="0px" y="0px" viewBox="-473 276.5 11.5 9.5"
	 style="enable-background:new -473 276.5 11.5 9.5;" xml:space="preserve">
<sodipodi:namedview  fit-margin-left="0" fit-margin-top="0" showgrid="false" inkscape:cy="9.8706115" inkscape:cx="12.049845" inkscape:zoom="22.4" borderopacity="1.0" bordercolor="#666666" pagecolor="#ffffff" id="base" inkscape:window-maximized="1" inkscape:window-y="27" inkscape:window-x="0" inkscape:window-height="1016" inkscape:window-width="1920" inkscape:current-layer="layer1" inkscape:document-units="px" inkscape:pageopacity="0.0" fit-margin-right="0" fit-margin-bottom="0" inkscape:pageshadow="2">
	</sodipodi:namedview>
<g id="layer1" transform="translate(-490.8052,-647.43532)" inkscape:label="Layer 1" inkscape:groupmode="layer">
	<g id="g3377" transform="translate(490.0052,646.85157)">
		<g id="g3379">
			<path id="path3381" inkscape:connector-curvature="0" d="M-465.4,286.6c-0.1,0-0.2,0-0.3-0.1c-0.2-0.2-0.2-0.4,0-0.6l4.1-4.1
				l-4.1-4.1c-0.2-0.2-0.2-0.4,0-0.6s0.4-0.2,0.6,0l4.3,4.3c0.1,0.1,0.1,0.2,0.1,0.3c0,0.1,0,0.2-0.1,0.3l-4.3,4.3
				C-465.2,286.5-465.3,286.6-465.4,286.6z"/>
			<path id="path3383" inkscape:connector-curvature="0" d="M-461.1,282.3h-10.7c-0.2,0-0.4-0.2-0.4-0.4s0.2-0.4,0.4-0.4h10.7
				c0.2,0,0.4,0.2,0.4,0.4S-460.9,282.3-461.1,282.3z"/>
		</g>
	</g>
</g>
</svg>
