<?xml version="1.0" encoding="utf-8"?>
<!-- Generator: Adobe Illustrator 17.0.0, SVG Export Plug-In . SVG Version: 6.00 Build 0)  -->
<!DOCTYPE svg PUBLIC "-//W3C//DTD SVG 1.1//EN" "http://www.w3.org/Graphics/SVG/1.1/DTD/svg11.dtd">
<svg version="1.1" id="Layer_1" xmlns="http://www.w3.org/2000/svg" xmlns:xlink="http://www.w3.org/1999/xlink" x="0px" y="0px"
	 width="19px" height="19px" viewBox="0 0 19 19" enable-background="new 0 0 19 19" xml:space="preserve">
<g>
	<path fill="#DFDFDF" d="M9.5,18.472c-4.947,0-8.972-4.025-8.972-8.973c0-4.947,4.025-8.972,8.972-8.972s8.972,4.025,8.972,8.972
		C18.472,14.448,14.447,18.472,9.5,18.472z M9.5,1.371c-4.482,0-8.128,3.646-8.128,8.128s3.646,8.129,8.128,8.129
		s8.128-3.646,8.128-8.129C17.628,5.018,13.982,1.371,9.5,1.371z"/>
	<path fill="#DFDFDF" d="M11.393,10.122C11.08,9.81,10.601,9.55,9.957,9.342c-0.499-0.171-0.845-0.351-1.038-0.54
		s-0.29-0.438-0.29-0.745c0-0.337,0.093-0.604,0.28-0.798c0.186-0.195,0.466-0.291,0.839-0.291c0.351,0,0.626,0.125,0.825,0.374
		c0.199,0.25,0.299,0.575,0.299,0.976h0.007c0.019,0.24,0.213,0.43,0.457,0.43c0.244,0,0.439-0.19,0.457-0.43H11.8
		c0-0.009-0.002-0.017-0.002-0.027c0-0.003,0.002-0.005,0.002-0.005c0-0.009-0.003-0.013-0.003-0.013
		c-0.008-0.591-0.152-1.062-0.436-1.415c-0.292-0.363-0.702-0.58-1.23-0.649V5.47l0,0c0-0.207-0.168-0.374-0.374-0.374
		c-0.207,0-0.374,0.168-0.374,0.374l0,0v0.734C8.859,6.27,8.446,6.468,8.146,6.797s-0.45,0.753-0.45,1.275
		c0,0.537,0.163,0.967,0.488,1.289c0.325,0.322,0.807,0.58,1.446,0.773c0.465,0.158,0.797,0.337,0.998,0.538
		c0.2,0.2,0.301,0.443,0.301,0.727c0,0.344-0.114,0.614-0.344,0.808c-0.229,0.194-0.547,0.291-0.955,0.291
		c-0.354,0-0.654-0.104-0.901-0.31s-0.37-0.554-0.37-1.041H8.356c-0.004-0.248-0.204-0.448-0.453-0.448
		c-0.251,0-0.454,0.204-0.454,0.454l0.003,0.013L7.45,11.171c-0.013,0.657,0.155,1.156,0.502,1.495
		c0.348,0.34,0.793,0.538,1.337,0.595v0.494c-0.001,0.013-0.007,0.024-0.007,0.037c0,0.207,0.168,0.374,0.374,0.374
		c0.207,0,0.374-0.168,0.374-0.374h0.003v-0.536c0.569-0.06,1.016-0.25,1.341-0.571c0.325-0.32,0.488-0.753,0.488-1.296
		C11.862,10.856,11.706,10.433,11.393,10.122z"/>
</g>
</svg>
