<?xml version="1.0" encoding="utf-8"?>
<!-- Generator: Adobe Illustrator 17.0.0, SVG Export Plug-In . SVG Version: 6.00 Build 0)  -->
<!DOCTYPE svg PUBLIC "-//W3C//DTD SVG 1.1//EN" "http://www.w3.org/Graphics/SVG/1.1/DTD/svg11.dtd">
<svg version="1.1" id="Layer_1" xmlns="http://www.w3.org/2000/svg" xmlns:xlink="http://www.w3.org/1999/xlink" x="0px" y="0px"
	 width="33px" height="33px" viewBox="0 0 33 33" enable-background="new 0 0 33 33" xml:space="preserve">
<g>
	<g>
		<g>
			<path fill="#FFFFFF" d="M3.162,25.804c2.924,3.635,8.242,4.211,11.877,1.288l0,0l11.131-8.955
				c3.634-2.924,4.211-8.241,1.285-11.877c-2.925-3.635-8.245-4.209-11.877-1.288L4.447,13.927l0,0
				C0.813,16.852,0.238,22.17,3.162,25.804z"/>
			<path fill="#E36307" d="M9.75,29.557C9.75,29.557,9.75,29.557,9.75,29.557c-2.758,0-5.329-1.23-7.055-3.376
				c-3.127-3.887-2.51-9.593,1.376-12.72l11.131-8.955c1.601-1.288,3.612-1.997,5.664-1.997c2.758,0,5.33,1.23,7.056,3.376
				c1.516,1.883,2.207,4.244,1.947,6.646c-0.26,2.403-1.44,4.56-3.323,6.074l-11.13,8.955C13.813,28.847,11.801,29.557,9.75,29.557z
				 M20.866,3.708c-1.805,0-3.504,0.599-4.912,1.731L4.823,14.395c-3.371,2.713-3.906,7.662-1.194,11.034
				c1.498,1.861,3.728,2.928,6.121,2.929l0,0c1.805,0,3.503-0.599,4.913-1.733l11.13-8.955c1.633-1.314,2.657-3.185,2.882-5.269
				c0.226-2.084-0.374-4.131-1.688-5.765C25.49,4.775,23.259,3.708,20.866,3.708z"/>
		</g>
	</g>
	<g>
		<g>
			<path fill="#FFFFFF" d="M1.527,23.749c1.65,4.364,6.524,6.564,10.888,4.916l0,0l13.363-5.051
				c4.363-1.649,6.564-6.524,4.913-10.889c-1.65-4.364-6.528-6.564-10.888-4.916L6.441,12.86l0,0
				C2.077,14.51-0.123,19.385,1.527,23.749z"/>
			<path fill="#E36307" d="M9.432,29.812L9.432,29.812c-3.741,0-7.143-2.352-8.466-5.852c-1.764-4.666,0.597-9.897,5.263-11.662
				l13.363-5.051c1.028-0.389,2.103-0.586,3.194-0.586c3.742,0,7.145,2.351,8.467,5.851c0.855,2.261,0.778,4.719-0.215,6.922
				c-0.994,2.203-2.786,3.886-5.046,4.74l-13.364,5.051C11.598,29.615,10.522,29.812,9.432,29.812z M22.786,7.861
				c-0.945,0-1.877,0.171-2.77,0.508L6.653,13.421c-4.046,1.531-6.094,6.069-4.565,10.116c1.147,3.035,4.099,5.075,7.343,5.075h0
				c0.946,0,1.878-0.171,2.771-0.509l13.363-5.051c1.96-0.741,3.515-2.202,4.376-4.112c0.862-1.911,0.929-4.043,0.188-6.004
				C28.983,9.901,26.031,7.861,22.786,7.861z"/>
		</g>
	</g>
	<g>
		<g>
			<path fill="#FFFFFF" d="M0.753,21.087c0,4.862,3.941,8.804,8.803,8.805l0,0h13.888c4.861,0,8.802-3.941,8.802-8.805
				c0-4.862-3.945-8.804-8.802-8.804H9.556l0,0C4.694,12.284,0.753,16.226,0.753,21.087z"/>
			<path fill="#E36307" d="M23.444,30.492H9.556c-5.185-0.001-9.403-4.22-9.403-9.405s4.218-9.403,9.403-9.404h13.888
				c5.185,0,9.402,4.219,9.402,9.404S28.629,30.492,23.444,30.492z M9.556,12.883c-4.523,0.001-8.203,3.681-8.203,8.204
				s3.68,8.204,8.203,8.205h13.888c4.523,0,8.202-3.681,8.202-8.205s-3.679-8.204-8.202-8.204H9.556z"/>
		</g>
		<path fill="#E36307" d="M24.587,25.098H13.293c-0.332,0-0.6-0.269-0.6-0.6s0.269-0.6,0.6-0.6h11.294c0.332,0,0.6,0.269,0.6,0.6
			S24.919,25.098,24.587,25.098z"/>
		<path fill="#E36307" d="M20.952,21.688h-7.659c-0.332,0-0.6-0.269-0.6-0.6s0.269-0.6,0.6-0.6h7.659c0.332,0,0.6,0.269,0.6,0.6
			S21.283,21.688,20.952,21.688z"/>
		<path fill="#E36307" d="M24.587,18.278H13.293c-0.332,0-0.6-0.269-0.6-0.6s0.269-0.6,0.6-0.6h11.294c0.332,0,0.6,0.269,0.6,0.6
			S24.919,18.278,24.587,18.278z"/>
		<path fill="#E36307" d="M7.245,24.034c-1.625,0-2.947-1.322-2.947-2.946c0-1.625,1.322-2.947,2.947-2.947
			c1.625,0,2.946,1.322,2.946,2.947C10.191,22.712,8.87,24.034,7.245,24.034z M7.245,19.341c-0.963,0-1.747,0.784-1.747,1.747
			s0.784,1.746,1.747,1.746s1.746-0.783,1.746-1.746S8.208,19.341,7.245,19.341z"/>
	</g>
</g>
</svg>
