<?xml version="1.0" encoding="utf-8"?>
<!-- Generator: Adobe Illustrator 17.0.0, SVG Export Plug-In . SVG Version: 6.00 Build 0)  -->
<!DOCTYPE svg PUBLIC "-//W3C//DTD SVG 1.1//EN" "http://www.w3.org/Graphics/SVG/1.1/DTD/svg11.dtd">
<svg version="1.1" id="Layer_1" xmlns="http://www.w3.org/2000/svg" xmlns:xlink="http://www.w3.org/1999/xlink" x="0px" y="0px"
	 width="33px" height="33px" viewBox="0 0 33 33" enable-background="new 0 0 33 33" xml:space="preserve">
<g>
	<path fill="#B8141A" d="M17.054,26.166c-0.006,0-0.012,0-0.018,0c-0.271-0.008-0.503-0.197-0.566-0.46L12.586,9.398L9.415,17.22
		c-0.092,0.226-0.312,0.375-0.556,0.375H5.536c-0.332,0-0.6-0.269-0.6-0.6s0.269-0.6,0.6-0.6h2.918l3.724-9.186
		c0.098-0.242,0.347-0.393,0.602-0.373c0.26,0.02,0.478,0.205,0.538,0.459l3.804,15.967l3.566-11.826
		c0.072-0.239,0.285-0.409,0.535-0.425c0.246-0.016,0.483,0.124,0.586,0.351l2.277,5.032h3.378c0.332,0,0.6,0.269,0.6,0.6
		s-0.269,0.6-0.6,0.6h-3.765c-0.236,0-0.45-0.138-0.547-0.353l-1.777-3.928l-3.747,12.425
		C17.552,25.993,17.318,26.166,17.054,26.166z"/>
	<path fill="#B8141A" d="M16.5,31.873c-8.477,0-15.373-6.896-15.373-15.373S8.024,1.127,16.5,1.127S31.873,8.023,31.873,16.5
		S24.977,31.873,16.5,31.873z M16.5,2.327C8.685,2.327,2.327,8.685,2.327,16.5S8.685,30.673,16.5,30.673S30.673,24.315,30.673,16.5
		S24.315,2.327,16.5,2.327z"/>
</g>
</svg>
