<?xml version="1.0" encoding="utf-8"?>
<!-- Generator: Adobe Illustrator 17.0.0, SVG Export Plug-In . SVG Version: 6.00 Build 0)  -->
<!DOCTYPE svg PUBLIC "-//W3C//DTD SVG 1.1//EN" "http://www.w3.org/Graphics/SVG/1.1/DTD/svg11.dtd">
<svg version="1.1" id="Layer_1" xmlns="http://www.w3.org/2000/svg" xmlns:xlink="http://www.w3.org/1999/xlink" x="0px" y="0px"
	 width="33px" height="33px" viewBox="0 0 33 33" enable-background="new 0 0 33 33" xml:space="preserve">
<g>
	<g>
		<path fill="#B8141A" d="M16.5,31.873c-8.477,0-15.373-6.896-15.373-15.373S8.024,1.127,16.5,1.127S31.873,8.024,31.873,16.5
			S24.977,31.873,16.5,31.873z M16.5,2.327C8.685,2.327,2.327,8.685,2.327,16.5S8.685,30.673,16.5,30.673S30.673,24.315,30.673,16.5
			S24.315,2.327,16.5,2.327z"/>
		<path fill="#B8141A" d="M23.727,17.1H16.5c-0.332,0-0.6-0.269-0.6-0.6V4.879c0-0.332,0.269-0.6,0.6-0.6s0.6,0.269,0.6,0.6V15.9
			h6.626c0.332,0,0.6,0.269,0.6,0.6S24.058,17.1,23.727,17.1z"/>
	</g>
	<g>
		<g>
			<g>
				<path fill="#B8141A" d="M5.705,17.1H4.744c-0.332,0-0.6-0.269-0.6-0.6s0.269-0.6,0.6-0.6h0.961c0.332,0,0.6,0.269,0.6,0.6
					S6.036,17.1,5.705,17.1z"/>
				<path fill="#B8141A" d="M27.986,17.1h-0.961c-0.332,0-0.6-0.269-0.6-0.6s0.269-0.6,0.6-0.6h0.961c0.332,0,0.6,0.269,0.6,0.6
					S28.317,17.1,27.986,17.1z"/>
			</g>
			<g>
				<path fill="#B8141A" d="M16.365,28.721c-0.332,0-0.6-0.269-0.6-0.6V27.16c0-0.332,0.269-0.6,0.6-0.6s0.6,0.269,0.6,0.6v0.961
					C16.965,28.452,16.696,28.721,16.365,28.721z"/>
			</g>
		</g>
		<g>
			<g>
				<path fill="#B8141A" d="M8.148,25.317c-0.153,0-0.307-0.059-0.424-0.176c-0.234-0.234-0.234-0.614,0-0.849l0.679-0.679
					c0.234-0.234,0.614-0.234,0.849,0s0.234,0.614,0,0.849l-0.679,0.679C8.455,25.259,8.301,25.317,8.148,25.317z"/>
				<path fill="#B8141A" d="M23.903,9.562c-0.153,0-0.307-0.059-0.424-0.176c-0.234-0.234-0.234-0.614,0-0.849l0.679-0.679
					c0.234-0.234,0.614-0.234,0.849,0s0.234,0.614,0,0.849l-0.679,0.679C24.21,9.504,24.056,9.562,23.903,9.562z"/>
			</g>
			<g>
				<path fill="#B8141A" d="M24.582,25.317c-0.153,0-0.307-0.059-0.424-0.176l-0.679-0.679c-0.234-0.234-0.234-0.614,0-0.849
					s0.614-0.234,0.849,0l0.679,0.679c0.234,0.234,0.234,0.614,0,0.849C24.889,25.259,24.735,25.317,24.582,25.317z"/>
				<path fill="#B8141A" d="M8.827,9.562c-0.153,0-0.307-0.059-0.424-0.176L7.723,8.707c-0.234-0.234-0.234-0.614,0-0.849
					s0.614-0.234,0.849,0l0.679,0.679c0.234,0.234,0.234,0.614,0,0.849C9.134,9.504,8.98,9.562,8.827,9.562z"/>
			</g>
		</g>
	</g>
</g>
</svg>
