<?xml version="1.0" encoding="utf-8"?>
<!-- Generator: Adobe Illustrator 18.1.1, SVG Export Plug-In . SVG Version: 6.00 Build 0)  -->
<!DOCTYPE svg PUBLIC "-//W3C//DTD SVG 1.1//EN" "http://www.w3.org/Graphics/SVG/1.1/DTD/svg11.dtd">
<svg version="1.1" id="Layer_1" xmlns="http://www.w3.org/2000/svg" xmlns:xlink="http://www.w3.org/1999/xlink" x="0px" y="0px"
	 viewBox="-227 310 24 22" enable-background="new -227 310 24 22" xml:space="preserve">
<g>
	<path fill="none" stroke="#FFFFFF" stroke-miterlimit="10" d="M-209.8,326.7v1.7c0,1.1-0.9,2.1-2.1,2.1h-11.6
		c-1.1,0-2.1-0.9-2.1-2.1v-14.8c0-1.1,0.9-2.1,2.1-2.1h11.6c1.1,0,2.1,0.9,2.1,2.1v2.7"/>
	<path fill="none" stroke="#FFFFFF" stroke-miterlimit="10" d="M-211.9,330.9h-11.6c-1.4,0-2.6-1.1-2.6-2.6v-14.8
		c0-1.4,1.1-2.6,2.6-2.6h11.6c1.4,0,2.6,1.1,2.6,2.6v2.7c0,0.3-0.2,0.5-0.5,0.5s-0.5-0.2-0.5-0.5v-2.7c0-0.9-0.7-1.6-1.6-1.6h-11.6
		c-0.9,0-1.6,0.7-1.6,1.6v14.8c0,0.9,0.7,1.6,1.6,1.6h11.6c0.9,0,1.6-0.7,1.6-1.6v-1.7c0-0.3,0.2-0.5,0.5-0.5s0.5,0.2,0.5,0.5v1.7
		C-209.3,329.8-210.5,330.9-211.9,330.9z"/>
</g>
<g>
	<line fill="#FFFFFF" x1="-221.9" y1="316.3" x2="-213.4" y2="316.3"/>
	<path fill="#FFFFFF" d="M-213.4,316.8h-8.5c-0.3,0-0.5-0.2-0.5-0.5s0.2-0.5,0.5-0.5h8.5c0.3,0,0.5,0.2,0.5,0.5
		S-213.2,316.8-213.4,316.8z"/>
</g>
<g>
	<line fill="#FFFFFF" x1="-221.9" y1="325.5" x2="-218.6" y2="325.5"/>
	<path fill="#FFFFFF" d="M-218.6,326h-3.4c-0.3,0-0.5-0.2-0.5-0.5s0.2-0.5,0.5-0.5h3.4c0.3,0,0.5,0.2,0.5,0.5S-218.3,326-218.6,326z
		"/>
</g>
<g>
	<polygon fill="#FFFFFF" points="-214.3,326.5 -216.6,327.3 -215.8,325 -206,315.1 -204.5,316.6 	"/>
	<path fill="#FFFFFF" d="M-216.6,327.8c-0.1,0-0.3-0.1-0.4-0.1c-0.1-0.1-0.2-0.3-0.1-0.5l0.8-2.3c0-0.1,0.1-0.1,0.1-0.2l9.8-9.8
		c0.1-0.1,0.2-0.1,0.4-0.1l0,0c0.1,0,0.3,0.1,0.4,0.1l1.5,1.5c0.2,0.2,0.2,0.5,0,0.7l-9.8,9.8c-0.1,0.1-0.1,0.1-0.2,0.1l-2.3,0.8
		C-216.5,327.8-216.6,327.8-216.6,327.8z M-215.4,325.3l-0.4,1.2l1.2-0.4l9.4-9.4l-0.8-0.8L-215.4,325.3z"/>
</g>
<g>
	<line fill="#FFFFFF" x1="-221.9" y1="320.9" x2="-215.1" y2="320.9"/>
	<path fill="#FFFFFF" d="M-215.1,321.4h-6.8c-0.3,0-0.5-0.2-0.5-0.5s0.2-0.5,0.5-0.5h6.8c0.3,0,0.5,0.2,0.5,0.5
		S-214.9,321.4-215.1,321.4z"/>
</g>
</svg>
