<?xml version="1.0" encoding="utf-8"?>
<!-- Generator: Adobe Illustrator 19.1.0, SVG Export Plug-In . SVG Version: 6.00 Build 0)  -->
<!DOCTYPE svg PUBLIC "-//W3C//DTD SVG 1.1//EN" "http://www.w3.org/Graphics/SVG/1.1/DTD/svg11.dtd">
<svg version="1.1" id="Layer_1" xmlns="http://www.w3.org/2000/svg" xmlns:xlink="http://www.w3.org/1999/xlink" x="0px" y="0px"
	 viewBox="0 0 63.8 30.6" style="enable-background:new 0 0 63.8 30.6;" xml:space="preserve">
<style type="text/css">
	.st0{fill:#FFFFFF;stroke:#DFDFDF;stroke-width:0.9451;stroke-miterlimit:10;}
	.st1{fill:none;stroke:#E3E3E3;stroke-width:0.7949;stroke-linecap:round;stroke-linejoin:round;stroke-miterlimit:10;}
	.st2{fill:#F5F5F5;stroke:#BC141A;stroke-miterlimit:10;}
	.st3{fill:none;stroke:#BC141A;stroke-linecap:round;stroke-linejoin:round;stroke-miterlimit:10;}
</style>
<path class="st0" d="M63.3,15.3c0,8.2-6.6,14.8-14.8,14.8H15.3c-8.2,0-14.8-6.6-14.8-14.8l0,0c0-8.2,6.6-14.8,14.8-14.8h33.2
	C56.6,0.5,63.3,7.1,63.3,15.3L63.3,15.3z"/>
<g>
	<path class="st1" d="M20.1,18.7c0,0.4-0.3,0.7-0.7,0.7h-6c-0.4,0-0.7-0.3-0.7-0.7v-5.2c0-0.4,0.3-0.7,0.7-0.7h6
		c0.4,0,0.7,0.3,0.7,0.7V18.7z"/>
	<path class="st1" d="M18.7,12.8v-1.5c0-1.3-1-2.3-2.3-2.3s-2.3,1-2.3,2.3v1.5"/>
	<circle class="st1" cx="16.4" cy="15.9" r="0.8"/>
</g>
<circle class="st2" cx="47.5" cy="15.3" r="10.7"/>
<g>
	<path class="st3" d="M52.9,20.2c0,0.4-0.3,0.7-0.7,0.7h-6c-0.4,0-0.7-0.3-0.7-0.7V15c0-0.4,0.3-0.7,0.7-0.7h6
		c0.4,0,0.7,0.3,0.7,0.7V20.2z"/>
	<path class="st3" d="M46.8,14.2v-1.5c0-1.3-1-2.3-2.3-2.3s-2.3,1-2.3,2.3"/>
	<circle class="st3" cx="49.1" cy="17.3" r="0.8"/>
</g>
</svg>
