<?xml version="1.0" encoding="utf-8"?>
<!-- Generator: Adobe Illustrator 19.1.0, SVG Export Plug-In . SVG Version: 6.00 Build 0)  -->
<!DOCTYPE svg PUBLIC "-//W3C//DTD SVG 1.1//EN" "http://www.w3.org/Graphics/SVG/1.1/DTD/svg11.dtd">
<svg version="1.1" id="Layer_1" xmlns="http://www.w3.org/2000/svg" xmlns:xlink="http://www.w3.org/1999/xlink" x="0px" y="0px"
	 viewBox="-458.6 272.6 19.3 16.8" style="enable-background:new -458.6 272.6 19.3 16.8;" xml:space="preserve">
<style type="text/css">
	.st0{fill:#F2B488;}
	.st1{fill:#E36307;}
</style>
<g>
	<g>
		<path class="st0" d="M-440.1,289.4C-440.1,289.4-440.1,289.4-440.1,289.4h-17.8c-0.3,0-0.5-0.1-0.6-0.4c-0.1-0.2-0.1-0.5,0-0.7
			l8.9-15.4c0.3-0.5,1-0.5,1.3,0l8.8,15.3c0.1,0.1,0.2,0.3,0.2,0.5C-439.4,289.1-439.7,289.4-440.1,289.4z"/>
	</g>
	<g>
		<path class="st1" d="M-449,283.9c-0.4,0-0.7-0.3-0.7-0.7v-4.8c0-0.4,0.3-0.7,0.7-0.7s0.7,0.3,0.7,0.7v4.8
			C-448.3,283.6-448.6,283.9-449,283.9z"/>
	</g>
	<circle class="st1" cx="-449" cy="285.7" r="0.7"/>
</g>
</svg>
