<?xml version="1.0" encoding="utf-8"?>
<!-- Generator: Adobe Illustrator 18.1.1, SVG Export Plug-In . SVG Version: 6.00 Build 0)  -->
<!DOCTYPE svg PUBLIC "-//W3C//DTD SVG 1.1//EN" "http://www.w3.org/Graphics/SVG/1.1/DTD/svg11.dtd">
<svg version="1.1" id="Layer_1" xmlns="http://www.w3.org/2000/svg" xmlns:xlink="http://www.w3.org/1999/xlink" x="0px" y="0px"
	 viewBox="-120.2 292.4 155.2 56.8" enable-background="new -120.2 292.4 155.2 56.8" xml:space="preserve">
<g>
	<g>
		<g>
			<path fill="#FFFFFF" d="M-99.9,308.8h-0.2c-0.2,0-0.7,0.1-0.8,0.8l-0.1,0.9l-0.1-0.1c-0.9-0.7-3-2-6-2c-3.3,0-7.5,1.4-8.5,8.2
				l-0.3,2.2h-2.7c-0.4,0-0.8,0.2-0.8,0.7l0,0.2c-0.1,0.2,0,0.5,0.1,0.6c0.1,0.1,0.3,0.3,0.7,0.3h2.5l0,0.1l-3.8,27.5
				c-0.1,0.4,0,0.6,0.1,0.7l0.3,0.2h0.5c0.4,0,0.8-0.3,0.9-0.8l3.9-27.8h7.8c0.4,0,0.8-0.3,0.9-0.7l0-0.2c0-0.2,0-0.4-0.1-0.6
				c-0.1-0.2-0.4-0.3-0.7-0.3h-7.7l0.3-2.1c0.6-4.4,2.8-6.6,6.7-6.6c3,0,4.9,1.5,5.8,2.4l0,0l0,0l-3.6,25.6c-0.1,0.3,0,0.5,0.1,0.7
				c0.1,0.2,0.3,0.3,0.6,0.3h0.2c0.4,0,0.7-0.3,0.8-0.8l4.1-28.7c0.1-0.3,0-0.5-0.1-0.7C-99.5,308.9-99.7,308.8-99.9,308.8z"/>
			<path fill="#FFFFFF" d="M-86.8,318.4c-6.1,0-10.7,5.3-10.7,12.4c0,5.4,3.1,8.9,8,8.9c2.8,0,6-1.4,7-2.5c0.2-0.2,0.3-0.6,0.1-0.9
				l-0.1-0.3c-0.2-0.4-0.5-0.4-0.6-0.4c-0.2,0-0.4,0.1-0.5,0.2c-0.6,0.5-2.9,2-5.9,2c-3.8,0-6.2-2.8-6.2-7.2c0-0.2,0-0.4,0-0.6
				l0-0.1l0.1,0c1.6,0.2,3.2,0.3,4.8,0.3c7.1,0,11.3-2.3,11.3-6.1C-79.5,320.8-82.6,318.4-86.8,318.4z M-81.3,324.2
				c0,2.7-3.6,4.4-9.5,4.4c-1.3,0-2.8-0.1-4.6-0.3l-0.1,0l0-0.1c0.9-4.7,4.4-7.9,8.7-7.9C-83.6,320.1-81.3,321.8-81.3,324.2z"/>
			<path fill="#FFFFFF" d="M-66.2,318.8h-6.5l0.6-4.6c0.1-0.2,0-0.5-0.1-0.6c-0.1-0.2-0.4-0.3-0.6-0.3h-0.2c-0.2,0-0.6,0.1-0.8,0.7
				l-0.7,4.8H-76c-0.2,0-0.6,0.1-0.8,0.7l-0.1,0.2c-0.1,0.2,0,0.5,0.1,0.7l0.3,0.3h1.6l0,0.1l-1.8,12.7c-0.3,1.9-0.4,3.9,0.7,5.2
				c0.6,0.7,1.6,1.1,3,1.1c2.3,0,5.1-1.4,5.7-1.8c0.2-0.1,0.3-0.3,0.4-0.5c0-0.2,0-0.3-0.1-0.4l-0.2-0.3c-0.2-0.3-0.5-0.4-0.7-0.4
				c-0.2,0-0.3,0-0.5,0.2c-0.7,0.5-2.9,1.5-4.7,1.5c-0.8,0-1.3-0.2-1.6-0.5c-0.6-0.7-0.5-2.3-0.3-3.8l1.8-13h6.7
				c0.4,0,0.8-0.3,0.9-0.7l0.1-0.2c0-0.2,0-0.5-0.2-0.6C-65.7,318.9-65.9,318.8-66.2,318.8z"/>
			<path fill="#FFFFFF" d="M-47,321c-0.8-0.8-3-2.7-6.7-2.7c-5.6,0-11.4,4.5-11.4,12c0,5.2,3.7,9.3,8.5,9.3c4.3,0,7.6-3.1,7.9-3.5
				c0.1-0.1,0.2-0.3,0.2-0.6c0-0.2-0.1-0.4-0.2-0.6l-0.5-0.4h-0.2c-0.1,0-0.3,0-0.5,0.2l-0.2,0.1c-2,1.9-4.4,3-6.6,3
				c-3.7,0-6.7-3.4-6.7-7.6c0-6.3,5-10.2,9.6-10.2c3,0,4.7,1.6,5.2,2.1l0.1,0.1c0.3,0.3,0.9,0.3,1.2,0l0.2-0.2
				c0.3-0.3,0.3-0.7,0.1-1L-47,321z"/>
			<path fill="#FFFFFF" d="M-34.7,318.4c-2.1,0-4.2,0.8-6,2.5l-0.2,0.2l1.6-11.3c0.1-0.3,0-0.5-0.2-0.7c-0.1-0.2-0.4-0.3-0.6-0.3
				h-0.2c-0.2,0-0.7,0.1-0.8,0.8l-4.1,28.7c-0.1,0.3,0,0.5,0.1,0.7c0.1,0.1,0.3,0.3,0.7,0.3h0.2c0.3,0,0.7-0.1,0.8-0.8l2.1-14.4l0,0
				c2-2.5,4.3-3.8,6.6-3.8c1.5,0,2.6,0.4,3.4,1.2c1,1.2,1.3,3.3,0.9,6.4l-1.5,10.5c-0.1,0.4,0.1,0.6,0.1,0.7
				c0.1,0.1,0.3,0.3,0.7,0.3h0.2c0.4,0,0.7-0.3,0.8-0.8l1.5-10.5c0.5-3.6,0.1-6.2-1.2-7.7C-30.9,319-32.5,318.4-34.7,318.4z"/>
			<path fill="#FFFFFF" d="M-14.9,318.4c-6.1,0-10.7,5.3-10.7,12.4c0,5.4,3.1,8.9,8,8.9c2.8,0,6-1.4,7-2.5c0.2-0.2,0.3-0.6,0.1-0.9
				l-0.1-0.3c-0.2-0.4-0.5-0.4-0.6-0.4c-0.2,0-0.4,0.1-0.5,0.2c-0.6,0.5-2.9,2-5.9,2c-3.8,0-6.2-2.8-6.2-7.2c0-0.2,0-0.4,0-0.6
				l0-0.1l0.1,0c1.6,0.2,3.2,0.3,4.8,0.3c7.1,0,11.3-2.3,11.3-6.1C-7.6,320.8-10.7,318.4-14.9,318.4z M-9.4,324.2
				c0,2.7-3.6,4.4-9.5,4.4c-1.3,0-2.8-0.1-4.6-0.3l-0.1,0l0-0.1c0.9-4.7,4.4-7.9,8.7-7.9C-11.7,320.1-9.4,321.8-9.4,324.2z"/>
			<path fill="#FFFFFF" d="M8.5,319.2c-0.7-0.4-1.6-0.9-3.4-0.9c-1.8,0-3.7,0.8-5.3,2.1l-0.2,0.2l0.1-0.9c0.1-0.3,0-0.5-0.1-0.7
				l-0.3-0.2h-0.5c-0.2,0-0.7,0.1-0.8,0.8l-2.7,18.7c-0.1,0.3,0,0.5,0.1,0.7c0.1,0.1,0.3,0.3,0.6,0.3h0.2c0.4,0,0.7-0.3,0.8-0.8
				l2.2-14.7c0.4-0.6,2.6-3.6,5.8-3.6c0.9,0,1.7,0.2,2.4,0.6c0.1,0.1,0.3,0.1,0.4,0.1c0.3,0,0.6-0.2,0.7-0.4
				c0.2-0.2,0.2-0.4,0.2-0.6C8.8,319.6,8.7,319.4,8.5,319.2z"/>
		</g>
	</g>
</g>
<g>
	<path fill="#FFFFFF" d="M33.7,314.4v-18.6c0.7-0.2,1.2-0.9,1.2-1.7c0-1-0.8-1.8-1.8-1.8c-0.8,0-1.5,0.5-1.7,1.2H12.9
		c-0.2-0.7-0.9-1.2-1.7-1.2c-1,0-1.8,0.8-1.8,1.8c0,0.7,0.4,1.3,1,1.6c-0.2,1.7-0.2,3.4,0,5.1l-12.3,3.9c-0.3-0.5-0.8-0.8-1.4-0.8
		c-1,0-1.8,0.8-1.8,1.8c0,1,0.8,1.8,1.8,1.8c0.6,0,1.2-0.3,1.5-0.8l16.3,4.6c0,0.9,0.8,1.7,1.7,1.7l4.6,16.2c-0.6,0.3-1,0.9-1,1.6
		c0,1,0.8,1.8,1.8,1.8c1,0,1.8-0.8,1.8-1.8c0-0.5-0.2-1-0.6-1.3l4-12.6c0.8,0.1,1.6,0.2,2.5,0.2c0.9,0,1.7-0.1,2.6-0.2
		c0.3,0.6,0.9,1,1.6,1c1,0,1.8-0.8,1.8-1.8C35,315.3,34.5,314.6,33.7,314.4z M33.2,316.8c-0.1,0-0.3,0-0.4-0.1
		c-0.2-0.1-0.3-0.4-0.3-0.6c0-0.2,0.1-0.3,0.1-0.4c0,0,0,0,0.1-0.1c0.1-0.1,0.3-0.2,0.5-0.2s0.4,0.1,0.5,0.2
		c0.1,0.1,0.2,0.3,0.2,0.5C33.9,316.5,33.6,316.8,33.2,316.8z M32.7,293.6c0.1-0.1,0.3-0.2,0.5-0.2c0.4,0,0.7,0.3,0.7,0.7
		c0,0.2-0.1,0.4-0.2,0.5c0,0.1-0.1,0.1-0.2,0.1c-0.1,0.1-0.2,0.1-0.3,0.1c0,0,0,0,0,0c-0.4,0-0.7-0.3-0.7-0.7c0,0,0,0,0,0
		c0-0.1,0-0.2,0.1-0.3C32.6,293.7,32.7,293.7,32.7,293.6z M17.2,309.7c-0.3-0.2-0.6-0.3-1-0.3c-0.3,0-0.5,0.1-0.7,0.2
		c-2-2.4-3.2-5.1-3.8-8.1l19.7-6.2L17.2,309.7z M15.4,311.2C15.4,311.2,15.4,311.2,15.4,311.2c0-0.3,0.2-0.5,0.4-0.7
		c0.1,0,0.2-0.1,0.3-0.1c0,0,0,0,0,0c0.1,0,0.1,0,0.2,0c0.3,0.1,0.4,0.3,0.5,0.6c0,0,0,0,0,0c0,0.1,0,0.2-0.1,0.3
		c-0.1,0.2-0.4,0.4-0.6,0.4c0,0,0,0,0,0c-0.1,0-0.2,0-0.4-0.1c-0.1-0.1-0.2-0.1-0.2-0.2c0,0,0,0,0,0
		C15.5,311.4,15.4,311.3,15.4,311.2z M17.8,310.6l14.3-14.5l-6.2,19.7c-3-0.5-5.8-1.8-8.1-3.8c0.1-0.2,0.2-0.5,0.2-0.7
		C17.9,311,17.9,310.8,17.8,310.6z M10.6,294.1c0-0.4,0.3-0.7,0.7-0.7c0.2,0,0.4,0.1,0.5,0.2c0.1,0.1,0.2,0.3,0.2,0.5
		c0,0.2-0.1,0.4-0.2,0.5c0,0,0,0-0.1,0.1c-0.1,0.1-0.3,0.1-0.4,0.1c-0.3,0-0.5-0.1-0.6-0.3C10.6,294.4,10.6,294.3,10.6,294.1z
		 M11.5,295.9c0.7-0.1,1.3-0.6,1.5-1.2h16.9l-18.3,5.8C11.3,298.9,11.3,297.4,11.5,295.9z M-3.3,306.4c-0.4,0-0.7-0.3-0.7-0.7
		c0-0.4,0.3-0.7,0.7-0.7c0.1,0,0.2,0,0.3,0.1c0.2,0.1,0.4,0.4,0.4,0.6c0,0.3-0.2,0.5-0.4,0.6C-3.1,306.3-3.2,306.4-3.3,306.4z
		 M10.6,301.8c0.6,3,1.9,5.9,3.9,8.4l-16.1-4.6L10.6,301.8z M20.7,330.8c0-0.2,0.1-0.4,0.3-0.6c0.1-0.1,0.3-0.1,0.4-0.1
		c0.4,0,0.7,0.3,0.7,0.7c0,0.1,0,0.2,0,0.2c-0.1,0.3-0.4,0.5-0.7,0.5C21,331.5,20.7,331.2,20.7,330.8z M21.7,328.9l-4.6-16.1
		c2.5,2,5.3,3.3,8.4,3.9L21.7,328.9z M26.9,315.9l5.8-18.3v16.9c-0.6,0.2-1.1,0.8-1.2,1.5C29.9,316.1,28.4,316.1,26.9,315.9z"/>
</g>
</svg>
