<?xml version="1.0" encoding="utf-8"?>
<!-- Generator: Adobe Illustrator 19.1.0, SVG Export Plug-In . SVG Version: 6.00 Build 0)  -->
<!DOCTYPE svg PUBLIC "-//W3C//DTD SVG 1.1//EN" "http://www.w3.org/Graphics/SVG/1.1/DTD/svg11.dtd">
<svg version="1.1" id="Layer_1" xmlns="http://www.w3.org/2000/svg" xmlns:xlink="http://www.w3.org/1999/xlink" x="0px" y="0px"
	 viewBox="-125.1 251.7 155.7 56.9" style="enable-background:new -125.1 251.7 155.7 56.9;" xml:space="preserve">
<style type="text/css">
	.st0{fill:#FFFFFF;}
</style>
<g>
	<path class="st0" d="M-119.4,299.4h-0.7c-0.2,0-0.3-0.1-0.4-0.2c-0.1-0.1-0.2-0.3-0.1-0.4l3.1-21.5c0-0.3,0.3-0.5,0.5-0.5h0.7
		c0.2,0,0.3,0.1,0.4,0.2c0.1,0.1,0.2,0.3,0.1,0.4l-3.1,21.5C-118.9,299.2-119.2,299.4-119.4,299.4z"/>
	<path class="st0" d="M-100.1,299.4h-0.7c-0.2,0-0.3-0.1-0.4-0.2c-0.1-0.1-0.2-0.3-0.1-0.4l1.3-9.2c0.3-2.3,0.2-4-0.3-5
		c-0.5-0.9-1.4-1.4-2.7-1.4c-0.8,0-1.6,0.1-2.4,0.4c-0.8,0.3-1.6,0.7-2.3,1.1c-0.7,0.5-1.4,1.1-2,1.7c-0.6,0.6-1,1.3-1.4,2.1
		l-1.5,10.4c0,0.3-0.3,0.5-0.5,0.5h-0.7c-0.2,0-0.3-0.1-0.4-0.2c-0.1-0.1-0.2-0.3-0.1-0.4l2.3-16.6c0-0.3,0.3-0.5,0.5-0.5h0.7
		c0.2,0,0.3,0.1,0.4,0.2c0.1,0.1,0.2,0.3,0.1,0.4l-0.3,2.4c0.2-0.1,0.3-0.3,0.5-0.4c0.7-0.6,1.4-1.1,2.2-1.5c0.8-0.4,1.6-0.7,2.4-1
		c0.8-0.2,1.7-0.4,2.5-0.4c2,0,3.4,0.7,4.2,2.1c0.7,1.3,0.9,3.3,0.5,6.1l-1.3,9.2C-99.6,299.2-99.8,299.4-100.1,299.4z"/>
	<path class="st0" d="M-40.3,299.4H-41c-0.2,0-0.3-0.1-0.4-0.2c-0.1-0.1-0.2-0.3-0.1-0.4l1.3-9.2c0.3-2.3,0.2-4-0.3-5
		c-0.5-0.9-1.4-1.4-2.7-1.4c-0.8,0-1.6,0.1-2.4,0.4c-0.8,0.3-1.6,0.7-2.3,1.1c-0.7,0.5-1.4,1.1-2,1.7c-0.6,0.6-1,1.3-1.4,2.1
		l-1.5,10.4c0,0.3-0.3,0.5-0.5,0.5H-54c-0.2,0-0.3-0.1-0.4-0.2c-0.1-0.1-0.2-0.3-0.1-0.4l2.3-16.6c0-0.3,0.3-0.5,0.5-0.5h0.7
		c0.2,0,0.3,0.1,0.4,0.2c0.1,0.1,0.2,0.3,0.1,0.4l-0.3,2.4c0.2-0.1,0.3-0.3,0.5-0.4c0.7-0.6,1.4-1.1,2.2-1.5c0.8-0.4,1.6-0.7,2.4-1
		c0.8-0.2,1.7-0.4,2.5-0.4c2,0,3.4,0.7,4.2,2.1c0.7,1.3,0.9,3.3,0.5,6.1l-1.3,9.2C-39.8,299.2-40.1,299.4-40.3,299.4z"/>
	<path class="st0" d="M-14.5,299.5c-1,0-1.7-0.3-2.2-0.9c-0.5-0.6-0.8-1.4-0.6-2.3l2.9-20.9c0-0.3,0.3-0.5,0.5-0.5h0.7
		c0.2,0,0.3,0.1,0.4,0.2c0.1,0.1,0.2,0.3,0.1,0.4l-2.9,20.9c-0.1,0.6,0.1,0.9,0.2,1c0.4,0.4,0.9,0.5,2,0.3c0.3,0,0.6-0.1,0.9-0.2
		c0.3-0.1,0.6,0.1,0.7,0.4l0.2,0.5c0,0.1,0,0.3,0,0.4c-0.1,0.1-0.2,0.2-0.3,0.3c-0.4,0.1-0.8,0.2-1.3,0.3
		C-13.7,299.5-14.2,299.5-14.5,299.5z"/>
	<path class="st0" d="M4.4,299.4H3.7c-0.2,0-0.3-0.1-0.4-0.2c-0.1-0.1-0.2-0.3-0.1-0.4l3.2-22.7c0-0.3,0.3-0.5,0.5-0.5h0.7
		c0.2,0,0.3,0.1,0.4,0.2c0.1,0.1,0.2,0.3,0.1,0.4l-3.2,22.7C4.9,299.2,4.7,299.4,4.4,299.4z"/>
	<path class="st0" d="M17.7,299.4H17c-0.2,0-0.3-0.1-0.4-0.2c-0.1-0.1-0.2-0.3-0.1-0.4l3-21.4h-8.6c-0.2,0-0.3-0.1-0.4-0.2
		c-0.1-0.1-0.2-0.3-0.1-0.4l0.1-0.6c0-0.3,0.3-0.5,0.5-0.5h19.2c0.2,0,0.3,0.1,0.4,0.2c0.1,0.1,0.2,0.3,0.1,0.4l-0.1,0.6
		c0,0.3-0.3,0.5-0.5,0.5h-8.8l-3,21.6C18.2,299.2,17.9,299.4,17.7,299.4z"/>
	<path class="st0" d="M-77.3,299.7c-4.2,0-7-3.1-7-7.8c0-6.1,4-10.8,9.3-10.8c3.7,0,6.4,2.1,6.4,5.1c0,3.4-3.7,5.4-9.8,5.4
		c-1.4,0-2.7-0.1-4.1-0.3c0,0.2,0,0.3,0,0.5c0,3.8,2,6.1,5.2,6.1c2.5,0,4.5-1.3,5-1.7c0.2-0.1,0.3-0.2,0.5-0.2c0.1,0,0.4,0,0.6,0.4
		l0.1,0.2c0.2,0.3,0.1,0.7-0.1,0.9C-72,298.4-74.8,299.7-77.3,299.7z M-82.2,289.6c1.5,0.2,2.8,0.3,3.9,0.3c5.1,0,8.1-1.4,8.1-3.6
		c0-2-1.9-3.3-4.6-3.3C-78.5,282.9-81.4,285.6-82.2,289.6z"/>
	<path class="st0" d="M-29.1,299.7c-3.7,0-6.6-2.2-6.6-5.1c0-3.5,4-5.8,10-5.8c1.3,0,2.9,0.3,4.1,0.7c0-0.2,0-0.3,0-0.5
		c0-3.7-1.7-5.6-5-5.6c-2.5,0-4.4,1.3-5,1.7c-0.2,0.1-0.3,0.2-0.5,0.2c-0.2,0-0.5-0.1-0.6-0.4l-0.1-0.2c-0.1-0.3-0.1-0.7,0.1-0.9
		c0.9-0.9,3.7-2.1,6.1-2.1c4.3,0,6.8,2.7,6.8,7.3c0,0.6,0,1.3-0.2,2l-1.2,7.2c-0.1,0.6-0.6,0.8-0.9,0.8c0,0-0.1,0-0.1,0
		c-0.2,0-0.8-0.1-0.7-1l0.1-1C-24.5,298.7-26.7,299.7-29.1,299.7z M-25.6,290.4l0,0.1c-4.8,0-8.2,1.7-8.2,4c0,1.9,2,3.3,4.8,3.3
		c3.6,0,6.5-2.7,7.3-6.6l0,0c-1.4-0.4-2.5-0.7-3.8-0.7V290.4z"/>
	<path class="st0" d="M-91.4,299.7c-1.2,0-2.1-0.3-2.6-1c-1-1.1-0.9-2.9-0.6-4.5l1.6-10.9h-1.3l-0.3-0.3c-0.2-0.2-0.2-0.5-0.2-0.7
		l0.1-0.1c0.2-0.6,0.6-0.6,0.8-0.6h1.2l0.6-4c0.2-0.7,0.6-0.7,0.8-0.7h0.2c0.2,0,0.5,0.1,0.6,0.3c0.1,0.2,0.2,0.4,0.1,0.7l-0.5,3.8
		h5.5c0.3,0,0.5,0.1,0.6,0.3c0.1,0.2,0.2,0.4,0.2,0.7l0,0.1c-0.1,0.4-0.5,0.7-0.9,0.7h-5.6l-1.6,11.1c-0.2,1.3-0.3,2.6,0.2,3.2
		c0.2,0.3,0.7,0.4,1.3,0.4c1.5,0,3.3-0.9,3.9-1.3c0.2-0.1,0.3-0.1,0.5-0.1c0.2,0,0.4,0,0.7,0.4l0.2,0.3c0.1,0.1,0.1,0.3,0.1,0.5
		c0,0.2-0.2,0.4-0.4,0.5C-87,298.5-89.3,299.7-91.4,299.7z"/>
	<path class="st0" d="M-66.1,299.3h-0.2c-0.3,0-0.5-0.1-0.6-0.3c-0.1-0.2-0.2-0.4-0.1-0.7l2.3-16.1c0.1-0.7,0.7-0.8,0.8-0.8h0.5
		l0.3,0.2c0.2,0.2,0.2,0.4,0.2,0.7l-0.1,0.5c1.4-1.2,3-1.8,4.6-1.8c1.5,0,2.4,0.4,2.9,0.8c0.2,0.2,0.3,0.4,0.4,0.6
		c0,0.2,0,0.4-0.2,0.6c-0.1,0.3-0.4,0.4-0.7,0.4c-0.2,0-0.3,0-0.4-0.1c-0.6-0.4-1.2-0.5-2-0.5c-2.7,0-4.5,2.5-4.9,3l-1.9,12.6
		C-65.4,299.1-65.8,299.3-66.1,299.3z"/>
</g>
</svg>
