<?xml version="1.0" encoding="utf-8"?>
<!-- Generator: Adobe Illustrator 19.1.0, SVG Export Plug-In . SVG Version: 6.00 Build 0)  -->
<!DOCTYPE svg PUBLIC "-//W3C//DTD SVG 1.1//EN" "http://www.w3.org/Graphics/SVG/1.1/DTD/svg11.dtd">
<svg version="1.1" id="Layer_1" xmlns="http://www.w3.org/2000/svg" xmlns:xlink="http://www.w3.org/1999/xlink" x="0px" y="0px"
	 viewBox="-360.2 252.4 155.2 56.8" style="enable-background:new -360.2 252.4 155.2 56.8;" xml:space="preserve">
<style type="text/css">
	.st0{fill:#B1141A;}
</style>
<g>
	<g>
		<g>
			<g>
				<path d="M-339.9,268.8h-0.2c-0.2,0-0.7,0.1-0.8,0.8l-0.1,0.9l-0.1-0.1c-0.9-0.7-3-2-6-2c-3.3,0-7.5,1.4-8.5,8.2l-0.3,2.2h-2.7
					c-0.4,0-0.8,0.2-0.8,0.7l0,0.2c-0.1,0.2,0,0.5,0.1,0.6c0.1,0.1,0.3,0.3,0.7,0.3h2.5l0,0.1l-3.8,27.5c-0.1,0.4,0,0.6,0.1,0.7
					l0.3,0.2h0.5c0.4,0,0.8-0.3,0.9-0.8l3.9-27.8h7.9c0.4,0,0.8-0.3,0.9-0.7l0-0.2c0-0.2,0-0.4-0.1-0.6c-0.1-0.2-0.4-0.3-0.7-0.3
					h-7.7l0.3-2.1c0.6-4.4,2.8-6.6,6.7-6.6c3,0,4.9,1.5,5.8,2.4l0,0l0,0l-3.6,25.6c-0.1,0.3,0,0.5,0.1,0.7c0.1,0.2,0.3,0.3,0.6,0.3
					h0.2c0.4,0,0.7-0.3,0.8-0.8l4.1-28.7c0.1-0.3,0-0.5-0.1-0.7C-339.5,268.9-339.7,268.8-339.9,268.8z"/>
				<path d="M-326.8,278.4c-6.1,0-10.7,5.3-10.7,12.4c0,5.4,3.1,8.9,8,8.9c2.8,0,6-1.4,7-2.5c0.2-0.2,0.3-0.6,0.1-0.9l-0.1-0.3
					c-0.2-0.4-0.5-0.4-0.6-0.4c-0.2,0-0.4,0.1-0.5,0.2c-0.6,0.5-2.9,2-5.9,2c-3.8,0-6.2-2.8-6.2-7.2c0-0.2,0-0.4,0-0.6l0-0.1l0.1,0
					c1.6,0.2,3.2,0.3,4.8,0.3c7.1,0,11.3-2.3,11.3-6.1C-319.5,280.8-322.6,278.4-326.8,278.4z M-321.3,284.2c0,2.7-3.6,4.4-9.5,4.4
					c-1.3,0-2.8-0.1-4.6-0.3l-0.1,0l0-0.1c0.9-4.7,4.4-7.9,8.7-7.9C-323.6,280.1-321.3,281.8-321.3,284.2z"/>
				<path d="M-306.2,278.8h-6.5l0.6-4.6c0.1-0.2,0-0.5-0.1-0.6c-0.1-0.2-0.4-0.3-0.6-0.3h-0.2c-0.2,0-0.6,0.1-0.8,0.7l-0.7,4.8h-1.5
					c-0.2,0-0.6,0.1-0.8,0.7l-0.1,0.2c-0.1,0.2,0,0.5,0.1,0.7l0.3,0.3h1.6l0,0.1l-1.8,12.7c-0.3,1.9-0.4,3.9,0.7,5.2
					c0.6,0.7,1.6,1.1,3,1.1c2.3,0,5.1-1.4,5.7-1.8c0.2-0.1,0.3-0.3,0.4-0.5c0-0.2,0-0.3-0.1-0.4l-0.2-0.3c-0.2-0.3-0.5-0.4-0.7-0.4
					c-0.2,0-0.3,0-0.5,0.1c-0.7,0.5-2.9,1.5-4.7,1.5c-0.8,0-1.3-0.2-1.6-0.5c-0.6-0.7-0.5-2.3-0.3-3.8l1.8-13h6.7
					c0.4,0,0.8-0.3,0.9-0.7l0.1-0.2c0-0.2,0-0.5-0.2-0.6C-305.7,278.9-305.9,278.8-306.2,278.8z"/>
				<path d="M-287,281c-0.8-0.8-3-2.7-6.7-2.7c-5.6,0-11.4,4.5-11.4,12c0,5.2,3.7,9.3,8.5,9.3c4.3,0,7.6-3.1,7.9-3.5
					c0.1-0.1,0.2-0.3,0.2-0.6c0-0.2-0.1-0.4-0.2-0.6l-0.5-0.4h-0.2c-0.1,0-0.3,0-0.5,0.2l-0.2,0.1c-2,1.9-4.4,3-6.6,3
					c-3.7,0-6.7-3.4-6.7-7.6c0-6.3,5-10.2,9.6-10.2c3,0,4.7,1.6,5.2,2.1l0.1,0.1c0.3,0.3,0.9,0.3,1.2,0l0.2-0.2
					c0.3-0.3,0.3-0.7,0.1-1L-287,281z"/>
				<path d="M-274.7,278.4c-2.1,0-4.2,0.8-6,2.5l-0.2,0.2l1.6-11.3c0.1-0.3,0-0.5-0.2-0.7c-0.1-0.2-0.4-0.3-0.6-0.3h-0.2
					c-0.2,0-0.7,0.1-0.8,0.8l-4.1,28.7c-0.1,0.3,0,0.5,0.1,0.7c0.1,0.1,0.3,0.3,0.7,0.3h0.2c0.3,0,0.7-0.1,0.8-0.8l2.1-14.4l0,0
					c2-2.6,4.3-3.8,6.6-3.8c1.5,0,2.6,0.4,3.4,1.2c1,1.2,1.3,3.3,0.9,6.4l-1.5,10.5c-0.1,0.4,0.1,0.6,0.1,0.7
					c0.1,0.1,0.3,0.3,0.7,0.3h0.2c0.4,0,0.7-0.3,0.8-0.8l1.5-10.5c0.5-3.6,0.1-6.2-1.2-7.7C-270.9,279-272.5,278.4-274.7,278.4z"/>
				<path d="M-254.9,278.4c-6.1,0-10.7,5.3-10.7,12.4c0,5.4,3.1,8.9,8,8.9c2.8,0,6-1.4,7-2.5c0.2-0.2,0.3-0.6,0.1-0.9l-0.1-0.3
					c-0.2-0.4-0.5-0.4-0.6-0.4c-0.2,0-0.4,0.1-0.5,0.2c-0.6,0.5-2.9,2-5.9,2c-3.8,0-6.2-2.8-6.2-7.2c0-0.2,0-0.4,0-0.6l0-0.1l0.1,0
					c1.6,0.2,3.2,0.3,4.8,0.3c7.1,0,11.3-2.3,11.3-6.1C-247.6,280.8-250.7,278.4-254.9,278.4z M-249.4,284.2c0,2.7-3.6,4.4-9.5,4.4
					c-1.3,0-2.8-0.1-4.5-0.3l-0.1,0l0-0.1c0.9-4.7,4.4-7.9,8.7-7.9C-251.7,280.1-249.4,281.8-249.4,284.2z"/>
				<path d="M-231.5,279.2c-0.7-0.4-1.6-0.9-3.4-0.9c-1.8,0-3.7,0.8-5.3,2.1l-0.2,0.2l0.1-0.9c0.1-0.3,0-0.5-0.1-0.7l-0.3-0.2h-0.5
					c-0.2,0-0.7,0.1-0.8,0.8l-2.7,18.7c-0.1,0.3,0,0.5,0.1,0.7c0.1,0.1,0.3,0.3,0.6,0.3h0.2c0.4,0,0.7-0.3,0.8-0.8l2.2-14.7
					c0.4-0.6,2.6-3.6,5.8-3.6c0.9,0,1.7,0.2,2.4,0.6c0.1,0.1,0.3,0.1,0.4,0.1c0.3,0,0.6-0.2,0.7-0.4c0.2-0.2,0.2-0.4,0.2-0.6
					C-231.2,279.6-231.3,279.4-231.5,279.2z"/>
			</g>
		</g>
	</g>
	<g>
		<path class="st0" d="M-206.3,274.4v-18.6c0.7-0.2,1.2-0.9,1.2-1.7c0-1-0.8-1.8-1.8-1.8c-0.8,0-1.5,0.5-1.7,1.2h-18.6
			c-0.2-0.7-0.9-1.2-1.7-1.2c-1,0-1.8,0.8-1.8,1.8c0,0.7,0.4,1.3,1,1.6c-0.2,1.7-0.2,3.4,0,5.1l-12.3,3.9c-0.3-0.5-0.8-0.8-1.4-0.8
			c-1,0-1.8,0.8-1.8,1.8c0,1,0.8,1.8,1.8,1.8c0.6,0,1.2-0.3,1.5-0.8l16.3,4.6c0,0.9,0.8,1.7,1.7,1.7l4.6,16.2c-0.6,0.3-1,0.9-1,1.6
			c0,1,0.8,1.8,1.8,1.8c1,0,1.8-0.8,1.8-1.8c0-0.5-0.2-1-0.6-1.3l4-12.6c0.8,0.1,1.6,0.2,2.5,0.2c0.9,0,1.7-0.1,2.6-0.2
			c0.3,0.6,0.9,1,1.6,1c1,0,1.8-0.8,1.8-1.8C-205,275.3-205.5,274.6-206.3,274.4z M-206.8,276.8c-0.1,0-0.3,0-0.4-0.1
			c-0.2-0.1-0.3-0.4-0.3-0.6c0-0.2,0.1-0.3,0.1-0.4c0,0,0,0,0.1-0.1c0.1-0.1,0.3-0.2,0.5-0.2s0.4,0.1,0.5,0.2
			c0.1,0.1,0.2,0.3,0.2,0.5C-206.1,276.5-206.4,276.8-206.8,276.8z M-207.3,253.6c0.1-0.1,0.3-0.2,0.5-0.2c0.4,0,0.7,0.3,0.7,0.7
			c0,0.2-0.1,0.4-0.2,0.5c0,0.1-0.1,0.1-0.2,0.1c-0.1,0.1-0.2,0.1-0.3,0.1c0,0,0,0,0,0c-0.4,0-0.7-0.3-0.7-0.7c0,0,0,0,0,0
			c0-0.1,0-0.2,0.1-0.3C-207.4,253.7-207.3,253.7-207.3,253.6z M-222.8,269.7c-0.3-0.2-0.6-0.3-1-0.3c-0.3,0-0.5,0.1-0.7,0.2
			c-2-2.4-3.2-5.1-3.8-8.1l19.7-6.2L-222.8,269.7z M-224.6,271.2C-224.6,271.2-224.6,271.2-224.6,271.2c0-0.3,0.2-0.5,0.4-0.7
			c0.1,0,0.2-0.1,0.3-0.1c0,0,0,0,0,0c0.1,0,0.1,0,0.2,0c0.3,0.1,0.4,0.3,0.5,0.6c0,0,0,0,0,0c0,0.1,0,0.2-0.1,0.3
			c-0.1,0.2-0.4,0.4-0.6,0.4c0,0,0,0,0,0c-0.1,0-0.2,0-0.4-0.1c-0.1-0.1-0.2-0.1-0.2-0.2c0,0,0,0,0,0
			C-224.5,271.4-224.6,271.3-224.6,271.2z M-222.2,270.6l14.3-14.5l-6.2,19.7c-3-0.5-5.8-1.8-8.1-3.8c0.1-0.2,0.2-0.5,0.2-0.7
			C-222.1,271-222.1,270.8-222.2,270.6z M-229.4,254.1c0-0.4,0.3-0.7,0.7-0.7c0.2,0,0.4,0.1,0.5,0.2c0.1,0.1,0.2,0.3,0.2,0.5
			c0,0.2-0.1,0.4-0.2,0.5c0,0,0,0-0.1,0.1c-0.1,0.1-0.3,0.1-0.4,0.1c-0.3,0-0.5-0.1-0.6-0.3C-229.4,254.4-229.4,254.3-229.4,254.1z
			 M-228.5,255.9c0.7-0.1,1.3-0.6,1.5-1.2h16.9l-18.3,5.8C-228.7,258.9-228.7,257.4-228.5,255.9z M-243.3,266.4
			c-0.4,0-0.7-0.3-0.7-0.7c0-0.4,0.3-0.7,0.7-0.7c0.1,0,0.2,0,0.3,0.1c0.2,0.1,0.4,0.4,0.4,0.6c0,0.3-0.2,0.5-0.4,0.6
			C-243.1,266.3-243.2,266.4-243.3,266.4z M-229.4,261.8c0.6,3,1.9,5.9,3.9,8.4l-16.1-4.6L-229.4,261.8z M-219.3,290.8
			c0-0.2,0.1-0.4,0.3-0.6c0.1-0.1,0.3-0.1,0.4-0.1c0.4,0,0.7,0.3,0.7,0.7c0,0.1,0,0.2,0,0.2c-0.1,0.3-0.4,0.5-0.7,0.5
			C-219,291.5-219.3,291.2-219.3,290.8z M-218.3,288.9l-4.6-16.1c2.5,2,5.3,3.3,8.4,3.9L-218.3,288.9z M-213.1,275.9l5.8-18.3v16.9
			c-0.6,0.2-1.1,0.8-1.2,1.5C-210.1,276.1-211.6,276.1-213.1,275.9z"/>
	</g>
</g>
</svg>
