<?xml version="1.0" encoding="utf-8"?>
<!-- Generator: Adobe Illustrator 17.0.0, SVG Export Plug-In . SVG Version: 6.00 Build 0)  -->
<!DOCTYPE svg PUBLIC "-//W3C//DTD SVG 1.1//EN" "http://www.w3.org/Graphics/SVG/1.1/DTD/svg11.dtd">
<svg version="1.1" id="Layer_1" xmlns="http://www.w3.org/2000/svg" xmlns:xlink="http://www.w3.org/1999/xlink" x="0px" y="0px"
	 width="92.979px" height="46.516px" viewBox="0 0 92.979 46.516" enable-background="new 0 0 92.979 46.516" xml:space="preserve">
<g>
	<g>
		<g>
			<g>
				<path fill="#FFFFFF" d="M19.409,17.599h-0.1c-0.099,0-0.334,0.036-0.401,0.369l-0.055,0.419l-0.068-0.054
					c-0.445-0.349-1.406-0.933-2.836-0.933c-1.566,0-3.531,0.672-4,3.874l-0.15,1.044h-1.27c-0.212,0-0.357,0.114-0.398,0.313
					l-0.017,0.085c-0.028,0.114-0.007,0.221,0.058,0.302c0.049,0.062,0.143,0.136,0.316,0.136h1.183l-0.008,0.056l-1.812,13
					c-0.037,0.182,0.016,0.292,0.067,0.352l0.132,0.115h0.218c0.212,0,0.372-0.149,0.421-0.388l1.832-13.135h3.709
					c0.203,0,0.366-0.126,0.415-0.321l0.021-0.09c0.023-0.106-0.001-0.21-0.067-0.29c-0.07-0.086-0.183-0.135-0.31-0.135h-3.641
					l0.141-0.976c0.303-2.09,1.337-3.106,3.16-3.106c1.439,0,2.328,0.719,2.729,1.148l0.016,0.018l-0.003,0.023l-1.699,12.086
					c-0.025,0.128,0,0.243,0.069,0.327c0.065,0.077,0.16,0.12,0.268,0.12h0.101c0.183,0,0.336-0.147,0.38-0.367l1.936-13.544
					c0.026-0.127,0.003-0.243-0.067-0.327C19.613,17.642,19.518,17.599,19.409,17.599z"/>
				<path fill="#FFFFFF" d="M25.611,22.12c-2.886,0-5.062,2.515-5.062,5.851c0,2.555,1.477,4.205,3.762,4.205
					c1.327,0,2.823-0.676,3.312-1.161c0.109-0.108,0.135-0.275,0.065-0.415l-0.061-0.122c-0.088-0.172-0.223-0.197-0.295-0.197
					c-0.085,0-0.171,0.033-0.248,0.097c-0.294,0.226-1.359,0.962-2.773,0.962c-1.8,0-2.918-1.306-2.918-3.409
					c0-0.088,0.004-0.179,0.012-0.288l0.005-0.052l0.052,0.007c0.77,0.106,1.512,0.157,2.27,0.157c3.333,0,5.323-1.083,5.323-2.897
					C29.053,23.271,27.606,22.12,25.611,22.12z M28.21,24.858c0,1.29-1.682,2.061-4.498,2.061c-0.591,0-1.314-0.053-2.15-0.157
					l-0.052-0.007l0.01-0.052c0.436-2.241,2.081-3.747,4.092-3.747C27.141,22.955,28.21,23.738,28.21,24.858z"/>
				<path fill="#FFFFFF" d="M35.334,22.318h-3.086l0.28-2.176c0.027-0.111,0.004-0.219-0.062-0.304
					c-0.068-0.087-0.175-0.137-0.292-0.137h-0.101c-0.083,0-0.283,0.034-0.36,0.35l-0.311,2.267h-0.69
					c-0.086,0-0.295,0.03-0.368,0.313l-0.028,0.071c-0.028,0.112-0.004,0.237,0.067,0.328l0.126,0.123h0.764l-0.008,0.057
					l-0.854,6.016c-0.126,0.875-0.186,1.848,0.326,2.434c0.3,0.343,0.769,0.516,1.394,0.516c1.101,0,2.392-0.658,2.677-0.834
					c0.095-0.063,0.162-0.156,0.181-0.254c0.015-0.074,0.002-0.147-0.037-0.205l-0.081-0.156c-0.101-0.147-0.236-0.17-0.308-0.17
					c-0.074,0-0.146,0.022-0.228,0.071c-0.35,0.232-1.352,0.712-2.204,0.712c-0.363,0-0.611-0.081-0.758-0.249
					c-0.298-0.339-0.224-1.074-0.122-1.798l0.87-6.14h3.15c0.194,0,0.364-0.132,0.413-0.322l0.025-0.074
					c0.023-0.11-0.003-0.221-0.072-0.305C35.569,22.366,35.46,22.318,35.334,22.318z"/>
				<path fill="#FFFFFF" d="M44.413,23.385c-0.363-0.378-1.405-1.265-3.177-1.265c-2.646,0-5.382,2.114-5.382,5.653
					c0,2.47,1.767,4.404,4.022,4.404c2.045,0,3.582-1.487,3.751-1.656c0.07-0.07,0.108-0.164,0.108-0.267
					c0-0.104-0.039-0.203-0.107-0.269l-0.235-0.198h-0.102c-0.035,0-0.154,0.007-0.234,0.089l-0.077,0.069
					c-0.968,0.9-2.07,1.397-3.104,1.397c-1.753,0-3.178-1.6-3.178-3.568c0-2.975,2.356-4.817,4.538-4.817
					c1.429,0,2.213,0.756,2.471,1.005l0.057,0.055c0.152,0.15,0.402,0.159,0.544,0.02l0.101-0.1c0.137-0.137,0.157-0.32,0.054-0.489
					L44.413,23.385z"/>
				<path fill="#FFFFFF" d="M50.243,22.12c-1.011,0-1.971,0.396-2.853,1.176l-0.101,0.09l0.772-5.34
					c0.024-0.12-0.002-0.232-0.072-0.318c-0.069-0.082-0.174-0.129-0.285-0.129h-0.079c-0.099,0-0.334,0.036-0.401,0.367
					l-1.957,13.546c-0.031,0.158,0.02,0.26,0.068,0.317c0.048,0.059,0.141,0.129,0.31,0.129h0.079c0.121,0,0.335-0.047,0.401-0.366
					l0.99-6.813l0.008-0.011c0.963-1.205,2.011-1.812,3.122-1.812c0.728,0,1.247,0.188,1.586,0.574
					c0.485,0.554,0.624,1.576,0.415,3.039l-0.717,4.941c-0.034,0.165,0.027,0.27,0.066,0.318c0.049,0.059,0.143,0.13,0.31,0.13
					h0.081c0.204,0,0.332-0.123,0.38-0.366l0.719-4.953c0.257-1.711,0.065-2.908-0.589-3.66C51.997,22.408,51.24,22.12,50.243,22.12
					z"/>
				<path fill="#FFFFFF" d="M59.564,22.12c-2.886,0-5.062,2.515-5.062,5.851c0,2.555,1.477,4.205,3.762,4.205
					c1.327,0,2.823-0.676,3.312-1.161c0.109-0.108,0.135-0.275,0.065-0.415l-0.061-0.122c-0.088-0.172-0.223-0.197-0.295-0.197
					c-0.085,0-0.171,0.033-0.248,0.097c-0.294,0.226-1.359,0.962-2.773,0.962c-1.8,0-2.918-1.306-2.918-3.409
					c0-0.088,0.004-0.179,0.012-0.288l0.004-0.052l0.052,0.007c0.77,0.106,1.512,0.157,2.27,0.157c3.333,0,5.323-1.083,5.323-2.897
					C63.007,23.271,61.559,22.12,59.564,22.12z M62.163,24.858c0,1.29-1.682,2.061-4.499,2.061c-0.592,0-1.314-0.053-2.15-0.157
					l-0.052-0.007l0.01-0.052c0.436-2.241,2.081-3.747,4.092-3.747C61.094,22.955,62.163,23.738,62.163,24.858z"/>
				<path fill="#FFFFFF" d="M70.619,22.53c-0.311-0.19-0.776-0.41-1.584-0.41c-0.867,0-1.753,0.357-2.497,1.006l-0.096,0.084
					l0.051-0.443c0.026-0.131,0.001-0.248-0.07-0.333l-0.128-0.115h-0.239c-0.092,0-0.315,0.036-0.38,0.367l-1.257,8.826
					c-0.026,0.134-0.005,0.242,0.063,0.325c0.046,0.056,0.135,0.122,0.294,0.122h0.101c0.204,0,0.332-0.123,0.379-0.366l1.019-6.934
					c0.194-0.284,1.238-1.702,2.761-1.702c0.448,0,0.803,0.097,1.118,0.305c0.059,0.035,0.128,0.054,0.199,0.054
					c0.149,0,0.284-0.081,0.352-0.21c0.075-0.101,0.106-0.203,0.092-0.303C70.781,22.698,70.72,22.605,70.619,22.53z"/>
			</g>
		</g>
	</g>
	<g>
		<path fill="#B1141A" d="M82.554,20.246v-8.781c0.339-0.106,0.586-0.419,0.586-0.793c0-0.46-0.374-0.834-0.834-0.834
			c-0.374,0-0.687,0.248-0.793,0.587h-8.781c-0.106-0.339-0.419-0.587-0.793-0.587c-0.46,0-0.834,0.375-0.834,0.834
			c0,0.321,0.185,0.598,0.452,0.737c-0.111,0.804-0.112,1.606-0.009,2.39l-5.832,1.836c-0.151-0.217-0.401-0.359-0.684-0.359
			c-0.461,0-0.835,0.374-0.835,0.834c0,0.46,0.374,0.834,0.835,0.834c0.292,0,0.548-0.151,0.697-0.379l7.682,2.179
			c0.012,0.443,0.368,0.8,0.811,0.811l2.18,7.666c-0.29,0.131-0.493,0.421-0.493,0.76c0,0.46,0.374,0.834,0.835,0.834
			c0.461,0,0.835-0.375,0.835-0.834c0-0.243-0.106-0.46-0.272-0.613l1.87-5.938c0.384,0.051,0.771,0.078,1.162,0.078
			c0.408,0,0.818-0.032,1.229-0.088c0.139,0.267,0.416,0.451,0.737,0.451c0.461,0,0.835-0.375,0.835-0.834
			C83.141,20.666,82.893,20.352,82.554,20.246z M82.306,21.378c-0.065,0-0.125-0.019-0.177-0.051
			c-0.097-0.06-0.162-0.166-0.162-0.288c0-0.074,0.025-0.143,0.066-0.199c0.008-0.011,0.017-0.021,0.026-0.031
			c0.062-0.067,0.15-0.109,0.248-0.109c0.098,0,0.186,0.042,0.248,0.109c0.056,0.061,0.092,0.141,0.092,0.23
			C82.646,21.226,82.493,21.378,82.306,21.378z M82.076,10.425c0.061-0.056,0.141-0.091,0.23-0.091c0.186,0,0.339,0.152,0.339,0.339
			c0,0.089-0.035,0.169-0.091,0.229c-0.023,0.025-0.05,0.046-0.08,0.063c-0.045,0.026-0.096,0.042-0.151,0.045
			c-0.005,0-0.01,0.002-0.016,0.002c-0.187,0-0.339-0.152-0.339-0.339c0-0.003,0.001-0.006,0.001-0.009
			c0.002-0.058,0.018-0.111,0.045-0.159C82.03,10.475,82.051,10.448,82.076,10.425z M74.723,18.043
			c-0.136-0.096-0.3-0.153-0.479-0.153c-0.126,0-0.244,0.03-0.352,0.08c-0.926-1.116-1.534-2.431-1.789-3.826l9.33-2.938
			L74.723,18.043z M73.907,18.732c0-0.003-0.001-0.005-0.001-0.008c0-0.132,0.076-0.245,0.186-0.301
			c0.046-0.024,0.097-0.038,0.153-0.038c0.006,0,0.012,0.002,0.018,0.002c0.036,0.002,0.07,0.009,0.102,0.021
			c0.123,0.047,0.211,0.162,0.218,0.299c0,0.006,0.002,0.011,0.002,0.017c0,0.056-0.015,0.107-0.038,0.153
			c-0.056,0.11-0.169,0.186-0.301,0.186c-0.004,0-0.007-0.001-0.01-0.001c-0.061-0.002-0.117-0.02-0.165-0.05
			c-0.044-0.027-0.081-0.063-0.109-0.106c-0.001-0.002-0.002-0.005-0.004-0.007C73.926,18.851,73.908,18.794,73.907,18.732z
			 M75.027,18.441l6.733-6.858l-2.925,9.291c-1.398-0.256-2.718-0.866-3.836-1.796c0.051-0.108,0.081-0.226,0.081-0.353
			C75.08,18.625,75.059,18.53,75.027,18.441z M71.601,10.673c0-0.187,0.152-0.339,0.339-0.339c0.089,0,0.169,0.035,0.23,0.091
			c0.067,0.062,0.109,0.15,0.109,0.248c0,0.098-0.043,0.186-0.109,0.248c-0.01,0.009-0.021,0.018-0.032,0.026
			c-0.056,0.041-0.124,0.065-0.198,0.065c-0.121,0-0.227-0.065-0.287-0.161C71.62,10.799,71.601,10.738,71.601,10.673z
			 M72.045,11.496c0.326-0.042,0.591-0.27,0.687-0.576h7.962l-8.665,2.729C71.943,12.942,71.947,12.22,72.045,11.496z
			 M65.033,16.451c-0.187,0-0.339-0.152-0.339-0.339c0-0.187,0.152-0.339,0.339-0.339c0.052,0,0.1,0.013,0.145,0.034
			c0.114,0.054,0.194,0.17,0.194,0.305c0,0.132-0.076,0.245-0.186,0.301C65.139,16.436,65.088,16.451,65.033,16.451z M71.628,14.295
			c0.274,1.439,0.903,2.798,1.853,3.956l-7.584-2.151L71.628,14.295z M76.407,27.983c0-0.111,0.054-0.209,0.137-0.27
			c0.057-0.043,0.126-0.069,0.203-0.069c0.187,0,0.339,0.152,0.339,0.339c0,0.039-0.008,0.077-0.021,0.112
			c-0.047,0.132-0.171,0.227-0.319,0.227C76.559,28.322,76.407,28.17,76.407,27.983z M76.879,27.083l-2.158-7.586
			c1.159,0.953,2.52,1.582,3.962,1.856L76.879,27.083z M79.33,20.949l2.729-8.665v7.962c-0.306,0.096-0.535,0.361-0.576,0.687
			C80.759,21.031,80.037,21.035,79.33,20.949z"/>
	</g>
</g>
</svg>
