<?xml version="1.0" encoding="utf-8"?>
<!-- Generator: Adobe Illustrator 17.0.0, SVG Export Plug-In . SVG Version: 6.00 Build 0)  -->
<!DOCTYPE svg PUBLIC "-//W3C//DTD SVG 1.1//EN" "http://www.w3.org/Graphics/SVG/1.1/DTD/svg11.dtd">
<svg version="1.1" id="Layer_1" xmlns="http://www.w3.org/2000/svg" xmlns:xlink="http://www.w3.org/1999/xlink" x="0px" y="0px"
	 width="87px" height="87px" viewBox="0 0 87 87" enable-background="new 0 0 87 87" xml:space="preserve">
<g>
	<circle fill="#DBDBDB" cx="43.5" cy="43.5" r="42.853"/>
	<g>
		<path fill="#FFFFFF" d="M67.261,50.399V24.516c0.998-0.313,1.729-1.236,1.729-2.336c0-1.356-1.103-2.46-2.459-2.46
			c-1.102,0-2.024,0.731-2.337,1.73H38.311c-0.313-0.998-1.236-1.73-2.337-1.73c-1.356,0-2.459,1.104-2.459,2.46
			c0,0.948,0.545,1.763,1.332,2.173c-0.327,2.369-0.331,4.735-0.026,7.046l-17.19,5.413c-0.445-0.638-1.181-1.059-2.016-1.059
			c-1.358,0-2.461,1.104-2.461,2.46c0,1.356,1.103,2.46,2.461,2.46c0.86,0,1.616-0.446,2.056-1.117l22.645,6.423
			c0.034,1.306,1.086,2.358,2.391,2.391l6.427,22.597c-0.855,0.386-1.453,1.242-1.453,2.239c0,1.356,1.103,2.46,2.461,2.46
			c1.358,0,2.461-1.104,2.461-2.46c0-0.716-0.313-1.356-0.803-1.806l5.512-17.504c1.131,0.149,2.274,0.231,3.425,0.231
			c1.202,0,2.412-0.093,3.623-0.26c0.411,0.786,1.225,1.33,2.173,1.33c1.358,0,2.461-1.104,2.461-2.46
			C68.991,51.635,68.26,50.712,67.261,50.399z M66.531,53.735c-0.192,0-0.369-0.057-0.521-0.15
			c-0.286-0.176-0.479-0.489-0.479-0.849c0-0.22,0.073-0.421,0.194-0.586c0.024-0.032,0.049-0.063,0.076-0.093
			c0.183-0.196,0.441-0.321,0.73-0.321c0.289,0,0.547,0.125,0.73,0.321c0.166,0.178,0.27,0.416,0.27,0.678
			C67.531,53.287,67.082,53.735,66.531,53.735z M65.852,21.449c0.179-0.166,0.416-0.269,0.678-0.269c0.55,0,0.998,0.448,0.998,0.999
			c0,0.262-0.103,0.498-0.268,0.676c-0.069,0.074-0.149,0.136-0.237,0.187c-0.133,0.077-0.284,0.124-0.446,0.131
			c-0.016,0.001-0.031,0.005-0.047,0.005c-0.551,0-1-0.448-1-0.999c0-0.009,0.002-0.017,0.003-0.026
			c0.005-0.17,0.053-0.328,0.133-0.467C65.717,21.598,65.778,21.518,65.852,21.449z M44.179,43.904
			c-0.4-0.282-0.885-0.45-1.411-0.45c-0.371,0-0.72,0.089-1.036,0.237c-2.729-3.29-4.521-7.167-5.272-11.277l27.503-8.661
			L44.179,43.904z M41.772,45.936c0-0.008-0.002-0.015-0.002-0.023c0-0.388,0.225-0.722,0.548-0.887
			c0.136-0.069,0.287-0.112,0.45-0.112c0.018,0,0.035,0.004,0.053,0.005c0.105,0.006,0.206,0.026,0.3,0.062
			c0.362,0.137,0.621,0.477,0.642,0.881c0.001,0.017,0.005,0.033,0.005,0.05c0,0.164-0.043,0.316-0.113,0.452
			c-0.166,0.324-0.499,0.548-0.887,0.548c-0.01,0-0.02-0.003-0.03-0.003c-0.178-0.006-0.344-0.059-0.487-0.146
			c-0.129-0.079-0.239-0.185-0.321-0.313c-0.004-0.006-0.007-0.013-0.011-0.02C41.83,46.286,41.776,46.118,41.772,45.936z
			 M45.073,45.078l19.847-20.216l-8.623,27.386c-4.122-0.754-8.011-2.553-11.307-5.295c0.149-0.317,0.239-0.667,0.239-1.04
			C45.229,45.619,45.168,45.34,45.073,45.078z M34.975,22.179c0-0.551,0.449-0.999,0.998-0.999c0.262,0,0.5,0.104,0.678,0.269
			c0.197,0.183,0.322,0.441,0.322,0.73c0,0.289-0.125,0.548-0.322,0.73c-0.03,0.027-0.061,0.053-0.093,0.077
			c-0.165,0.12-0.366,0.192-0.585,0.192c-0.357,0-0.67-0.191-0.846-0.475C35.032,22.551,34.975,22.372,34.975,22.179z
			 M36.285,24.608c0.962-0.123,1.743-0.796,2.026-1.698H61.78l-25.543,8.043C35.984,28.868,35.996,26.739,36.285,24.608z
			 M15.614,39.211c-0.551,0-1-0.448-1-0.999c0-0.552,0.449-0.999,1-0.999c0.153,0,0.296,0.037,0.426,0.099
			c0.337,0.161,0.572,0.502,0.572,0.9c0,0.388-0.225,0.722-0.548,0.887C15.928,39.168,15.777,39.211,15.614,39.211z M35.056,32.856
			c0.806,4.243,2.661,8.246,5.463,11.66l-22.357-6.341L35.056,32.856z M49.14,73.204c0-0.327,0.16-0.615,0.403-0.797
			c0.167-0.125,0.372-0.202,0.597-0.202c0.551,0,1,0.448,1,0.999c0,0.116-0.024,0.226-0.06,0.33c-0.137,0.389-0.505,0.67-0.94,0.67
			C49.589,74.203,49.14,73.755,49.14,73.204z M50.534,70.552l-6.36-22.361c3.417,2.808,7.429,4.664,11.678,5.471L50.534,70.552z
			 M57.758,52.471L65.8,26.928v23.47c-0.902,0.283-1.576,1.064-1.699,2.025C61.971,52.713,59.842,52.724,57.758,52.471z"/>
	</g>
</g>
</svg>
