<?xml version="1.0" encoding="utf-8"?>
<!-- Generator: Adobe Illustrator 17.0.0, SVG Export Plug-In . SVG Version: 6.00 Build 0)  -->
<!DOCTYPE svg PUBLIC "-//W3C//DTD SVG 1.1//EN" "http://www.w3.org/Graphics/SVG/1.1/DTD/svg11.dtd">
<svg version="1.1" id="Layer_1" xmlns="http://www.w3.org/2000/svg" xmlns:xlink="http://www.w3.org/1999/xlink" x="0px" y="0px"
	 width="62px" height="62px" viewBox="0 0 62 62" enable-background="new 0 0 62 62" xml:space="preserve">
<g>
	<g>
		<path fill="#FFFFFF" d="M33.221,42.387c-10.841,0-20-9.159-20-20s9.159-20,20-20c10.841,0,20,9.159,20,20
			S44.061,42.387,33.221,42.387z M33.221,4.387c-9.757,0-18,8.243-18,18s8.243,18,18,18c9.757,0,18-8.243,18-18
			S42.977,4.387,33.221,4.387z"/>
		<path fill="#FFFFFF" d="M33.782,49.212c-6.948,0-13.481-2.707-18.395-7.622c-10.143-10.147-10.143-26.657,0-36.804
			c0.39-0.391,1.023-0.391,1.414,0c0.391,0.39,0.391,1.023,0,1.414c-9.363,9.367-9.363,24.608,0,33.976
			c4.536,4.537,10.567,7.036,16.981,7.036c6.415,0,12.445-2.499,16.98-7.036c0.391-0.391,1.023-0.391,1.414,0
			c0.391,0.39,0.391,1.023,0,1.414C47.263,46.505,40.73,49.212,33.782,49.212z"/>
		<path fill="#FFFFFF" d="M53.221,43.162c-0.246,0-0.492-0.09-0.686-0.272l-6.272-5.904c-0.402-0.378-0.421-1.011-0.043-1.413
			c0.38-0.402,1.013-0.422,1.414-0.042l6.272,5.904c0.402,0.378,0.421,1.011,0.043,1.413C53.752,43.057,53.486,43.162,53.221,43.162
			z"/>
		<path fill="#FFFFFF" d="M19.436,9.734c-0.265,0-0.53-0.105-0.726-0.313l-6.216-6.571c-0.379-0.401-0.362-1.034,0.04-1.414
			c0.401-0.379,1.035-0.362,1.414,0.04l6.216,6.571c0.379,0.401,0.362,1.034-0.04,1.414C19.93,9.643,19.683,9.734,19.436,9.734z"/>
		<path fill="#FFFFFF" d="M43.221,60.837h-18c-0.552,0-1-0.448-1-1s0.448-1,1-1h18c0.553,0,1,0.448,1,1S43.773,60.837,43.221,60.837
			z"/>
		<path fill="#FFFFFF" d="M34.221,60.162c-0.552,0-1-0.448-1-1v-10c0-0.552,0.448-1,1-1c0.553,0,1,0.448,1,1v10
			C35.221,59.715,34.773,60.162,34.221,60.162z"/>
	</g>
</g>
</svg>
