<?xml version="1.0" encoding="utf-8"?>
<!-- Generator: Adobe Illustrator 17.0.0, SVG Export Plug-In . SVG Version: 6.00 Build 0)  -->
<!DOCTYPE svg PUBLIC "-//W3C//DTD SVG 1.1//EN" "http://www.w3.org/Graphics/SVG/1.1/DTD/svg11.dtd">
<svg version="1.1" id="Layer_1" xmlns="http://www.w3.org/2000/svg" xmlns:xlink="http://www.w3.org/1999/xlink" x="0px" y="0px"
	 width="62px" height="62px" viewBox="0 0 62 62" enable-background="new 0 0 62 62" xml:space="preserve">
<g>
	<g>
		<path fill="#FFFFFF" d="M29.514,30.741c-0.423,0-0.816-0.271-0.952-0.695c-0.168-0.525,0.121-1.089,0.647-1.257
			c3.562-1.142,6.088-2.707,6.845-6.641c0.106-0.541,0.622-0.893,1.172-0.793c0.542,0.105,0.896,0.629,0.793,1.172
			c-1.002,5.202-4.707,7.047-8.2,8.166C29.717,30.726,29.615,30.741,29.514,30.741z"/>
		<path fill="#FFFFFF" d="M34.516,33.244c-0.427,0-0.822-0.274-0.955-0.703c-0.164-0.527,0.131-1.088,0.658-1.252
			c2.316-0.719,6.695-3.516,6.695-8.951c0-0.553,0.447-1,1-1c0.553,0,1,0.447,1,1c0,6.587-5.093,9.927-8.102,10.861
			C34.714,33.23,34.613,33.244,34.516,33.244z"/>
		<path fill="#FFFFFF" d="M42.375,25.517c-0.104,0-0.234-0.005-0.442-0.019c-0.551-0.038-0.968-0.515-0.931-1.065
			c0.038-0.551,0.523-0.947,1.065-0.931c0.258,0.018,0.338,0.014,0.456,0.01C42.631,23.506,42.762,23.5,43,23.5
			c8.673,0,16-4.579,16-10s-7.327-10-16-10c-8.404,0-14.987,4.383-14.987,9.977c0,3.818,3.557,7.293,9.283,9.067
			c0.527,0.163,0.823,0.724,0.659,1.251c-0.163,0.527-0.721,0.822-1.251,0.659c-6.595-2.044-10.691-6.25-10.691-10.978
			C26.013,6.761,33.475,1.5,43,1.5c9.925,0,18,5.383,18,12s-8.075,12-18,12c-0.19,0-0.296,0.005-0.382,0.009
			C42.535,25.513,42.465,25.517,42.375,25.517z"/>
		<path fill="#FFFFFF" d="M44,60.5c-0.161,0-0.322-0.039-0.471-0.117l-14.616-7.796C26.564,53.343,24.12,53.5,21,53.5
			c-10.841,0-20-6.869-20-15s9.159-15,20-15c4.486,0,8.752,1.285,12.681,3.82c0.464,0.299,0.598,0.918,0.298,1.382
			C33.681,29.167,33.061,29.3,32.597,29c-3.6-2.322-7.502-3.5-11.597-3.5c-9.757,0-18,5.953-18,13s8.243,13,18,13
			c3.07,0,5.419-0.155,7.615-0.922c0.268-0.113,0.583-0.106,0.856,0.039l12.584,6.712l-4.983-12.458
			c-0.126-0.315-0.084-0.672,0.112-0.948C38.457,42.121,39,40.499,39,38.5c0-2.14-0.853-4.099-2.763-6.354
			c-0.357-0.421-0.305-1.053,0.116-1.409c0.422-0.358,1.054-0.304,1.409,0.116C39.972,33.459,41,35.89,41,38.5
			c0,2.24-0.581,4.15-1.874,6.123l5.803,14.506c0.155,0.39,0.052,0.836-0.262,1.116C44.479,60.413,44.241,60.5,44,60.5z"/>
	</g>
</g>
</svg>
